<?xml version="1.0" encoding="UTF-8"?>
<svg id="Diseño_Logo" data-name="Diseño Logo" xmlns="http://www.w3.org/2000/svg" viewBox="0 0 1080 1080">
  <defs>
    <style>
      .cls-1 {
        fill: #82bf40;
      }

      .cls-2 {
        fill: #3752ff;
      }

      .cls-3 {
        fill: #e97222;
      }
    </style>
  </defs>
  <path class="cls-2" d="M803.7739,488.00518c-6.92871-18.04517-14.55721-35.9125-22.79079-53.3526-7.91352-16.76405-16.55058-33.46844-25.66209-49.67492-1.61364-2.85913-3.33387-5.87265-5.26757-9.21839-1.64927-2.81163-3.17948-5.42166-4.72187-7.99636-.09501-.15409-.17813-.30848-.28473-.46257-2.25434-3.79673-4.56778-7.58129-7.04747-11.56745-.30848-.4982-.64042-.96106-1.00827-1.41175-4.8525-6.02703-10.61856-11.05738-17.01315-14.97257l-23.90595-82.88209-.15438-.51036,4.29493-.33223c2.30156-.16597,4.30651-1.25737,5.69451-2.88288,1.38829-1.61335,2.15934-3.76081,1.98149-6.06237-.32035-4.3068-3.86769-7.59317-8.10324-7.70005,3.48825-5.88452,5.26786-12.84857,4.70999-20.18047-1.22174-16.04022-13.20455-28.67561-28.34309-31.38065-2.81192-.51007-5.73043-.66446-8.72019-.43882-2.97789.22535-5.8489.83043-8.55393,1.75586-14.54534,4.95909-24.4754,19.26721-23.25336,35.30743.55758,7.3319,3.3692,13.95213,7.69947,19.24345-1.94558.3441-3.63018,1.35237-4.85221,2.77629-1.388,1.61335-2.15934,3.76081-1.99308,6.06237.35598,4.59153,4.35401,8.03199,8.94525,7.67601l4.29493-.32035-.07125.52224-11.05709,85.39741c-1.51863.91356-2.80004,1.69648-3.38137,2.11155l-5.07785-8.80303-88.69565-153.6157-14.56909-25.24673-.87793-12.57572c-1.48301-21.42654,14.68785-40.00583,36.1141-41.50043l202.60241-14.07089c21.42654-1.48301,40.00583,14.67568,41.50043,36.10222l22.30447,321.25479c1.21016,17.42822-9.25402,32.97024-24.73637,38.94977Z"/>
  <g>
    <path class="cls-1" d="M389.51666,331.12687c1.68489-3.99832,4.87625-6.64398,8.73207-8.18637,2.65754-1.06765,5.68293-1.74398,8.54206-1.74398,5.43383-.01188,7.64038,4.36589,4.93534,9.07617-1.57772,2.71691-3.80831,4.70999-7.3794,6.59619-3.19136,1.75615-6.59619,2.5747-10.23854,2.11184-4.34214-.5457-6.288-3.82019-4.59153-7.85385Z"/>
    <path class="cls-1" d="M432.53571,308.45454c1.49488-3.01352,4.05741-5.42166,8.47109-7.67601,2.98976-1.45926,6.7862-2.70504,10.93862-1.35237,3.17948,1.03202,4.44902,3.40483,3.48796,6.61994-1.24578,4.16429-4.42527,6.71524-8.00823,8.63706-3.45233,1.85086-7.20156,3.04914-11.23522,1.99337-4.18804-1.10357-5.5998-4.33055-3.65422-8.222Z"/>
    <path class="cls-1" d="M475.3413,285.88909c2.91851-5.50479,11.0455-9.81159,17.25038-9.13526,5.29132.56945,7.22502,4.42527,4.61499,9.07617-1.72023,3.04885-4.35401,5.03006-7.35565,6.61994-3.02539,1.60176-6.21675,2.53878-9.66909,2.19497-5.08972-.52224-7.18968-4.3543-4.84063-8.75582Z"/>
    <path class="cls-1" d="M435.65611,409.19238c-2.77629-5.32724-10.58293-9.71688-16.58592-9.21839-1.09169.09472-2.26622.47445-3.17977,1.06765-2.71662,1.76773-2.776,5.70668-.27285,8.89804,3.19165,4.05741,7.32032,6.70307,12.36254,7.67601,1.77961.33223,3.77269.21347,5.54042-.21347,3.23886-.77105,4.09304-4.44902,2.13559-8.20983ZM465.07901,367.47819c-2.65783-5.13723-9.98973-9.50312-15.76737-9.37248-5.42195.11847-7.88977,4.18804-5.00688,8.79116,3.53575,5.62355,8.79145,8.86241,15.51827,9.09992,5.58792.2016,7.81851-3.59513,5.25598-8.5186ZM465.07901,367.47819c-2.65783-5.13723-9.98973-9.50312-15.76737-9.37248-5.42195.11847-7.88977,4.18804-5.00688,8.79116,3.53575,5.62355,8.79145,8.86241,15.51827,9.09992,5.58792.2016,7.81851-3.59513,5.25598-8.5186ZM419.07019,399.97399c-1.09169.09472-2.26622.47445-3.17977,1.06765-2.71662,1.76773-2.776,5.70668-.27285,8.89804,3.19165,4.05741,7.32032,6.70307,12.36254,7.67601,1.77961.33223,3.77269.21347,5.54042-.21347,3.23886-.77105,4.09304-4.44902,2.13559-8.20983-2.77629-5.32724-10.58293-9.71688-16.58592-9.21839ZM579.29425,506.25196c-.56974-.8898-1.11544-1.79148-1.66114-2.70504-4.63874-7.73538-8.53018-16.20619-11.60308-25.18736-6.41835-18.81622-10.33354-38.51066-11.6387-58.52516-.01159-.07125-.01159-.15438-.02375-.23722-.21347-3.48825-.34381-6.64398-.40319-9.64562v-.33223c0-.16597,0-.33223.01188-.48632.02375-.87793.08313-1.79148.17784-2.77629,1.38829-16.47904,8.86241-31.74821,21.05869-43.00718,11.68621-10.7964,26.72974-16.97753,42.59211-17.52323l-88.69565-153.6157-29.24506-50.65944c-10.73673-18.60275-34.53609-24.97388-53.13913-14.23686l-175.87267,101.54451c-18.60275,10.73673-24.98547,34.52421-14.23686,53.12696l143.06869,247.80456c.03563.0475.05938.10659.09501.15409l17.85516,30.92966.67633,1.1389c.2966.47474.60508.94918.92543,1.41204.0475.05909.09501.13034.14251.18972.10659.16597.22535.33223.3441.4982.11847.16626.23722.33223.36757.49849.20189.28444.41536.55758.64071.8423,0,.01188.01188.03534.03563.0475.22535.2966.46257.5932.72354.87764.05938.08313.13063.17813.22564.26126v.01188c.10659.11847.2016.23722.30848.34381.30848.36786.62854.72383.96106,1.06794.27285.28473.5457.56945.83043.85418.2016.2016.40319.40348.60508.60508.08284.07125.16597.15438.2491.22535,0,.01188.01188.02375.01188.02375.07096.07125.14222.13063.21347.18972.10688.11876.22535.21376.33223.30877.10688.09472.21347.18972.32035.27285.2966.26097.5932.52195.8898.77105.08313.08313.16597.15409.26097.22535.09501.08313.18972.16626.28473.23722.05938.0475.13063.09501.18972.13063.09501.07125.19001.15409.28473.22535.09501.08313.19001.16626.2966.23722.20189.16626.39161.30848.5932.45098.30848.22535.61695.43882.92543.64071.11876.07125.22535.15409.3441.23722.11876.09472.2491.17784.37973.26097.08313.05938.17784.10688.26097.15409.10659.07125.2016.14251.30848.21376.2491.15409.4982.30848.7473.46257.03563.01188.07125.03563.10688.05938.28473.16626.56945.33223.86605.48632.10688.07125.22535.14251.33223.20189l.46257.2491c.42723.22535.86605.43882,1.30516.64071.13034.07125.26097.13034.39161.2016.02375.01188.05909.02375.09472.0475.17813.07125.35598.15409.53382.22535.37973.17784.75946.33223,1.13919.4982.36757.15438.73542.2966,1.10328.42723,0,0,0,.01188.01188.01188.36786.14251.73542.27285,1.10328.39161.97293.33194,1.95774.62854,2.95414.87793.99668.2491,1.99308.47445,3.01352.64042.48632.08313.97293.16626,1.45926.22564.40348.05938.81884.10659,1.22203.15409,1.30516.11876,2.61003.18972,3.92707.18972,2.49157,0,4.98284-.2491,7.42691-.72354.40348-.07125.81855-.16626,1.22203-.26097,1.64898-.37973,3.28637-.86605,4.87596-1.45926.40348-.15438.7948-.30848,1.19828-.47474.40348-.15409.79509-.32035,1.18641-.51007.79509-.35598,1.56614-.73542,2.34906-1.15078.01188,0,.02375,0,.03563-.01188.36786-.2016.74759-.41507,1.11515-.62883l39.89895-23.02802,71.39777-41.22758c-.01188-.05938-.0475-.09501-.07125-.14251-.77105-1.37613-1.64898-2.8235-2.681-4.44902ZM379.98979,338.4469c.67633-1.73211,1.68489-3.35762,2.68129-4.93534,12.01843-18.94714,24.01283-37.89371,36.16189-56.75772,1.39988-2.17121,3.63018-3.82019,5.63542-5.8964,2.69287-.37973,5.25569-1.1389,7.77072-1.0439,23.41962.93702,46.83925,2.02871,70.25887,3.0726,5.11348.22535,6.63211,3.20324,3.86769,7.55754-12.4335,19.55193-24.867,39.10386-37.3005,58.6558-3.54734,5.57605-8.58956,7.8776-15.17417,7.55725-22.87392-1.11515-45.75943-2.06433-68.63336-3.09635-.99668-.0475-2.04058-.14251-2.97789-.45098-2.05246-.69979-3.08477-2.64566-2.28997-4.66249ZM493.04237,424.81724c-4.78125-.10688-9.53874-.41536-14.30811-.62883-17.52323-.75917-35.03429-1.58989-52.55751-2.24218-6.73899-.26126-11.57932-3.08477-14.69972-9.13555-9.31311-18.05705-18.73338-36.05472-28.11774-54.07614-.22535-.41536-.45098-.83043-.65258-1.25766-1.81523-3.7136-.15409-6.52523,4.0102-6.50148,4.49623.03563,8.99275.2966,13.4774.4982,18.1283.78292,36.24473,1.57801,54.36116,2.38469,6.08612.27285,10.58264,3.03727,13.40643,8.51831,4.69812,9.1118,9.45561,18.18768,14.18936,27.28732h.01188c4.67437,8.96929,9.34873,17.95046,14.02339,26.91975.30848.60479.61666,1.19799.91327,1.81494,1.77961,3.67797.07125,6.50148-4.05741,6.41864ZM547.84235,357.74973c-5.81327,9.27777-11.70967,18.50774-17.59419,27.74989-6.16925,9.68125-12.36254,19.35034-18.55554,29.01942-.39132.61695-.7948,1.25766-1.30487,1.77961-2.19497,2.26622-4.84063,1.96962-6.54898-.71167-.28473-.45098-.51036-.94918-.75946-1.4355-9.65721-18.55554-19.33817-37.11078-28.97192-55.69007-2.5269-4.86409-2.34906-9.84693.52195-14.41471,8.7677-13.99964,17.72482-27.89239,26.5994-41.82078,3.35733-5.26757,6.67932-10.55889,10.06069-15.81487,2.58628-4.00991,5.9439-3.84365,8.1267.35598,4.9,9.39652,9.78784,18.79276,14.68785,28.20087,4.76937,9.15901,9.52687,18.3299,14.30782,27.47704,2.72879,5.22036,2.52719,10.35758-.56945,15.3048ZM507.17264,340.93846c-3.57109,4.59124-4.19992,13.99964-1.25766,19.00594,2.39656,4.09333,6.59648,4.52027,9.32498.72383,4.18804-5.83702,4.27117-12.22003,2.27809-17.89079-2.88288-5.58821-7.10655-6.00328-10.34542-1.83899ZM449.31164,358.10571c-5.42195.11847-7.88977,4.18804-5.00688,8.79116,3.53575,5.62355,8.79145,8.86241,15.51827,9.09992,5.58792.2016,7.81851-3.59513,5.25598-8.5186-2.65783-5.13723-9.98973-9.50312-15.76737-9.37248ZM419.07019,399.97399c-1.09169.09472-2.26622.47445-3.17977,1.06765-2.71662,1.76773-2.776,5.70668-.27285,8.89804,3.19165,4.05741,7.32032,6.70307,12.36254,7.67601,1.77961.33223,3.77269.21347,5.54042-.21347,3.23886-.77105,4.09304-4.44902,2.13559-8.20983-2.77629-5.32724-10.58293-9.71688-16.58592-9.21839Z"/>
  </g>
  <path class="cls-3" d="M806.29116,616.83939v.10681c0,5.48119-.05931,10.93862-.17792,16.39613-.2966,14.28429-.98474,28.48552-2.06433,42.58002-.47459,6.31168-1.70843,12.52843-3.66602,18.54352l-.03555.09493c0,.01188,0,.02375-.01188.03555-1.04404,3.20331-2.11184,6.38286-3.23893,9.56249v.0118c-29.74311,85.0415-82.65682,159.2037-151.18359,214.90543q0,.01188-.01188.02375c-9.83527,7.98448-19.9909,15.60118-30.44312,22.81455-16.72828,11.53189-34.21595,22.04343-52.37981,31.42786-32.1278,16.59779-69.59449,19.63499-103.94093,8.29296-41.82078-13.83345-80.50943-34.54811-114.72538-60.82694q-.0118-.01188-.02368-.02375c-6.67947-5.13715-13.19282-10.47598-19.51638-16.02834-.01188,0-.01188-.01188-.01188-.01188l-.22542-.20167c-14.83006-13.0267-24.33318-31.03632-26.84835-50.61201-2.266-17.63003-3.44053-35.6159-3.44053-53.86282,0-75.60957,20.07395-146.5329,55.19151-207.72762,11.17599-19.46895,23.87046-37.94128,37.91753-55.27464l17.84351,30.91771c9.45569,16.39613,27.1094,26.5755,46.04438,26.5755,9.28957,0,18.46046-2.45587,26.52807-7.11843l40.11235-23.15865c-4.76937,8.35227-11.57932,18.15198-20.96383,29.6127-8.19803,9.69291-12.90809,22.42301-12.20808,36.26834,1.32877,26.24335,22.51794,47.61044,48.74941,49.16463,10.06069.5932,20.03833-.8898,27.74996-6.07439,8.43539-5.67098,12.52843-11.16404,20.76209-20.38243,18.60282-22.76712,29.75506-51.83404,29.75506-83.52287,0-16.75203-3.12025-32.79225-8.82686-47.53926.01188-.01188.01188-.02375-.01188-.02375-.68814-1.79148-1.41182-3.57109-2.18294-5.31507-.94918-2.19489-1.96947-4.35416-3.03719-6.4778-1.06779-2.12364-2.19489-4.21172-3.3813-6.26418-.97286-1.73218-2.00503-3.42873-3.07275-5.1016-4.93549-7.77094-8.83873-16.15883-11.80474-24.867-5.93203-17.38086-9.66923-35.77014-10.91494-54.84755v-.02368c-.18979-3.04907-.33216-6.12189-.39153-9.20651v-.05931c.02375-.68814.07118-1.36439.13056-2.02878,2.24225-26.65849,24.58228-47.57481,51.81029-47.57481,2.05246,0,4.06936.11861,6.05064.34403,3.22706.37966,6.35911,1.04404,9.37263,1.99315,2.65754.81862,5.23201,1.86266,7.69976,3.0847,1.19828.5932,2.28975,1.16265,3.29824,1.73211,6.40654,3.57109,9.59798,6.82183,15.44694,13.06233,1.04404,1.09147,3.03719,3.67783,3.72533,4.34221l.24917.24917c15.42327,18.30622,30.01603,37.3362,43.70712,57.04237,7.04725,10.15562,13.86908,20.48917,20.42993,31.00077v.01188c1.9694,3.13205,3.91512,6.28793,5.82522,9.45561,4.55583,7.52184,8.98109,15.12666,13.28775,22.82642,3.45241,6.1812,5.26764,13.15726,5.26764,20.25194v.10681c0,1.25759,0,2.5033-.01188,3.76088v.01188c.01188.02368.01188.04743,0,.07118v1.11522c.01188.32028,0,.62876-.01188.94911-.07118,9.64548-.32035,19.25533-.74744,28.81775-.47452,10.63022-1.16265,21.21293-2.07621,31.72446-.67626,7.99643-1.48301,15.95716-2.42024,23.87054-.40341,3.48803-.84237,6.96419-1.29321,10.42847-4.79305,36.52939-12.16065,72.2521-21.91287,106.97812-1.11522,3.9745,22.3044-69.78435,29.3279-106.27818.64071-3.35747,1.26946-6.71502,1.86266-10.07257,1.57794-8.86241,3.01352-17.7842,4.2829-26.75342,2.39656-16.88252,4.24735-33.94303,5.52869-51.15778l.02375-.24917c1.22196-16.55029-2.58643-33.0651-10.86751-47.43245-.87793-1.53044-1.75586-3.04907-2.64566-4.56763-1.03217-1.75593-2.06433-3.49991-3.10838-5.24396-9.55055-16.01647-19.67062-31.65328-30.32451-46.88668-12.36239-17.66559-25.43653-34.7854-39.21074-51.31202-3.88437-4.67007-7.82474-9.28925-11.81992-13.85991-4.63191-5.29911-12.01357-10.60543-17.6314-13.94103,8.55401-6.193,22.59393-11.61147,33.97159-11.61147,16.37238,0,30.96514,7.55739,40.49194,19.37401,2.40844,3.86769,4.76937,7.73538,7.09475,11.63863,0,0,.01188,0,.01188.01188,1.58974,2.65754,3.15581,5.31507,4.70999,7.98448,1.74405,3.01352,3.47616,6.03883,5.18458,9.07603,8.95734,15.90966,17.36899,32.1753,25.19923,48.76122,10.8082,22.90948,20.52487,46.44779,29.06692,70.53179,2.0169,5.68285,3.41685,11.56745,4.10499,17.55878,0,.03563.01188.05931.01188.09493.01188.04743.01188.09493.01188.14236.11861,1.03217.23722,2.05246.34403,3.08462.01188.02375.01188.0475.01188.07118,2.27788,20.70278,3.72533,41.66654,4.31853,62.83204.20167,7.23704.3084,14.50971.3084,21.79425Z"/>
</svg>