<?xml version="1.0" encoding="UTF-8"?>
<svg id="Capa_1" xmlns="http://www.w3.org/2000/svg" xmlns:xlink="http://www.w3.org/1999/xlink" viewBox="0 0 274.14044 279.34845">
  <defs>
    <style>
      .cls-1 {
        fill: #2b2b2b;
      }

      .cls-2 {
        fill: url(#ASDF);
      }

      .cls-3 {
        fill: url(#ASDF-3);
      }

      .cls-4 {
        fill: url(#ASDF-2);
      }
    </style>
    <linearGradient id="ASDF" x1="86.14673" y1="161.88577" x2="185.30396" y2="161.88577" gradientUnits="userSpaceOnUse">
      <stop offset="0" stop-color="#fab90a"/>
      <stop offset=".54759" stop-color="#fdcb5d"/>
      <stop offset="1" stop-color="#c98010"/>
    </linearGradient>
    <linearGradient id="ASDF-2" data-name="ASDF" x1="155.29114" y1="89.00977" x2="198.097" y2="89.00977" xlink:href="#ASDF"/>
    <linearGradient id="ASDF-3" data-name="ASDF" x1="92.80236" y1="93.00857" x2="217.78812" y2="93.00857" xlink:href="#ASDF"/>
  </defs>
  <g>
    <path class="cls-1" d="M77.56741,213.18265c-.53156-.07074-4.80195-4.24707-4.89041-4.33604-.65572,1.61391-1.61253,4.46033-2.87041,8.53893-1.25832,4.09656-2.24041,8.20744-3.24254,12.26309-1.27931,5.17738-.76858,8.97813-.76858,8.97813,0,0-1.67659-1.23735-2.42077-2.03532s-1.45309-1.72038-2.12623-2.76648c-.67365-1.02873-1.1429-2.07481-1.40865-3.13901-.30152-1.52538,0-4.25612.90361-8.19295.88583-3.91919,2.13498-8.37936,3.74757-13.38037,1.59467-5.00101,3.29566-9.869,5.10296-14.60397,1.78944-4.71703,3.43731-8.64526,4.94352-11.7841,1.48836-3.12106,2.58682-4.77916,3.29573-4.97446.77945-.07059,1.91361.02669,3.40197.29259,1.48836.26604,2.78159.65636,3.88041,1.17052,1.08053.51459,1.41732,1.10852,1.01,1.78223-.6026.90446-1.76336,3.10355-3.48176,6.59698-1.71884,3.49387-3.42857,7.02274-5.12955,10.5872-1.70106,3.56461-2.81729,5.92326-3.34885,7.07597-.01785.08884-.04445.15958-.07979.21281,6.46723.49664,11.95105-.04419,16.45192-1.62267,4.50043-1.57832,7.99996-3.78616,10.49832-6.62367,2.48051-2.81972,3.92442-5.85223,4.33225-9.09756.40739-3.22739-.25707-6.2599-1.9934-9.09756-1.73669-2.81972-4.56273-5.02756-8.4784-6.62367-3.93353-1.57819-8.99255-2.11887-15.1761-1.62267-4.99672.4968-9.54152,1.77364-13.63455,3.83064-4.11088,2.03952-7.6105,4.42487-10.4984,7.15562-2.90612,2.73119-5.04109,5.38257-6.40529,7.95375-1.38205,2.57146-1.57704,4.59198-1.38205,6.22461.43828,3.66971,3.90693,4.28265,3.90693,4.28265,0,0-2.80773.25209-4.67771-.53194-1.42567-.59773-2.69357-1.60487-3.88041-2.84627-1.18728-1.22374-1.95806-2.75743-2.31233-4.6021-.38954-2.94356.21262-5.74576,1.8073-8.4059,1.57689-2.66,3.60556-5.02756,6.08643-7.10239,2.48051-2.07481,4.88122-3.70622,7.20266-4.89453,5.652-2.90825,11.40201-4.77042,17.24922-5.58633,5.82928-.79799,11.16279-.7182,16,.2395,5.54569,1.13506,10.0287,3.0948,13.44852,5.87878,3.41946,2.78442,5.79402,6.00305,7.12295,9.65619,1.31108,3.67094,1.61216,7.39497.90368,11.17238-.72677,3.79521-2.44524,7.27113-5.15615,10.42763-2.72883,3.15665-6.42322,5.63068-11.08315,7.42166-4.67771,1.77348-10.29481,2.48293-16.85049,2.12807l.00002.00002Z"/>
    <path class="cls-1" d="M233.41962,217.64728c-.07391.14769-3.66234,7.57581-5.98853,9.62846-.96696.84917-2.08209,1.07066-3.25601.78268-1.15913-.28793-2.18558-.86389-3.09377-1.73518-.90099-.86389-1.48433-1.77213-1.75726-2.70985-.11105-.50209-.12582-1.17406-.05193-2.00842.06635-.81219.16982-1.61707.29527-2.40714.08868-.56113.14024-1.04111.1626-1.4398-.41354.76051-.99689,1.69827-1.73528,2.82059-.73837,1.12234-1.57266,2.25211-2.49564,3.38919-.93776,1.13708-1.90508,2.09702-2.90198,2.87231-.98932.79742-1.94186,1.18878-2.84283,1.18878-.99689,0-2.04533-.45039-3.14532-1.35126-1.10036-.88606-1.87552-1.80165-2.3334-2.73936-.08112-.20677-.14746-.42088-.20659-.65717-1.02644,1.46198-2.09689,2.77632-3.23402,3.92819-.90855.79007-2.01613,1.10017-3.31551.93771-1.29938-.14029-2.49564-.60542-3.58122-1.38811-1.08522-.78273-1.77925-1.6983-2.08209-2.72462-.1846-1.01897-.03677-2.54742.42075-4.57797.45032-2.03055.90819-3.7067,1.39565-5.02837-.0959.1329-.25093.33228-.48746.62021-.1031.14029-.23615.30276-.39117.47997-.27328.33968-.56136.69408-.85664,1.06326-.7308.93037-1.59467,2.03055-2.56955,3.29315-1.41042,1.80165-2.67303,3.4704-3.79538,4.99886-1.12234,1.55063-1.71291,2.50311-1.76447,2.85753-.01479.37659-.2513.50209-.69403.37659-.46545-.10338-1.00446-.37659-1.63179-.79745-.64249-.43562-1.2334-.92297-1.76483-1.47676-.53178-.53162-.90099-1.04111-1.09279-1.52106-.11105-.50209.08112-1.55058.561-3.15286.47266-1.58754,1.04123-3.22672,1.68372-4.91763.44273-1.19617.81194-2.15607,1.09279-2.89444.1031-.28059.20659-.53166.29527-.7679.03677-.08865.05913-.16986.08112-.2363-.05156.06644-.1179.1329-.1918.20673-.20695.26581-.51701.6424-.90819,1.12234-1.22583,1.43985-2.7765,3.32271-4.64445,5.64124-1.87552,2.31848-3.54443,4.51151-4.99886,6.57895-1.46198,2.06746-2.19315,3.44823-2.16359,4.1423-.08112.44305-.50945.53905-1.29218.28798-.76038-.25102-1.58025-.73099-2.45886-1.46198-.7308-.61287-1.75726-1.80904-2.31105-2.7542,2.44408-2.14128,4.29726-4.65918,5.50108-7.47977.22137-.50214.41318-1.01163.57578-1.50633v-.01479l.00757-.01474.04399-.14029.02235-.08121.01479-.02217v-.01479c.84186-2.86491,1.04845-5.41231.6277-7.62006.36162-1.8903.61292-3.80267.7308-5.72244.02956-.53905.05913-1.52846.05913-1.52846,0,0,6.61586,2.51047,7.02219,3.42606.19902.32489-.31042,1.94934-.87898,3.77316-.58334,1.83118-1.24782,3.74361-1.97862,5.74458-.73117,1.99364-1.33652,3.59592-1.81639,4.78468l10.92789-13.01761s3.58122,2.09698,4.54854,3.66234c.1846.52428-.05913.77528-.3472,1.63184-.30249.87128-.68681,1.89024-1.14435,3.04213-.45032,1.1814-.90819,2.31853-1.36607,3.4261-.74559,1.79427-1.21826,2.99043-1.41763,3.58113l11.52603-14.11784c.17702-.26581,4.58533,2.17084,4.96208,3.21933.03677.50209-.20695,1.24046-.68681,2.55481-.37675,1.03371-.77551,2.18562-1.20348,3.44823-.4431,1.28477-.82707,2.5179-1.12234,3.69189-.30286,1.17406-.45789,2.15607-.45789,2.93874,0,.76794.25851,1.15926.77516,1.17406.1626,0,.31763-.00739.45067-.02213,1.39528-.51688,2.82806-1.77213,4.30482-3.76578.31728-.43562.62733-.87868.93739-1.32909.03714-.34706.08868-.70886.15503-1.08543.39874-2.25945,1.12271-4.61488,2.17116-7.07365,1.06323-2.43665,2.34061-4.55585,3.81737-6.34271,1.48396-1.77209,3.06421-2.79106,4.74756-3.06425,2.43687-.2363,4.51176.03691,6.23225.76051,4.30482,1.80904,5.73688,5.75197,5.81078,5.96613-.22137-.09599-4.17899-1.82382-5.72966-1.38815-1.58745.45779-3.02744,1.43246-4.31239,2.93135-1.27702,1.49893-2.35503,3.16768-3.21924,5.01364-.87106,1.84595-1.50633,3.51469-1.89751,5.0136-.39874,1.52106-.51701,2.52525-.35442,3.0126.25093.56117.7308.56117,1.43242,0,.68681-.56117,1.47676-1.43985,2.36296-2.62863.90062-1.17406,1.74248-2.38499,2.51762-3.63287.79752-1.24782,1.41798-2.25204,1.87552-3.01256.2513-.39874.41354-.64978.48746-.76054.52422-.9008,1.46919-1.19617,2.84283-.89342.90062.1846,1.74248.50948,2.52521.97462.77516.45784,1.22583,1.03375,1.35129,1.73521.02199.19939-.04436.56117-.19217,1.0854-.06635.27319-.14746.56857-.24371.89346-.08833.3101-.17702.6424-.26572,1.0042-.31006,1.03375-.59813,2.08224-.87106,3.14551-.27328,1.08543-.41389,2.00842-.43588,2.76154-.02956.76054.1846,1.05588.6277,1.14449,1.55067.31015,7.99672-7.73083,7.99672-7.73083v.00002Z"/>
    <path class="cls-1" d="M167.27539,216.17792c-.02235.07382-.05193.14769-.07391.22151-.14746.45039-.31763.88606-.49466,1.31435-1.12956,2.63599-2.87241,4.94711-5.23502,6.91862-2.73973,2.30374-5.81873,3.48514-9.23734,3.53683-.08868.00739-.16982.00739-.25093.00739-1.56544,0-2.93153-.1772-4.09787-.53166-.22173-.06644-.42831-.1329-.64249-.20673-.13304-.05908-.26608-.11078-.39874-.16986-.45067-.19933-.87863-.43562-1.25539-.70882-.11069-.06647-.21416-.15508-.31728-.2289-.11105-.08859-.20695-.16986-.30286-.25845-.85664-.7679-1.51353-1.63918-1.9642-2.62863-1.35851,1.69092-2.83527,2.94618-4.42271,3.78052-3.30072,1.51372-5.77437,1.21835-7.43573-.88602-.69403-.86394-1.19589-1.96413-1.50633-3.2932-.01479.02217-.02199.03691-.03677.05908-.92297,1.57275-1.86795,2.97565-2.82049,4.20879-.99689.81219-2.08247,1.07062-3.25638.78268-1.15949-.28798-2.18558-.86394-3.09377-1.73521-.90098-.86389-1.49154-1.77209-1.75762-2.70985-.11069-.50948-.13268-1.17406-.05877-2.00842.07391-.81219.16981-1.61707.30249-2.41447.08869-.56117.14061-1.04114.1626-1.43246-.42075.75311-.99689,1.69827-1.73527,2.82062-.74559,1.11491-1.57266,2.24466-2.49564,3.38914-.94533,1.13715-1.91229,2.09702-2.90197,2.87231-.99689.79745-1.94186,1.19617-2.85005,1.19617-.99689,0-2.04533-.45779-3.14533-1.35864-1.10036-.88602-1.88309-1.80161-2.3334-2.73936-.48745-1.23308-.53179-2.96831-.13304-5.20558.39875-2.25945,1.12235-4.62227,2.1708-7.08109,1.06359-2.43665,2.34061-4.5558,3.82494-6.34267,1.47676-1.77213,3.06421-2.79111,4.74035-3.0643,2.44408-.2363,4.47463.1255,6.23946.76051,4.03874,1.44724,5.7668,5.7151,5.84792,5.93661-.22173-.08859-4.2237-1.79427-5.7668-1.35864-1.58745.45779-3.02743,1.43246-4.31203,2.9314-1.28496,1.49889-2.35575,3.17503-3.22681,5.0136-.87142,1.84595-1.49912,3.52209-1.89787,5.02098-.39839,1.52106-.51665,2.5179-.35405,3.0126.25093.55379.73081.55379,1.43963,0,.68682-.56117,1.46955-1.43985,2.35539-2.63603.90819-1.174,1.75005-2.38496,2.52521-3.63281.79751-1.24786,1.41763-2.25204,1.86831-3.0126.25851-.39133.42075-.64978.48745-.75316.52422-.90819,1.47676-1.20352,2.85005-.9008.90062.1846,1.74248.50948,2.52521.98206.77516.45039,1.22583,1.02632,1.35129,1.73518.02199.19939-.04435.56117-.1846,1.08543-.07391.26581-.15503.56853-.25129.89342-.08833.30276-.17702.6424-.26572,1.0042-.31006,1.02637-.59813,2.07484-.87142,3.14551-.26572,1.08543-.41318,2.00842-.43553,2.76154-.02956.76054.17738,1.14453.6277,1.14453.52422,0,1.19626-.55379,2.00855-1.65401.81193-1.10757,1.59466-2.31848,2.35538-3.64021.04436-.07382.08112-.14764.12547-.21411-.01479-.69408,0-1.42506.04436-2.20036.03677-.52428.08868-1.06326.15503-1.63184.41354-2.99043,1.29938-7.33212,2.67303-13.01765,1.37329-5.68555,2.80569-10.99451,4.30482-15.93427,1.49875-4.9176,3.44818-8.41753,3.44818-8.41753l11.31187-2.59912s-4.14223,7.10323-6.47562,12.33096c-2.31862,5.23511-4.33438,10.62531-6.06929,16.17056-1.72806,5.5452-2.80606,10.10104-3.23438,13.68958-.28807,3.2932.08868,5.22775,1.12234,5.79626,1.05602.57596,2.49564-.02213,4.33438-1.78687.45789-.44301.93776-.96729,1.42484-1.56535v-.02953c-.1031-1.11496-.05156-2.22253.1554-3.33011.1918-1.01158.52422-2.01581.98174-3.02739.93813-2.08958,2.3334-3.75833,4.16457-4.98407.17738-.11812.36198-.2289.54657-.33963.1846-.10338.36919-.19939.561-.28798.28085-.1329.56857-.25107.87141-.35442.06635-.01479.13268-.03696.19939-.05908.84186-.25845,1.73528-.39136,2.67267-.39136.53935,0,1.08559.0443,1.64694.12556,3.91327.45039,5.05042,3.20454,5.05042,3.20454,0,0-.24371-.05908-.66447-.05908h-.15503c-.11069,0-.22894.01479-.35442.02217-.59093.06647-1.37366.25842-2.27428.74577-.15503.08121-.31763.1772-.48024.28059-.19902.1255-.40598.27319-.61255.42822-1.29218.98946-2.44408,2.08963-3.28593,3.48518-.84908,1.38077-1.41006,2.76894-1.67615,4.1423-.2877,1.40294-.22137,2.5696.19939,3.52209.41354.95988,1.22583,1.43985,2.43687,1.43985,1.74248,0,3.2708-.50948,4.59253-1.52846,1.32893-1.01897,2.41452-2.30374,3.2636-3.85437.83427-1.55058,1.35129-3.18242,1.55824-4.88069.1918-1.70566.00722-3.26363-.53178-4.6813-.56857-1.41772-1.57266-2.50311-3.01265-3.25629-.36162-.19939-.75316-.35442-1.18869-.4873-.14024-.02956-.2805-.06647-.43553-.10338-.59813-.1329-1.25539-.19199-1.97179-.19199-.70882,0-1.46198.05908-2.27391.1846.53143-2.02316,1.76447-3.33749,3.7139-3.94296.40598-.11812.81229-.20673,1.22583-.27319.41354-.05904.8195-.08859,1.24025-.08859.67204,0,1.35887.07387,2.0529.2289.53143.11816,1.08522.28798,1.63901.50209,2.15639.82703,3.81017,2.37022,4.96208,4.62227,1.15192,2.20041,1.20348,5.08746.15503,8.65385l-.00002-.00009Z"/>
    <g>
      <path class="cls-1" d="M157.12021,184.28229v2.26421h2.3439v1.61053h-2.3439l-.03593,8.80551h-1.8219l.03593-8.80551h-1.15077v-1.61053h1.15077v-2.25383c0-.96751.22369-1.70056.67113-2.202s1.12592-.7522,2.03542-.7522h1.45927v1.73003h-1.35254c-.33339,0-.58195.10767-.74574.32155-.16377.21533-.24564.51324-.24564.89227v-.00003Z"/>
      <path class="cls-1" d="M169.36086,186.54688v10.41566h-1.6568v-1.42854c-.1965.37605-.46704.69231-.80888.94759-.42801.32037-.97981.48058-1.65279.48058-.94751,0-1.67699-.30545-2.1871-.91502-.51009-.60951-.76448-1.47841-.76448-2.60649v-6.89375h1.6676v6.87334c0,.61362.16286,1.09149.4899,1.435.32706.34212.79141.51453,1.39304.51453.60699,0,1.06999-.16161,1.38762-.4847.31628-.32307.47511-.77788.47511-1.36572v-6.97244h1.6568l-.00002-.00002Z"/>
      <path class="cls-1" d="M179.37238,190.09186v6.87068h-1.67395v-6.73332c0-.6935-.16524-1.22273-.4944-1.58498-.32915-.36356-.81009-.54535-1.44421-.54535-.61932,0-1.0909.17503-1.41331.52518-.32379.35013-.485.8551-.485,1.51633v6.82214h-1.67395v-10.41566h1.67395v1.48199c.25526-.44705.57097-.79048.94446-1.03284.47961-.31108,1.02237-.46593,1.62962-.46593.94579,0,1.67262.30568,2.17773.91705.50648.6113.75906,1.49338.75906,2.6447Z"/>
      <path class="cls-1" d="M187.52057,181.33846v6.63142c-.25096-.41164-.56001-.73404-.92456-.96588-.46758-.29839-.98135-.44624-1.53874-.44624-.91136,0-1.61534.31303-2.11328.94186-.49661.62749-.74493,1.52011-.74493,2.67783v3.23335c0,1.13242.25227,2.00768.75946,2.62585.5072.61681,1.22305.92587,2.1463.92587.62209,0,1.15306-.1532,1.5929-.46095.35001-.24512.62474-.5675.82286-.96855v1.4295h1.64571v-15.62408h-1.64571v.00002ZM187.30923,194.51656c-.14133.30508-.34737.54227-.61681.71407-.26945.17186-.59966.25716-.9906.25716-.59039,0-1.04739-.18253-1.37231-.5489-.32361-.36501-.48474-.87793-.48474-1.53873v-3.18275c0-.69273.16113-1.22966.48474-1.61203.32494-.381.78192-.57285,1.37231-.57285.39095,0,.72115.08658.9906.25716.26945.1718.47549.40767.61681.70872.14001.30106.21133.65279.21133,1.05383v3.41583c0,.39571-.07133.74477-.21133,1.04849Z"/>
      <path class="cls-1" d="M198.13647,187.4176c-.60269-.58121-1.45309-.87112-2.55383-.87112-.84244,0-1.54581.19102-2.10876.57449-.56296.3821-.94048.91789-1.13387,1.60597l1.39082.41818c.1669-.3701.41328-.65331.73781-.8511.32452-.19904.69939-.29794,1.12457-.29794.59209,0,1.05042.16968,1.37494.50638.32452.33806.48746.80836.48746,1.41228v.87511h-2.22003c-1.06763,0-1.87564.26859-2.42268.80432-.54707.53442-.81995,1.33211-.81995,2.38889,0,.99274.2636,1.73827.79211,2.23395.52719.49698,1.30208.74554,2.32468.74554.46361,0,.86894-.06015,1.21597-.18037.34837-.12022.63316-.30328.85437-.55048.10728-.11755.19868-.25117.27551-.39944v1.13033h1.5829v-7.08656c0-1.05817-.30069-1.87723-.90205-2.45837l.00003-.00003ZM196.96147,195.26407c-.34982.2375-.86783.3569-1.55403.3569-.62025,0-1.08983-.13432-1.40604-.40031-.31754-.2674-.4763-.66777-.4763-1.20248,0-.60661.14398-1.06265.43192-1.36934s.71579-.46008,1.28358-.46008h2.24562v2.0181c0,.46825-.17491.81972-.52473,1.05722h-.00002Z"/>
      <path class="cls-1" d="M205.55406,196.96254c-1.19109,0-2.10364-.31802-2.73766-.95461-.63416-.63631-.95119-1.54861-.95119-2.73701v-2.9805c0-1.20122.31705-2.12486.95119-2.7711.63402-.6461,1.54657-.96922,2.73766-.96922.9464,0,1.70279.21764,2.26936.65263.56639.43513.92368,1.07144,1.07188,1.90906l-1.54507.49675c-.10956-.49988-.31387-.87666-.61317-1.12981-.29938-.25327-.68417-.37991-1.15401-.37991-.66315,0-1.17497.18996-1.53545.56985-.3606.37978-.54076.92039-.54076,1.62172v2.9805c0,.6884.18018,1.21753.54076,1.58777.36046.37012.8723.55511,1.53545.55511.47636,0,.86913-.12325,1.17815-.37012.30902-.24673.51494-.60707.61803-1.0811l1.51608.49675c-.14819.81818-.50549,1.43999-1.07188,1.8652-.56657.42548-1.32298.63802-2.26936.63802v.00002Z"/>
      <path class="cls-1" d="M211.722,196.96254v-10.41602h1.85263v10.41602h-1.85263Z"/>
      <path class="cls-1" d="M219.90427,196.96254c-1.11305,0-1.97511-.3195-2.58618-.95877-.61127-.63901-.91676-1.53944-.91676-2.7011v-3.13422c0-1.15498.3055-2.04721.91676-2.6767.61107-.62935,1.47313-.94427,2.58618-.94427,1.11292,0,1.97498.31494,2.58624.94427.61107.62949.91672,1.52171.91672,2.6767v3.16344c0,1.15511-.30563,2.0489-.91672,2.68166-.61127.63261-1.47333.94897-2.58624.94897v.00002ZM219.89462,195.39543c.5918,0,1.05019-.18159,1.37515-.54507.32478-.36334.48729-.87605.48729-1.53789v-3.12457c0-.6553-.16252-1.16319-.48729-1.52328-.32497-.36021-.78336-.54024-1.37515-.54024-.57899,0-1.03105.18004-1.35582.54024-.32497.36008-.48737.86797-.48737,1.52328v3.12457c0,.66183.16238,1.17455.48737,1.53789.32478.36346.77682.54507,1.35582.54507Z"/>
      <path class="cls-1" d="M233.41875,190.13145v6.83109h-1.67395v-6.69286c0-.69786-.16524-1.23044-.49438-1.59496-.32915-.36584-.8101-.54878-1.44289-.54878-.62068,0-1.09222.17615-1.41467.52847-.32378.35234-.48499.8605-.48499,1.52588v6.78226h-1.67395v-10.41606h1.67395v1.50899c.25526-.44987.57097-.79546.94444-1.03935.47961-.31303,1.02373-.46886,1.62962-.46886.94714,0,1.67261.30762,2.17775.92284.50648.61514.75906,1.50278.75906,2.66138v-.00003Z"/>
      <polygon class="cls-1" points="219.09666 185.24448 220.39867 182.64046 221.70068 182.64046 220.39867 185.24448 219.09666 185.24448"/>
    </g>
  </g>
  <g>
    <g>
      <path class="cls-2" d="M185.30396,181.17601v3.16763c-.08112,0-.16982-.00739-.25093-.00739-2.01576,0-3.20445.97467-3.84694,1.78691-.15503.19199-.28807.39871-.40598.61282-.14061-.25102-.29564-.4873-.48024-.70143-.64969-.78268-1.85316-1.72044-3.88371-1.72044-.14783,0-.29527.00739-.4431.01479h-8.01151c-.33206-.92297-.69403-1.83861-1.078-2.73203-7.09573-16.36993-22.84546-27.90346-41.29742-28.52367-.51701-.02217-1.03402-.02956-1.55824-.02956-5.93661,0-11.59994,1.12975-16.83494,3.1898-4.73314,1.86813-9.08951,4.49677-12.93645,7.76039-1.38807-.42827-2.83527-.80481-4.35638-1.11496-1.22583-.24364-2.48843-.43562-3.77339-.57591,3.4042-5.30157,7.66467-9.97552,12.57483-13.82251,4.60767-3.58852,9.77634-6.45345,15.36575-8.41753,5.55985-1.96413,11.54081-3.02739,17.76549-3.02739,26.21973,0,48.12022,18.90259,53.45114,44.14044l.00002.00002Z"/>
      <path class="cls-4" d="M198.097,95.70676c0,1.65655-.98294,3.07784-2.3792,3.68025-.16528.07532-.33067.13179-.50526.17884-2.72815.94125-5.63998,1.4495-8.67133,1.4495-6.58614,0-12.63046-2.38132-17.35197-6.36278l-2.17703,2.36248v-4.41445c-.76237-.79061-1.4697-1.62834-2.12196-2.50369l-5.68594,2.91784,3.29778-6.65456c-.25723-.48004-.49606-.96951-.71652-1.4684h-6.49442l5.10735-3.69909.1377-.10352v-.08468c0-2.21196,1.74544-4.0003,3.90396-4.0003,1.75462,0,3.23341,1.17656,3.72949,2.8049,2.71896,7.69939,9.9207,13.20565,18.37158,13.20565,2.21381,0,4.33566-.37646,6.31982-1.07298.07346-.02826.13782-.05647.20216-.07532.35815-.11294.7348-.16942,1.12984-.16942,2.15852,0,3.90396,1.79776,3.90396,4.00973Z"/>
    </g>
    <path class="cls-3" d="M203.10165,123.9172l6.87437,21.11768-18.68848-12.7592c-6.15077,3.04951-13.06949,4.76257-20.37218,4.76257-3.97961,0-7.83412-.50948-11.51845-1.46938-3.66234-.94514-7.15488-2.33331-10.41881-4.11279h-.00722c-8.27722-4.49676-15.07047-11.47447-19.47119-19.95846,7.34703,12.84785,21.39105,21.53857,37.50996,21.53857,23.73129,0,42.96634-18.81393,42.96634-42.02863,0-1.1297-.04436-2.23727-.14024-3.34484-.40633-5.03576-1.72049-9.82785-3.77339-14.20649v-.00735c-4.22334-8.95656-11.54802-16.19273-20.63033-20.41625-4.157-1.93455-8.67598-3.23411-13.42354-3.76572-1.64694-.19199-3.30829-.28059-4.99886-.28059-.42831,0-.86421,0-1.28496.01474-11.7921.16247-21.30957,2.66559-28.94432,7.11061-.00757,0-.00757.00739-.00757.00739-22.01118,12.81094-28.34655,41.76283-28.34655,77.56691-5.67053,2.35544-10.92068,5.53786-15.6239,9.39223,0-66.07036,23.42881-102.09595,78.11298-102.09595,6.88914,0,13.43147,1.52845,19.31616,4.26786,10.35213,4.79948,18.69604,13.33516,23.39204,23.9383,2.68024,6.04734,4.16457,12.7592,4.16457,19.81812,0,13.74869-5.63412,26.15349-14.68649,34.91068h.00003Z"/>
  </g>
</svg>