<?xml version="1.0" encoding="UTF-8"?>
<svg id="Capa_1" data-name="Capa 1" xmlns="http://www.w3.org/2000/svg" viewBox="0 0 1080 1080">
  <defs>
    <style>
      .cls-1 {
        fill: #83007d;
      }
    </style>
  </defs>
  <g>
    <path class="cls-1" d="M908.86571,140.35236v737.73118c0,16.98153-6.88379,32.33662-18.00974,43.46258-11.12596,11.12596-26.48105,18.00959-43.46242,18.00959V222.33261l-61.48519,20.48204-61.47248,20.49506-61.48519,20.49506-61.47185,20.48204-61.48519,20.49506-61.47248-20.49506-61.47185-20.48204-61.48519-20.49506-61.47248-20.49506-61.48519-20.48204v717.22309c-16.96866,0-32.34949-6.88363-43.46242-18.00959-11.12596-11.12596-18.00974-26.48105-18.00974-43.46258V140.35236l61.47216,20.49506,61.48519,20.49506,61.47248,20.49506h.01271l61.47248,20.49506,61.47185,20.48204,61.47248,20.49506,61.48519-20.49506,61.47185-20.49506,61.45946-20.48204h.02573v-.01303l61.47248-20.48204,61.48519-20.49506,61.47216-20.49506Z"/>
    <path class="cls-1" d="M355.56413,389.57227v549.98343h-61.47248V304.29984c12.98669,4.32024,24.46401,11.41212,33.88522,20.48204,16.47433,15.83648,26.65006,37.72392,27.52213,61.45914v.02605c.03908,1.10605.06513,2.19916.06513,3.30521Z"/>
    <path class="cls-1" d="M785.90836,304.29984v61.47216l-61.47248,20.48204v.01303h-.02573l-61.45946,20.48204-122.94433,40.99013c0-23.7222,9.81166-45.72678,26.15573-61.47216,8.9399-8.6014,19.8314-15.32904,32.15443-19.44103l3.16232-1.05403,61.47185-20.49506,61.48519-20.49506h.01334l61.45914-20.48204Z"/>
    <path class="cls-1" d="M785.90836,427.25719v512.29851h-61.47248v-430.33128h-.02573l-61.45946,20.48204-122.94433,40.99005c0-23.7222,9.81166-45.72662,26.15573-61.47209,8.9399-8.6014,19.8314-15.32896,32.15443-19.44103l3.16232-1.05403,61.47185-20.49506,61.48519-20.49506h.01334l61.45914-20.48204Z"/>
  </g>
  <path class="cls-1" d="M610.05033,928.56075l-10.96625-11.85251c-23.78893,15.2936-51.82552,22.9394-84.11179,22.9394-22.08986,0-41.41824-3.54474-57.98514-10.62017-16.5669-7.07542-29.3119-17.20354-38.233-30.37231-8.9211-13.17077-13.38165-28.52864-13.38165-46.09168,0-19.25608,5.16347-35.18633,15.50649-47.79074,10.33498-12.59839,25.41369-24.56616,45.24014-35.89728-10.76477-12.17262-18.90261-23.42943-24.42558-33.77044-5.52297-10.33498-8.28445-21.16803-8.28445-32.49915,0-21.51748,7.50119-38.65676,22.51563-51.40176,15.00841-12.74299,35.25863-19.11549,60.74662-19.11549,25.76716,0,46.37084,6.3725,61.80904,19.11549,15.43418,12.745,23.15228,29.88428,23.15228,51.40176,0,16.99267-4.10909,31.29615-12.31923,42.90643-8.21617,11.61631-22.23647,23.50977-42.05489,35.68239l48.85115,54.37613c3.27763-7.16035,6.00895-14.76298,8.19395-22.80806,5.50354-20.26376,23.58133-34.54042,44.57916-34.54042h20.34863c.42607,0,.76189.37203.72217.79624-3.75883,40.15177-15.06541,73.86969-33.91185,101.15573l54.201,59.2982-55.32588-.03279c-9.44209-.0056-18.45415-3.94832-24.86656-10.87897ZM563.82546,877.62572l-63.29522-70.51725c-12.18065,6.79626-21.10175,13.52826-26.7633,20.17791-5.66958,6.65769-8.49734,15.08071-8.49734,25.27712,0,12.46584,4.46055,22.30275,13.38165,29.52277,8.9211,7.22203,21.02945,10.83305,36.32104,10.83305,18.69173,0,34.97344-5.0972,48.85316-15.2936ZM499.89158,685.40234c-4.39427,4.39427-6.58338,10.12812-6.58338,17.20354,0,6.79827,1.55246,13.16876,4.67143,19.1175,3.11295,5.94673,8.21215,13.16876,15.2936,21.66409,10.47356-6.51108,17.8422-12.74299,22.08986-18.69173,4.24766-5.94673,6.3725-13.30734,6.3725-22.08986,0-7.07542-2.33571-12.80927-7.00915-17.20354-4.67343-4.38825-10.69247-6.58539-18.05508-6.58539-6.79626,0-12.39153,2.19714-16.77978,6.58539Z"/>
</svg>