<?xml version="1.0" encoding="UTF-8"?>
<svg id="Capa_1" data-name="Capa 1" xmlns="http://www.w3.org/2000/svg" viewBox="0 0 150 150">
  <path d="M131.73836,32.10756c1.31219.81925.23608,2.03325.31757,2.33148.56466,2.06632,5.92934,9.71603,7.35838,13.11496,17.49663,41.61514-8.49517,89.22594-52.84765,96.49153C35.30426,152.44306-7.07956,104.02022,8.26654,54.18988,23.0442,6.20532,82.9886-11.0339,121.0104,22.17893c2.67584,2.3374,6.73346,7.89606,8.98898,9.42888.61034.41478,1.32995.24438,1.73897.49975ZM126.62955,32.72338c-.52586-.6456-1.48328-3.01467-2.74028-4.42095C98.05685-.59762,50.05922,1.39962,24.73849,29.86226-1.09562,58.90197,2.61396,104.9326,33.88193,128.15821l7.26607-10.97202,1.98457.36613c.49962.68516-2.68651,4.43986-2.80914,5.18886-.15009.91673,3.96083,3.01355,4.66822,2.99728,1.33239-.03064,2.69956-4.20885,3.07962-4.48195.21796-.15662,1.95068.30627,2.00855.39074.47428.69229-5.87137,10.70147-6.74791,12.27182-.3477.17681-1.81342-1.46663-1.79276-1.75993.08592-1.21967,2.65339-3.40604,2.37385-4.50584-.17484-.68788-4.47073-3.42867-4.86332-3.14626-.77419,1.84735-1.67308,5.5946-4.09437,4.50632,2.18207,2.14559,5.39577,4.07814,8.16825,5.53133,28.78669,15.08852,63.8461,8.14163,84.23516-16.99307-1.31806-.10225-4.60076,4.49145-5.11068,4.49145l-9.1928-9.20305c1.01377-.4439,4.33184-5.59241,4.68775-5.52582.27117.05074,1.58671.84717,1.42705,1.41187l-3.65972,3.69277,3.00071,2.6417c1.01073-.17401,2.97838-4.34797,3.93746-3.65131.16986.12338.44695,1.52524.22533,2.02811-.34378.78007-2.79494,2.17076-2.64501,3.03068l2.97975,2.68605c.44415-.23597.74234-.63954,1.09173-.98239.73654-.72273,2.14648-3.23309,2.44871-3.48646.1457-.12215.59688-.12744.82965.23085.24949.38403.1434,2.1305.80044,1.6127,17.27242-22.0026,18.99534-52.98896,4.41553-76.88369-.82104-1.34559-3.20992-5.12692-4.18831-6.04089-.65107-.6082-1.67909-.76093-1.77674-.88082Z"/>
  <path d="M109.63449,39.50408c20.7084,20.36909,19.44791,54.65549-2.71544,73.34152-.27416,1.08889,1.04689.41106,1.22379.60964.86418.97011-1.84049,3.10073-2.24749.00075-25.21004,20.79754-63.54832,10.90018-76.32964-18.96275C8.30518,44.81903,71.46536,1.96035,109.63449,39.50408ZM114.12133,101.43442c18.36751-27.67001,3.19074-65.81576-29.26391-72.53287C40.42715,19.70586,9.93542,72.05962,39.85056,106.30126c19.87292,22.74705,57.55457,20.31555,74.27078-4.86683Z"/>
  <path d="M26.36879,34.86201c-.09854,2.3255-1.8773,2.45009-2.80086,3.94606-3.48864,5.65083,3.81685,11.6098,8.53732,6.90997,3.35069-3.33603-.62393-7.34982-2.02485-6.32997-.17611.12821-1.4281,3.28053-2.29369,3.65401-3.5352-1.23831,1.91781-4.78632,2.27521-6.94918.32526-.22863,6.55973,3.53508,6.93863,3.88151,1.04246.95315-.45429,3.52471-2.04272,2.25313.51317,6.73143-8.14893,10.27612-12.87899,5.72665-4.47877-4.30777-2.09419-12.64186,4.28995-13.09219Z"/>
  <path d="M41.76825,23.5338c1.75584,1.71275,2.50656,5.16968.95543,7.22647l5.31315.20681c-.81653.4447-1.52482,2.42288-2.28885,2.57297-1.43286.28148-3.56104-1.56989-5.70309-.33901-2.28491,1.31296,1.4286,3.08054,1.43454,3.90814.00102.14161-1.679,1.89485-2.17424,1.81208-.76767-.12831-9.40906-11.5907-9.28991-12.41264,3.13635-2.38329,7.88193-6.75083,11.75297-2.9748ZM37.70763,24.70782c-1.01067.10381-3.99657,1.88057-3.99333,2.98766.00173.5907,3.45867,4.67592,4.29651,4.69932,3.96393.11068,5.03535-8.2353-.30318-7.68697Z"/>
  <path d="M118.6627,32.08801c12.68029-2.35288,12.5712,16.98643.33827,15.02433-7.73055-1.23994-7.90067-13.6211-.33827-15.02433ZM119.89356,33.71328c-7.58311,1.48068-3.83321,13.23865,3.33363,9.89924,5.339-2.48773,2.82447-11.10167-3.33363-9.89924Z"/>
  <path d="M134.71841,47.54634l-.21178,2.86049-6.73622,8.19207c2.65261-.25962,6.34121-2.75669,8.78716-2.87232.89163-.04215.50629.02858.61512.61691.36805,1.9897-.48854,1.25916-1.95737,1.72592-3.0766.97767-7.81636,3.08515-10.70276,3.64031-1.59033.30588-1.98072-.29998-1.34021-1.77129.44639-1.02542,7.9112-9.51089,7.45534-9.93233-2.55672.42098-7.09547,3.29737-9.3736,3.50768-.95157.08785-1.40905-1.10565-1.25549-1.86839l14.71983-4.09905Z"/>
  <path d="M72.03545,19.17753c-1.31465,1.41838-4.54153,1.77243-6.418,1.76266.22824,2.84457,1.35171,4.34421-2.44875,4.50311l-1.22585-15.14384c3.34665-.14393,6.57855-2.10267,9.61128.40097,2.58905,2.13736,2.72864,6.05248.48132,8.4771ZM66.75964,11.21815c-.69221.08169-2.09139.32518-2.32089.97521-.10121.28667.30075,4.82957.41933,5.21124.16808.54104.47886.57598.96499.66882,6.81608,1.30167,7.36298-7.61372.93657-6.85528Z"/>
  <path d="M109.36855,23.39191c-3.11652.60492-2.2135-2.5276-4.76371-4.02777-6.30223-3.70732-11.05853,5.46603-5.66335,8.94557,1.98523,1.28034,2.74432.60732,4.62654.50621,2.11604-.11367,2.39452,1.05995.4185,1.67685-8.07112,2.51976-13.84933-8.14135-7.49651-13.23657,5.37417-4.3103,12.50408-.42374,12.87854,6.13571Z"/>
  <path d="M55.3942,11.93345c1.08877,4.87229,7.94326,14.91387-.70029,16.69007-6.82171,1.40182-7.51396-7.79484-10.32236-11.9854.40948-.48624,1.73005-1.2331,2.23232-.63531,2.27676,2.70975,2.45135,13.46669,8.67903,9.97098,4.29388-2.41023-2.97179-10.54483-2.64722-12.6247.06971-.44672,2.34742-1.77279,2.75853-1.41565Z"/>
  <path d="M28.82274,54.50882c.45268,4.80477-2.98007,1.9793-4.44103,2.92053-.34634.22313-1.27547,4.40058-1.63308,5.16063-.07665.89011,3.22172,1.64886,3.22487,3.17271.00083.40105-.32565.9417-.6406,1.02392-1.25798.32843-10.84294-7.97931-12.89464-8.87342l.72269-2.18605,15.6618-1.21833ZM21.86967,61.87691l.43036-4.31232-6.55961.22135,4.90423,3.88477,1.22501.2062Z"/>
  <path d="M62.22701,138.71054c-1.91659,1.39521-6.49755-.24839-8.42282-1.33883.70818-1.46218,2.76197-11.65384,3.28355-11.99117,1.2789-.82716,6.19512.7956,6.92684,2.57254,1.40685,3.41646-1.02854,3.8933-1.21368,5.00352-.06093.36539,1.02743,1.4685.76038,3.18989-.08293.53454-.97209,2.30038-1.33429,2.56404ZM61.83701,130.54669c.97786-.86028.76395-3.21416-.93124-3.56977-2.99066-.62737-2.55284,1.182-2.62526,3.65108.94756.0533,2.7925.59082,3.5565-.08131ZM57.48002,132.32476c-.1568.13366-.94467,3.68888-.68391,4.06627,1.31317,1.90051,6.48927.4177,4.28169-3.04196-.569-.89172-3.01143-1.52414-3.59778-1.02431Z"/>
  <path d="M86.8031,9.96882c.93467,1.0542,1.95732,13.20802,2.93863,15.4711-4.77543.29219-2.72058-.02297-3.26951-3.06847-.24552-1.36215-4.02965-2.03026-5.29071-2.06538-1.75898-.049-2.37385,6.1943-4.35957,2.24946,2.04444-2.02338,6.26625-11.83828,8.01951-12.89567.32242-.19445,1.79471.12068,1.96165.30897ZM86.06202,19.70887l-1.01887-6.95416c-.51765.87649-3.95955,6.09719-3.47706,6.54588l4.49594.40828Z"/>
  <path d="M91.78552,125.32409l2.8658,13.50979c-.57464-.10341-2.12539.20205-2.41507-.04157-.20466-.17211-.91092-4.53056-.85694-5.28268l-5.72622.82244c-.0925,2.62562,2.93645,6.91823-1.63259,6.55085.42511-1.93316-2.71161-12.69783-1.99751-13.46295.07186-.077,1.49579-.52633,1.79075-.06535.68727,1.0741.50919,5.79154,1.96309,5.69141.27153-.0187,4.582-1.0251,4.74011-1.21197.68432-.8088-1.04831-5.65647-.75841-6.07149.09438-.13511,1.89015-.56135,2.02699-.43848Z"/>
  <path d="M79.92961,131.87223c-.05779.0599-1.44265.26678-1.65268.1911-1.16841-.42101-1.31258-2.39722-4.504-2.05429-6.265.6732-5.08469,10.8532,2.18918,9.14698,1.32652-.31116,1.9003-1.98779,3.55741-1.54784-1.63192,4.06455-7.7561,4.39599-10.64383,1.44583-5.22235-5.33525,1.08841-14.64223,8.30157-10.76765.7125.38272,3.33917,2.97761,2.75234,3.58587Z"/>
  <path d="M35.8308,117.89312c-.59619-.99408.64532-3.66672-2.35929-5.20508-5.70204-2.91945-9.70828,5.47532-4.61489,8.30448,1.68225.93442,3.3903-.03334,4.05161,1.67453-12.20999,2.31771-10.55058-16.51383.63978-12.92046,2.76729.88861,5.68727,5.65465,4.07953,8.22667-.38591.61737-1.66892.13298-1.79674-.08015Z"/>
  <path d="M102.68535,124.6479l6.67672,7.02213c-2.86673,3.36058-2.74031-.58054-4.37065-.96174-.71695-.16764-4.29609,1.09206-4.55193,1.84662-.61856,1.82434,1.19972,4.47059-1.69964,3.82528l-.81892-14.33152c2.3661-.52646,2.98166,1.64215,4.76441,2.59923ZM100.36583,124.91912c-1.31468-1.12431-.41346,1.98526-.40234,2.25011.05434,1.29347-.03179,2.59499.00351,3.88506l3.66344-1.83559c-.68703-1.33775-1.84931-2.23225-2.85857-3.28901-.30253-.31677-.35383-.96592-.40605-1.01058Z"/>
  <path d="M115.13818,23.83835c.51643-.35597,2.75049.99824,1.80232,2.01088l-9.00246,11.04813c-.70446-.85364-2.31067-1.56964-1.64918-2.84967l8.84932-10.20934Z"/>
  <path d="M50.07921,136.37883c-1.08123-.09809-2.51944-.80894-2.29435-2.05584.12822-.71026,4.28725-10.23484,4.71047-10.79263.49031-.64621,2.18916-.46482,1.9209.98825-.65949,3.57218-3.84354,8.00576-4.33702,11.86022Z"/>
  <path d="M116.79385,126.085c-.78187-2.04314-7.4642-8.89969-7.44672-10.34782.00144-.11936,1.04885-1.43002,1.83598-.62001.97813,1.00656,7.83375,9.02178,7.97576,9.63095.18871.8095-1.77178,1.68208-2.36502,1.33688Z"/>
  <path d="M94.09142,42.38076c5.37945,3.82967,12.23164,14.83267,14.24526,21.14188,3.55488,11.13842,1.37964,24.36764-4.57877,34.26704-11.44846,19.02067-37.27534,19.689-53.41225,6.17202-8.25589-6.9155-10.94615-19.14802-10.90845-29.62043.03305-9.18135,9.49649-20.83056,17.50177-24.63693.71379-.33939,5.70433-2.50003,6.02841-2.5608,11.40501-2.13866,26.70368,5.64335,31.757,16.08957,2.77504,5.73655,3.68576,20.71751.2676,26.20715-3.56398,5.72383-10.38492,11.85124-17.36302,12.49914-12.58837,1.1688-26.01084-3.68274-27.50304-17.7971-1.51661-14.34521,5.3288-30.98606,22.55696-25.4494,9.40722,3.02322,14.47426,10.265,14.16401,20.13299-.5544,17.63397-30.37146,20.42243-30.23395.46495.02554-3.70638,1.7725-9.34096,4.76614-11.61373,3.76629-2.85937,6.41128-3.44255,10.77096-1.49167,3.95167,1.7683,6.28215,6.37951,6.165,10.61672-.1216,4.39806-5.80413,7.17564-9.57388,5.07694-2.67029-1.48661-5.84597-7.02877-.65404-5.48178,2.17518.64812,2.70162,3.11041,5.41508,1.84209,3.52943-1.64972.92506-10.06982-5.20259-9.82604-2.31337.09203-6.82007,3.39406-7.68565,5.43806-.76807,1.81372-.57344,6.06236-.02266,8.00114,2.6213,9.22716,11.08555,10.22484,18.0749,4.7511,7.60739-5.95776,6.17534-16.17125-.99744-21.85002-2.92959-2.31939-9.84963-4.97015-13.3602-3.59373-6.50003,2.54853-8.63706,8.01488-9.67852,14.4782-1.01793,6.31729-1.13122,14.94322,4.89088,18.74737,7.20129,4.54905,18.02205,5.41436,25.1025.2293,9.49604-6.95401,11.24044-15.16372,8.61559-26.61967-2.8314-12.35743-20.3387-20.20442-31.92559-16.36724-6.03672,1.99916-18.04398,12.07123-18.49548,18.76918-.35627,5.28524.8469,18.26037,2.87811,23.09272,4.13552,9.83864,17.70171,15.86474,27.89193,15.86829,11.636.00405,21.41267-4.25357,27.60849-14.52464,4.52689-7.50441,6.41224-19.12807,4.79703-27.73674-1.45681-7.76448-9.50752-20.35039-16.70559-23.80058-13.08552-6.27218-31.40574-4.07766-41.94791,6.01025-.48903.46796-.73427,1.97021-1.91255,2.39593-4.38633,1.58481-2.81995-2.82007-.85945-4.96858,10.83757-11.87684,36.52458-13.60693,49.52343-4.35296Z"/>
</svg>