<?xml version="1.0" encoding="UTF-8"?>
<svg id="Capa_1" data-name="Capa 1" xmlns="http://www.w3.org/2000/svg" viewBox="0 0 150 150">
  <defs>
    <style>
      .cls-1 {
        fill: #e66017;
      }

      .cls-2 {
        fill: #eddb12;
      }

      .cls-3 {
        fill: #273164;
      }

      .cls-4 {
        fill: #b2bf15;
      }

      .cls-5 {
        fill: #4c91ca;
      }
    </style>
  </defs>
  <path class="cls-3" d="M117.59698,74.75031c-.00117-.55425.02328-1.1085-.04892-1.66624-.07451-.57055-.11874-1.14576-.23404-1.71166-.14322-.69747-.36794-1.36234-.75219-1.97015-.58919-.93268-1.43104-1.54748-2.42657-1.98063-1.19003-.51699-2.45105-.68466-3.73071-.71843-1.44153-.03725-2.88536-.03376-4.32803-.04541-.49256-.0035-.98626.01281-1.47996.0163-1.67555.01514-3.35226.01165-5.02783.01397-.54959.00117-1.09918-.00116-1.64877.00117-.21193,0-.21542.0035-.21542.21309-.00117.75336.00466,1.50789-.00466,2.26241-.00233.17233.05125.27364.20377.34815.23404.11412.45993.24453.69048.36562.31091.16418.47275.40637.42502.76966-.01515.11994-.00583.2422-.00583.36329,0,8.18334,0,16.36784-.00117,24.55118,0,.21424-.00699.42849-.02445.64157-.06638.78364-.40404,1.42172-1.04329,1.89098-.16536.12226-.32137.255-.48904.3726-.30275.21075-.42269.50651-.42269.86398.00117.35397,0,.70679.00117,1.06076.00117.23288.00233.23753.22242.23753,2.24492.00117,4.48987.00117,6.73365,0,.20377,0,.2061-.00466.20726-.22473.00117-.51117,0-1.0235,0-1.53583v-.74521c.02794-.01398.05472-.02911.08267-.04425.09549.11294.18631.23288.28993.33767.66952.68117,1.42055,1.25754,2.24145,1.7431.99789.59035,2.06213.93151,3.23701.88843.54842-.02096,1.09568-.05007,1.64064-.11994,1.05492-.1374,2.05048-.44712,2.96686-.99788,1.38095-.82905,2.26007-2.02255,2.62571-3.58865.22938-.98275.31788-1.98179.31788-2.99015.00114-6.20038.00233-12.40076-.00233-18.6023ZM112.17324,93.22219c0,.595-.04077,1.19233-.15487,1.7757-.20144,1.03863-.78943,1.83391-1.67088,2.40447-.50419.32719-1.08755.39123-1.66858.3237-1.9364-.22589-3.27775-1.30179-4.16736-2.98899-.22938-.43432-.31438-.91055-.31438-1.40192.00117-3.59331.00117-7.18662.00117-10.77993,0-3.58399.0035-7.16799-.0035-10.75198-.00117-.78247.33652-1.32857,1.03166-1.67207,1.01301-.49952,2.08891-.64972,3.20207-.56938.6241.04425,1.22844.18513,1.82109.39123.99439.34466,1.54515,1.05727,1.75824,2.05864.11644.54726.16767,1.10267.16767,1.66159.00117,6.51592.00233,13.03302-.00233,19.54895Z"/>
  <path class="cls-3" d="M144.97761,100.4123c-.08616-.48555-.17582-.96994-.26665-1.45432-.08966-.47624-.31788-.86514-.70676-1.16439-.24337-.1863-.46925-.39473-.7033-.59384-.95829-.81857-1.59058-1.83276-1.8444-3.07516-.28177-1.38446-.56824-2.76776-.85351-4.15105-.43895-2.13084-.88142-4.26051-1.31924-6.39134-.40054-1.94803-.79645-3.89721-1.197-5.84641-.40287-1.96665-.80811-3.93331-1.21445-5.8988-.11877-.57404-.21309-1.15391-.37263-1.71631-.40171-1.42405-1.29479-2.47899-2.56513-3.20674-1.14111-.65439-2.34277-.70562-3.54093-.17582-1.57892.69979-2.48945,1.97364-2.89699,3.60961-.27831,1.11665-.47158,2.25542-.7033,3.38488-.40287,1.95735-.80575,3.91469-1.20865,5.87203-.43548,2.12152-.87096,4.2442-1.30644,6.36572-.40287,1.95734-.80342,3.91585-1.20979,5.87202-.17932.86398-.33769,1.73378-.54959,2.59193-.24453.99322-.73241,1.84672-1.48809,2.5372-.33652.30624-.69167.59384-1.04795.87911-.31091.24918-.50419.56589-.60201.94665-.09779.37843-.15135.76617-.22006,1.15042-.03843.21774-.10362.43199-.10129.65322.09779.05007.19211.02794.28294.02794.54959.00233,1.09918.00117,1.64877.00117h5.30847c.25383,0,.25616-.00117.29343-.18863.39705-1.96782.76382-3.94146,1.12246-5.91743.27248-1.49974.56124-2.99714.84418-4.49454.03843-.20028.0431-.20144.25383-.20144,1.01535-.00117,2.03072-.00117,3.04606-.00117,1.12596,0,2.25308,0,3.38023.00117.2061,0,.20843.00232.24917.2026.07218.34582.14438.69165.2096,1.03863.52747,2.80502,1.05261,5.61003,1.57892,8.41389.05589.30157.11294.60315.17116.90473.04656.24102.04773.24102.30506.24219h.05589c2.30084,0,4.60051.00117,6.90134-.00117.09083,0,.18515.02445.27131-.02561.03727-.06637.00583-.13041-.00466-.19096ZM129.24205,86.51763c.91403-5.1466,1.82459-10.27807,2.73515-15.41303.11411.20842,2.58727,13.48946,2.87138,15.41303h-5.60653Z"/>
  <path class="cls-3" d="M73.87536,94.45235c.32508-2.09871.64618-4.16529.96506-6.23222.3344-2.1675.66743-4.33522.99974-6.50305.34356-2.2413.68504-4.48292,1.02833-6.72426.2448-1.5983.4753-3.19901.74172-4.79371.21321-1.27621.93363-2.18421,2.11683-2.71845.4354-.19659.89529-.30731,1.36387-.39007,1.22693-.21671,2.45318-.43717,3.67984-.65541.07265-.01292.14643-.0194.21603-.0284.05606.08537.03304.17151.03325.25303.00188.7447-.00271,1.48944.00428,2.23407.00138.14674-.04499.21404-.18821.24793-.37986.08987-.75694.19164-1.13443.29127-.32522.08583-.59353.2599-.80117.52615-.14299.18334-.18408.40266-.22476.62263-.40389,2.18444-.80803,4.36884-1.21191,6.55329-.36333,1.9651-.73206,3.92922-1.08814,5.89563-.42728,2.35973-.8492,4.72046-1.26319,7.08255-.3867,2.20639-.78473,4.41081-1.14477,6.62188-.103.63248-.16935,1.27178-.31932,1.89597-.18588.77366-.62581,1.37116-1.32255,1.75078-1.76164.95984-3.51269.89615-5.222-.13251-.68434-.41183-1.09787-1.0428-1.28591-1.8207-.33222-1.3743-.59382-2.76269-.83345-4.15544-.29316-1.70381-.58712-3.40749-.87395-5.11237-.21744-1.29243-.4257-2.58641-.63538-3.88013-.1977-1.21978-.39188-2.44013-.58772-3.66021-.19592-1.22057-.38788-2.44179-.58901-3.66149-.22686-1.37579-.45819-2.75087-.69477-4.12502-.18765-1.08992-.4041-2.1752-.57289-3.26792-.09627-.62319-.47418-.94518-1.02587-1.11729-.37238-.11617-.7547-.20039-1.13228-.30003-.2344-.06186-.23655-.0628-.2369-.28891-.00117-.75401-.00174-1.50802.00038-2.26203.00058-.20618.00575-.20888.20515-.17336,1.35476.24129,2.7115.4724,4.0631.73034.77921.14871,1.49532.458,2.08092,1.01231.65568.62066.98628,1.39729,1.11219,2.2852.18135,1.27877.39418,2.55307.59306,3.82937.1932,1.23982.38601,2.47971.57847,3.71965.21239,1.36828.42343,2.73676.63646,4.10493.19734,1.26733.39648,2.53439.59489,3.80156.23719,1.51488.47552,3.02958.71142,4.54466.19304,1.23979.38326,2.48002.57456,3.72008.01256.08141.0149.16559.08905.27972Z"/>
  <path class="cls-3" d="M94.40913,66.40053c0,.49088.00002.946,0,1.40112-.00002.37237-.00527.74485.00269,1.11704.00276.12908-.03864.20366-.15476.26188-.22433.11247-.43927.24346-.66152.36027-.33829.17778-.50765.45204-.49637.8357.00164.05581.00018.1117.00018.16756,0,8.30381-.00025,16.60763.00083,24.91144.00005.35338.01254.70653.07651,1.05595.11379.62144.42202,1.12549.91469,1.51734.20392.16218.41214.31907.62078.47519.24081.18017.3612.42595.36947.71877.01182.41858.00413.83768.00851,1.25652.00107.10258-.03007.1595-.14223.15134-.05557-.00404-.11169-.00034-.16756-.00034-2.17904.00002-4.35809.00002-6.53714,0-.04656,0-.09348-.00395-.13961.00045-.12731.01215-.19659-.03029-.17987-.17091.00656-.05507.00096-.11158.00096-.16744,0-10.05394.00046-20.10788-.0012-30.16181-.00009-.54098.10828-1.05343.36912-1.5275.34538-.62773.89621-1.00359,1.55589-1.24213.44016-.15916.90261-.21828,1.35804-.30772.98515-.19345,1.95891-.44159,2.94885-.61169.07272-.01249.14566-.02359.25377-.04103Z"/>
  <path class="cls-5" d="M41.5434,51.3915c.00769,1.24551-.22238,2.45663-.52502,3.65902-.39813,1.58177-1.08111,3.04393-1.82783,4.48394-.86051,1.65946-1.7272,3.31747-2.30062,5.10718-.25069.78242-.42108,1.57847-.46716,2.40082-.05112.91239.21295,1.72716.74914,2.45686.84185,1.14567,1.9817,1.85012,3.35433,2.15568,2.20903.49174,4.11707-.12208,5.74654-1.6606.59332-.5602,1.07246-1.21125,1.47823-1.91711.1992-.34654.44123-.66892.59477-1.0412.25409-.61609.40154-1.25279.41227-1.92397.01375-.8605-.04986-1.71202-.2859-2.54037-.28555-1.00211-.77874-1.89148-1.55055-2.6054-.50659-.46859-1.10364-.72582-1.8075-.64922-.5079.05527-.9711.24726-1.39984.52185-.67222.43051-1.16698,1.03402-1.61798,1.67712-.35802.51053-.69872,1.03257-1.00204,1.57838-.31424.56545-.5689,1.15507-.63977,1.80191-.08196.74803-.03849,1.48632.29713,2.18158.21346.44221.53979.77223.9668,1.0129.32791.18481.66912.21156,1.02534.12485.59752-.14545,1.09458-.45124,1.48731-.9286.53895-.65509.91906-1.39702,1.20788-2.18863.09457-.25919.1161-.52585.00463-.78991-.05213-.1235-.13297-.22383-.24412-.29788-.14566-.09703-.27405-.09359-.40892.01974-.15074.12666-.26611.28492-.37866.44558-.28856.4119-.5035.87043-.80762,1.2721-.07276.09609-.15416.18589-.23486.27565-.05038.05603-.11246.09545-.18826.11344-.33336.07911-.85924-.26494-.91704-.60093-.10259-.59638.03832-1.14624.337-1.6581.36213-.62057.8636-1.12359,1.43437-1.54608.58913-.43608,1.25016-.47644,1.93695-.23275,1.09774.3895,1.5174,1.17976,1.4801,2.23125-.01544.43531-.16284.8567-.2907,1.27437-.41605,1.35901-1.11505,2.5524-2.11286,3.56664-.50289.51116-1.06064.94329-1.78617,1.08455-1.07407.20912-2.02903-.0473-2.85262-.77103-.97819-.85959-1.52779-1.94819-1.72441-3.22731-.20834-1.35532-.04621-2.66817.45058-3.94028.28071-.7188.71083-1.34835,1.22363-1.92127.67832-.75784,1.39744-1.46393,2.28345-1.99095.91187-.54241,1.89034-.76524,2.93606-.70619.58649.03311,1.12255.25294,1.62066.55724,1.00623.61472,1.87733,1.37168,2.48665,2.39851.42344.71358.67203,1.48771.80004,2.3042.1924,1.22722.1198,2.44889-.10003,3.66265-.30993,1.71125-1.09418,3.19123-2.25714,4.47387-.75054.82777-1.61663,1.51154-2.61914,2.01266-.7919.39584-1.6383.59529-2.51617.68222-.40811.04041-.81618.0619-1.22563.05979-.76713-.00396-1.48833-.21614-2.18671-.50937-1.54718-.64961-2.91167-1.57015-4.07105-2.78693-.1473-.1546-.27725-.32564-.41649-.48799-.5087-.59315-.73508-1.30566-.86329-2.05725-.06093-.35717-.10104-.71811-.10968-1.08066-.02812-1.17985.22147-2.30694.65102-3.40027.40974-1.04292.9621-2.01306,1.50772-2.98725.49091-.87652,1.04248-1.71787,1.49602-2.61628.66877-1.32476,1.23222-2.68749,1.55775-4.14068.21461-.95804.30641-1.92722.25439-2.9077-.02025-.3817-.10651-.7533-.22607-1.11712-.13821-.42056-.0592-.60551.35158-.76048.36892-.13917.74868-.13176,1.12114-.00323.21689.07484.34285.24598.43005.45072.18125.42551.24372.87622.27591,1.3316.0144.20376.00244.40938.00244.61415Z"/>
  <path class="cls-1" d="M16.46427,85.29851c-.00967,1.09786.21112,2.14302.71672,3.12275.14976.2902.32249.56545.53079.81781.7189.87103,1.57207,1.11231,2.6443.74899.66047-.2238,1.20193-.63025,1.67695-1.12411.6853-.7125,1.29234-1.48921,1.82891-2.32052.547-.84746.80602-1.77228.74939-2.78061-.03932-.70005-.24737-1.32817-.77444-1.82741-.40062-.37947-.86135-.49747-1.38932-.37106-.52866.12658-.98654.3808-1.36089.77935-.55969.59586-.99562,1.27398-1.3413,2.01226-.10507.22441-.14588.45918-.11178.70583.01837.13288.07181.24942.16136.34909.17262.19213.29792.20551.50523.0462.20883-.16048.3649-.37028.52505-.57593.25718-.33023.47724-.68813.75824-1.00087.3698-.41156.54592-.42909.99182-.09647.1695.12644.25344.28446.25949.4973.022.77382-.29489,1.40713-.80304,1.96169-.29024.31675-.61934.59013-.96432.84557-.74294.55011-1.55792.58739-2.34516.10327-.84053-.5169-1.23506-1.44501-.96191-2.404.54255-1.90479,1.54919-3.50774,3.14048-4.72561,1.37808-1.05468,3.11882-.68278,4.08273.39915.76205.85536,1.19947,1.85062,1.31744,2.98655.17479,1.683-.16795,3.2586-1.02839,4.71271-.5046.85276-1.23218,1.50783-1.9853,2.13761-.57671.48224-1.19978.89138-1.90143,1.1514-1.42521.52816-2.80645.52848-4.0628-.4668-1.02569-.81255-1.84109-1.78426-2.28333-3.03667-.33718-.95487-.42092-1.94178-.35795-2.94285.05145-.81794.19894-1.62275.39832-2.41772.29876-1.19119.85091-2.26002,1.58711-3.23483.91393-1.21015,2.06205-2.13894,3.43206-2.79036,1.05125-.49985,2.16912-.61934,3.31863-.59986,1.00402.01701,1.92374.29704,2.78845.78594,1.44614.81765,2.65872,1.89769,3.65973,3.22449.65563.869.92345,1.84722.94273,2.91895.02766,1.5375-.39191,2.95573-1.10181,4.30229-.60929,1.15572-1.35103,2.22739-2.11806,3.27978-1.08858,1.49355-2.07363,3.04372-2.78412,4.75693-.47713,1.15051-.77779,2.34514-.90151,3.58369-.05037.5043.01236,1.00287.10836,1.4976.06372.32836-.01372.49741-.32642.60647-.39294.13704-.78629.12347-1.1646-.06762-.15609-.07884-.26568-.19833-.3295-.36303-.08127-.20973-.12724-.42604-.15175-.64926-.08515-.77565-.00409-1.54196.1451-2.30082.44825-2.28004,1.31658-4.39059,2.56352-6.35142.81356-1.27934,1.63564-2.55439,2.35703-3.88986.48699-.90155.9239-1.82475,1.22169-2.809.14594-.48234.24366-.97382.29752-1.47383.0728-.67578-.06293-1.31811-.36051-1.92174-.78486-1.59212-2.08401-2.54937-3.78865-2.94451-1.74884-.40539-3.33567.02153-4.77229,1.06471-.40792.29621-.77644.63751-1.11539,1.01035-.49601.5456-.9316,1.14018-1.32819,1.75788-.56409.8786-.74399,1.87383-.77532,2.90214-.00425.1394-.01302.27867-.0197.41799Z"/>
  <path class="cls-2" d="M41.89595,76.11927c1.98946-.09348,3.60565.67498,5.05339,1.8753,1.30544,1.08235,2.23106,2.43867,2.81257,4.02592.24014.65548.3786,1.34187.4917,2.03016.1148.69863.15925,1.40244.13067,2.11227-.06501,1.61454-.65981,2.99818-1.78036,4.15822-.45428.47029-.93766.90401-1.52641,1.20593-.64356.33003-1.3236.39016-2.03535.33621-1.15283-.08738-2.11505-.60073-3.01112-1.27742-.55778-.42123-1.08303-.87907-1.5548-1.39769-.93926-1.03253-1.43456-2.26788-1.67306-3.62223-.15823-.89857-.15273-1.7949.05415-2.68616.23832-1.02667.73066-1.915,1.52637-2.60628.57432-.49894,1.26966-.72284,2.03816-.69865.62669.01973,1.17825.23992,1.67772.60886,1.01215.74764,1.81463,1.67726,2.41131,2.78338.34084.63186.63677,1.28559.80067,1.9867.13876.59357.04902,1.16884-.2672,1.69369-.56936.94498-1.95782,1.26102-2.87661.65816-.46079-.30234-.88678-.64934-1.24781-1.06828-.44531-.51675-.71396-1.1034-.70743-1.80175.00211-.22608.0846-.3908.26136-.52407.44637-.33656.61367-.32164.99142.09626.2816.31152.51022.66383.76892.99296.15551.19785.31428.39346.51203.55099.21931.17472.378.15641.54429-.06664.12716-.17056.17692-.36817.14554-.58019-.02319-.15669-.06315-.30977-.13359-.4533-.37995-.77416-.84057-1.49389-1.47231-2.08797-.48517-.45625-1.06216-.7101-1.74024-.70366-.21103.002-.40087.06189-.57828.17583-.5942.3816-.9219.9354-1.02956,1.6204-.1731,1.10142.04025,2.13369.63281,3.0741.62225.98754,1.34993,1.89474,2.20624,2.69195.42644.39702.91214.70252,1.47325.88158,1.11922.35715,1.93368.0437,2.62359-.81569.40738-.50746.66358-1.09569.86853-1.7077.30687-.91639.33951-1.85997.27239-2.81263-.02483-.35247-.063-.70319-.13421-1.05024-.15393-.75014-.45386-1.4326-.92139-2.04143-.43059-.56072-.83839-1.13922-1.35048-1.63336-.88093-.85006-1.88754-1.47554-3.09155-1.75472-2.25203-.5222-4.68142.43566-5.94447,2.32716-.70456,1.05513-.8749,2.18526-.57697,3.40986.26845,1.10343.72097,2.12889,1.25515,3.12322.754,1.40353,1.63,2.73274,2.50674,4.05997,1.07535,1.6279,1.89542,3.36996,2.43576,5.243.31301,1.08499.5356,2.18471.48691,3.32417-.00801.18737-.04104.36953-.07081.55284-.07517.4629-.35398.71625-.81162.79464-.3028.05186-.59429.03287-.86962-.10574-.21254-.107-.3008-.26217-.24979-.47713.24825-1.0462.08294-2.07072-.15644-3.08982-.38074-1.62089-1.09968-3.09644-1.96269-4.50842-.4956-.81086-1.05994-1.57349-1.61869-2.34128-.85939-1.1809-1.72398-2.36081-2.3635-3.68364-.57912-1.1979-.90319-2.45389-.89961-3.79246.00294-1.10426.28788-2.1042.95876-2.99744,1.021-1.3594,2.25484-2.46926,3.74163-3.29703.94237-.52467,1.9497-.77172,2.97394-.7107Z"/>
  <path class="cls-4" d="M22.55595,73.86163c-1.07162.01062-2.18298-.17867-3.2116-.71915-1.43886-.75604-2.60052-1.82308-3.48429-3.18652-.77051-1.18871-1.25102-2.48446-1.42731-3.89463-.09358-.74859-.17719-1.4952-.13523-2.25134.05906-1.06413.29123-2.0808.83277-3.00929.61374-1.05226,1.46402-1.87449,2.5119-2.48549.72759-.42424,1.51716-.49755,2.34823-.38232,1.08392.15029,1.98279.66167,2.80633,1.33717.57637.47276,1.10979.99088,1.58401,1.56924.75686.92308,1.19022,1.98815,1.40042,3.15162.1805.9991.19271,1.9981-.04553,2.99092-.24769,1.03216-.75195,1.91702-1.54318,2.63081-.93642.84478-2.50165,1.1047-3.70933.20697-.84739-.62992-1.52101-1.42065-2.06024-2.32571-.48447-.81314-.82274-1.68689-1.05349-2.60294-.14523-.57655-.06102-1.13199.20826-1.65208.28898-.55813.80042-.84563,1.3785-1.01095.62223-.17794,1.20088-.05008,1.71.34865.45527.35655.88333.74295,1.21812,1.22106.35201.5027.54638,1.05359.51673,1.67407-.01775.37135-.38597.74564-.75501.76538-.15386.00823-.26727-.07084-.36317-.17763-.18682-.20804-.35063-.43381-.50524-.6667-.17492-.26348-.35099-.52631-.53257-.78522-.10158-.14484-.21697-.2803-.35843-.38894-.1736-.13332-.2807-.12725-.44285.02134-.20317.18619-.25128.42739-.22859.68716.01213.13886.049.27417.1031.4043.31661.76157.72658,1.46655,1.27137,2.08883.41401.4729.93699.75794,1.55303.86781.31304.05583.60805-.00249.88244-.17407.62681-.39195.96219-.97238,1.08114-1.6836.17989-1.07559.0018-2.09266-.54359-3.04054-.54471-.94668-1.16718-1.83904-1.91504-2.63669-.5303-.56561-1.1507-.991-1.9256-1.1718-.76555-.17862-1.41478.02178-1.98327.53798-.53582.48654-.87253,1.10482-1.15884,1.75741-.38149.86953-.49232,1.79115-.50271,2.72491-.00902.81094.05642,1.61736.36617,2.38396.12939.32024.27532.62988.47005.91623.40265.59209.77683,1.20375,1.26246,1.73665.85134.93421,1.84811,1.63753,3.07645,1.98794,2.2122.63107,4.6988-.20972,6.04656-2.04421.70946-.96567.96102-2.0297.757-3.21587-.19739-1.14763-.59535-2.22376-1.07927-3.27428-.58847-1.27747-1.2876-2.49608-1.98411-3.71568-.75305-1.31859-1.46124-2.65582-1.92207-4.11185-.37141-1.17351-.67781-2.3604-.78282-3.58942-.05624-.65819-.07341-1.31955.0818-1.97168.14589-.61298.38895-.8615,1.16702-.85262.16802.00192.33215.03718.48648.1105.2899.13773.37153.29596.29356.60655-.07027.27993-.12402.5616-.15604.84883-.06877.61696.00635,1.22676.09252,1.83396.25309,1.78338.92546,3.42111,1.7681,4.99676.40391.75527.86045,1.47881,1.32813,2.19636.76196,1.16906,1.51765,2.34343,2.10101,3.61598.56516,1.23286.89957,2.51924.86254,3.88723-.01516.56009-.08769,1.11241-.22657,1.65462-.11235.4386-.33003.83044-.59558,1.19163-1.21876,1.65766-2.7759,2.89679-4.67453,3.6874-.81945.34124-1.21863.40226-2.2601.38097Z"/>
  <path class="cls-3" d="M69.62874,52.24846c0-.46576-.04891-.92919-.15369-1.38213-.14555-.63343-.50069-1.10967-1.09803-1.39494-.37726-.17931-.77432-.26315-1.18769-.27479-.46459-.01514-.93035-.02329-1.39494-.02329-1.00486,0-2.0109-.01514-3.01576.01979-.21076.00815-.21193.00583-.21426.21542-.00233.21424.01399.42966-.00466.64158-.01512.18513.0431.30624.21076.37493.21659.08733.26315.25267.25966.47042-.01048.68932-.0035,1.37863-.0035,2.06679,0,2.63501-.00348,5.26887.00233,7.90388.00117.47275-.09896.88261-.50766,1.17254-.14788.1048-.20726.25733-.19912.43781.0035.09315-.00117.18631,0,.27946.0035.19562.00465.20027.19562.20027.70794.00117,1.41589.00117,2.12385,0,.23521,0,.23637-.00232.23754-.24917.00117-.22706,0-.45412,0-.69281.12807.02911.15484.11993.2154.17116.06405.05473.11877.1176.17932.17699.57986.57637,1.25289.8535,2.09357.75569,1.18419-.13973,2.0109-.90473,2.17742-2.07843.05937-.41569.08267-.83254.08267-1.25056.0035-2.51392.00233-5.02667.00117-7.54059ZM67.68304,60.00795c-.00115.44596-.02794.8896-.29923,1.282-.31906.45994-.70213.60199-1.23193.42501-.69747-.23171-1.29248-1.06309-1.27966-1.76638.02561-1.43221.00816-2.86674.00816-4.3001s-.00117-2.86673,0-4.30009c0-.50534.13389-.70096.61014-.87446.50301-.1828,1.00369-.15602,1.49972.03377.37843.14555.56358.44596.63575.82089.03843.19911.06172.40405.06172.61014-.00233,2.68975.00117,5.37949-.00466,8.06922Z"/>
  <path class="cls-3" d="M129.30144,61.86167c-.23987-.16185-.35398-.42501-.37496-.71843-.01279-.17582-.02792-.35281-.02792-.52863-.00233-2.07611.00347-4.15221-.00699-6.22832-.00117-.28644.07567-.48439.34232-.60199.06521-.02795.14322-.05822.14438-.15138.00466-.33767.0035-.67651.00233-1.00603-.10828-.02212-.17,0-.23288.01514-.34349.08267-.68468.17466-1.03166.24102-.3819.07336-.7091.2224-.93384.58802-.05822-.0524-.09313-.08267-.12573-.11528-.74989-.72541-1.61852-1.04795-2.67227-.86281-.99439.17466-1.77689.85467-2.03072,1.83625-.11061.42616-.14671.86164-.14788,1.29829-.00463,1.42405-.00463,2.84927,0,4.27331.00233.41802.0361.83603.13858,1.24473.10711.42151.2969.79994.59848,1.11898.55542.58686,1.25988.78131,2.04351.8046.64158.01979,1.11316-.3039,1.56144-.69747.06288-.05473.1176-.1176.17932-.17466.09898-.09316.20027-.18281.3237-.29576,0,.2713-.00117.52747,0,.78364.00233.21191.0035.21424.21309.21541.60548.00233,1.21095.00117,1.81643.00117.13972,0,.27947-.00117.41919-.00117.05939-.00117.11061-.01281.11294-.08849.00699-.35165.05239-.70445-.31088-.95014ZM127.05532,59.81583c.01046.77665-.36797,1.30062-.97577,1.7035-.20377.13507-.43781.19911-.68698.19678-.21542-.00117-.40404-.07103-.55658-.22007-.25733-.25384-.43665-.5496-.48671-.91754-.04426-.33301-.07104-.66487-.06871-1.00021.0035-.60548.00117-1.2098.00117-1.81528,0-.595.00233-1.19001-.00117-1.78618-.0035-.32603.02445-.64972.05705-.97343.02911-.29575.13972-.55657.30858-.79528.30156-.42616.7021-.5461,1.20046-.38308.62879.2061,1.21911,1.02932,1.20982,1.69302-.02095,1.43221-.01981,2.86557-.00117,4.29777Z"/>
  <path class="cls-3" d="M118.3189,61.88845c-.26315-.18281-.39125-.46576-.40637-.79178-.00699-.15836-.02328-.31555-.02328-.47391-.00117-1.84323-.00117-3.68646-.00117-5.52852,0-.27946.00699-.55891-.00233-.83836-.00583-.17932.06868-.30275.2119-.3959.06172-.04075.12693-.07568.19214-.11178.05356-.02911.08267-.07103.08267-.13391-.00117-.33069-.00117-.66254-.00117-.98391-.09779-.02678-.16067-.00582-.22355.00932-.31555.07685-.62995.16767-.949.22473-.41683.07452-.78713.21425-1.02814.60082-.04776-.04192-.08386-.07103-.11644-.10246-.75569-.73706-1.63597-1.07241-2.69675-.86398-.96642.19096-1.63481.72425-1.95965,1.66275-.16303.47158-.1968.96528-.19913,1.45781-.00813,1.42405-.0058,2.8481-.00114,4.27331.00114.42734.0489.85117.14205,1.27152.41103,1.84556,2.89582,2.48015,4.04742,1.3437.2026-.20028.411-.39706.65554-.6474,0,.3237-.00233.58453,0,.84418.00233.19096.00466.19445.20493.19562.39938.00233.79992.00117,1.20049.00117.33533,0,.67069,0,1.00602-.00117.06055-.00117.14671.01979.14671-.07918.00233-.33884.07337-.68699-.28177-.93268ZM116.04134,57.7339c0,.74521.00233,1.48925,0,2.2333-.00233.77083-.69281,1.59987-1.44616,1.73378-.3237.05705-.6113-.01747-.83489-.2713-.22588-.25617-.38656-.54144-.42616-.8896-.03727-.33301-.06405-.66603-.06288-1.00137.0035-1.19117.00466-2.38235,0-3.57235-.00233-.36445.02328-.72542.07803-1.08405.05705-.37144.23754-.68466.52281-.92802.28294-.24219.6148-.2352.95013-.13274.68232.2096,1.24473,1.07474,1.22494,1.68022-.02328.74288-.00583,1.48809-.00583,2.23213Z"/>
  <path class="cls-3" d="M144.70863,61.91174c-.26315-.18514-.40637-.45644-.43315-.78014-.01396-.16651-.01979-.33418-.01979-.50069-.00117-2.08543-.00117-4.17085-.00117-6.25627,0-.05589.00466-.11178,0-.16767-.01049-.13507.05589-.23172.15601-.30857.05125-.03959.10598-.07801.1642-.1048.11644-.05123.1665-.12691.16184-.25966-.01046-.25035-.00117-.50185-.00463-.75336-.00233-.18398-.00816-.18864-.1968-.14555-.32604.07452-.64857.16767-.97691.23055-.40987.07801-.78596.20493-1.01651.595-.0757-.06521-.13392-.11062-.18748-.16069-.7417-.69048-1.59288-.98391-2.61289-.80809-.98973.17-1.78036.85932-2.02952,1.83508-.11644.45412-.15371.91637-.15487,1.38213-.0035,1.30295.00117,2.60591-.00233,3.91003,0,.33535.01399.66952.05123,1.00137.06055.53446.2061,1.04097.54496,1.47296.48554.61713,1.14225.8861,1.90842.96528.66836.06987,1.2296-.13274,1.71398-.57637.20493-.18747.38892-.39705.5822-.59733l.06288.02795c0,.25849-.00233.51582,0,.77432.00117.20959.0035.21309.21542.21309.70676.00117,1.41472.00117,2.12268,0,.04656,0,.09313-.00117.13972-.00466.0396-.0035.07218-.02679.07104-.0687-.00466-.32719.0838-.67418-.25852-.91521ZM142.41712,59.84494c.00233.80227-.40754,1.35651-1.08172,1.7233-.5822.31671-1.08522.1502-1.42288-.41918-.11061-.18631-.19444-.38192-.21309-.59966-.02794-.30507-.07567-.60781-.07451-.91637.0035-1.24706.0035-2.49412,0-3.74002,0-.33651.0454-.66719.08733-.99905.03843-.30624.18282-.56589.37493-.79644.27481-.33069.68235-.42384,1.1155-.27247.63692.22356,1.18534.93151,1.20163,1.60919.01981.76267.00466,1.52535.00466,2.28919h.00816c0,.70679-.00117,1.41357,0,2.12152Z"/>
  <path class="cls-3" d="M93.03728,52.44734c.43552.08269.8637.16394,1.29184.24534.10048.0191.20157.03565.30116.05862.63027.14542.97156.55606.99755,1.20497.00708.17662.00136.35376.00136.53066.00003,2.11348.00752,4.22701-.00537,6.34042-.00313.51386.14212.93122.56226,1.23736.14339.10448.17856.24705.18043.41503.00531.47719.00874.47717-.45491.47717-.64263,0-1.28526-.00006-1.92789-.00002-.26797.00002-.2479.00979-.24749-.23603.00023-.13828.00004-.27656.00004-.43992-.13727.04435-.2005.15238-.28674.22465-.84095.70479-1.77514.81666-2.76537.39473-.62694-.26713-1.03706-.77341-1.30848-1.39059-.21262-.48348-.30814-.993-.30844-1.51994-.00106-1.88072-.00039-3.76144-.00048-5.64216,0-.08379-.00055-.16758-.00143-.25137-.00187-.17917-.08904-.29945-.25605-.35974-.11358-.04099-.22759-.08322-.34468-.11123-.09666-.02312-.14217-.06559-.14078-.16999.00432-.32502.00158-.65012.00158-.99212.24792.00029.46686.07819.6915.11221.26631.04033.52938.10168.7946.14984.70133.12736,1.03551.48889,1.10172,1.19986.00859.09237.00647.18589.00648.27888.00034,1.86211.00023,3.72421.00029,5.58632,0,.29772.00858.59429.06491.88852.04281.22358.13062.42579.25683.6125.31212.46174.76857.61019,1.29217.41643.676-.25016,1.20993-1.08039,1.20656-1.70624-.01063-1.97374-.00402-3.94758.00202-5.92137.00055-.17836-.07855-.27737-.22547-.34535-.01664-.0077-.03636-.00848-.05362-.01516-.1376-.05332-.3263-.04192-.4077-.15346-.09659-.13236-.03311-.32384-.03441-.48924-.00159-.20348-.01836-.40823.01598-.62959Z"/>
  <path class="cls-3" d="M102.62874,60.03008c-.26082.00466-.52164.00233-.78247.00233-.08153,0-.10248.04192-.11178.11994-.08386.65089-.46229,1.11199-1.00022,1.43452-.56358.33768-1.17721.27597-1.55797-.41918-.17813-.32836-.23868-.68117-.23984-1.04795-.00233-.4937-.00117-.98624-.00117-1.47994,0-.29226-.01166-.26315.27944-.26315.91289-.00117,1.82459-.01863,2.73632.00699.5333.01397.82323-.28295.80112-.78713-.02911-.66021-.01399-1.32159-.00466-1.98179.00696-.48788-.11411-.93617-.34349-1.36234-.71262-1.32508-1.93756-1.97364-3.36277-1.74659-.91289.14555-1.5661.64624-1.91192,1.51953-.18748.47275-.26082.96762-.26315,1.47296-.0035.76267,0,1.52535,0,2.2892,0,.70678.00233,1.41356-.00117,2.12152-.00233.29808.0093.59384.05822.88843.1304.80343.43665,1.50672,1.17488,1.93056.78247.44945,1.62548.56356,2.46967.24335,1.00019-.37726,1.68021-1.10849,2.04931-2.1157.08036-.21891.11994-.44829.12693-.68233.0035-.08501-.00932-.14438-.11527-.14322ZM98.99235,54.88813c.04773-.29226.18862-.54377.37726-.76734.29343-.34932.68232-.4448,1.13645-.29459.68698.22706,1.27966,1.11432,1.2354,1.70699-.02911.39823-.0023.79994-.00583,1.20049-.0023.23171-.04307.28411-.27595.28993-.40054.01165-.80112.0035-1.20049.0035v.00582h-1.17369c-.07803,0-.15254.00233-.14905-.11062.02095-.67767-.05472-1.35884.05589-2.03419Z"/>
  <path class="cls-3" d="M76.54522,60.03008c-.21426.00699-.42965.00815-.64275-.00116-.14438-.00583-.19328.0326-.22822.18863-.17116.75219-.6113,1.28665-1.36233,1.51836-.42968.13274-.78946-.00932-1.05728-.36794-.21774-.29226-.32953-.62295-.35864-.98275-.00814-.10131-.00931-.20493-.00931-.30624-.00115-.47507-.00115-.95015-.00115-1.42522,0-.32137-.01282-.27479.2911-.27712.22355-.00233.44711,0,.67069,0,.68931,0,1.37979-.02212,2.06679.00582.52398.02212.81041-.3109.78829-.77549-.0303-.64972-.01515-1.30295-.00466-1.95501.00813-.49603-.11297-.95364-.34232-1.39145-.6905-1.31459-1.94572-1.98528-3.36044-1.75706-.94782.15253-1.61386.68-1.94802,1.59405-.16418.45062-.23171.9187-.23171,1.3961v2.29035h.00931c0,.86631-.01397,1.73261.00581,2.59775.01166.5426.14438,1.06542.41686,1.54631.6567,1.16089,2.20069,1.40425,3.13919,1.08987,1.04795-.35048,1.75941-1.08521,2.15995-2.11454.08849-.22589.12926-.46459.14788-.70679.0093-.11644-.02215-.17116-.14905-.16651ZM72.89835,55.19902c.00699-.36212.13159-.68699.34117-.98507.3563-.50651.87328-.55542,1.30296-.34932.69164.33301,1.10967.88842,1.14924,1.67672.01865.37959.00699.76152.00233,1.14227-.00233.28411-.05589.34117-.34466.34699-.39008.00699-.7813.00116-1.17138.00116v.00117c-.37143,0-.74287-.00466-1.11432.00233-.12458.00233-.18397-.02096-.18047-.16534.01046-.55658.00233-1.11432.01512-1.6709Z"/>
  <path class="cls-3" d="M80.31195,52.44332c.21734.04453.41638.08228.61398.12649.30825.06896.61495.14482.92332.21325.61935.13744,1.05958.58726,1.15299,1.21373.17539,1.17632.33821,2.35451.508,3.53167.14589,1.01148.29409,2.02262.44189,3.03382.00531.03626.01721.07155.04076.16686.06855-.44934.13004-.84036.18762-1.23195.19867-1.35125.39631-2.70266.59367-4.0541.06578-.45041.13418-.90051.19315-1.35183.09573-.7326.49834-1.16965,1.22788-1.32337.47215-.09949.93601-.23714,1.45039-.32093,0,.36123.00064.71014-.00057,1.05906-.00023.06711-.04714.09286-.10608.10865-.10772.02886-.21327.0662-.32157.09239-.24899.0602-.3673.22447-.41122.4693-.14109.78643-.2882,1.5718-.43578,2.35706-.21623,1.15052-.44226,2.29926-.64959,3.45138-.11677.64893-.20897,1.30244-.30385,1.9551-.09992.68736-.577,1.13084-1.27565,1.17969-.32356.02262-.62836-.03396-.92003-.17553-.39699-.19267-.63289-.50377-.71382-.93713-.2985-1.59843-.58186-3.19946-.84593-4.80398-.16449-.99944-.34381-1.99644-.50767-2.99597-.04636-.28279-.19104-.44132-.46821-.51658-.39505-.10728-.39457-.11835-.39105-.5376.00192-.22904-.01714-.45954.01739-.70946Z"/>
  <path class="cls-3" d="M110.78199,52.4293c0,.35007-.0042.65642.0021.96255.00246.11936-.05458.157-.15865.1843-.28758.07545-.57283.16007-.85787.24487-.31459.09359-.38142.17633-.3816.49035-.00128,2.16851.00298,4.33704-.00317,6.50554-.00141.49532.13424.91632.54378,1.21974.13946.10333.19982.2385.20442.40618.00281.10212.01203.20421.01109.30624-.00185.20188-.00392.20648-.19471.207-.73548.00199-1.47097.00205-2.20645-.00012-.18839-.00055-.19197-.00552-.19219-.20774-.00123-1.14475-.0006-2.28951-.0006-3.43426,0-2.71763,0-5.43525,0-8.15287,0-.07446-.00133-.14894.00021-.22336.01145-.55205-.07549-.5454-.47113-.68234-.28988-.10034-.25351-.04206-.25525-.37081-.00138-.25944-.00028-.51889-.00028-.79162.29065-.00944.54631.08326.80915.11978.26663.03704.53126.09118.79479.14712.6083.12911.94888.53663.95744,1.16118.00855.62345.00112,1.24711.00313,1.87066.00029.09159-.01967.18614.03106.29291.44147-.08258.88723-.16596,1.36473-.25528Z"/>
  <path class="cls-3" d="M106.48807,49.10993c0,.31075-.00051.63472.00038.95869.00021.07723-.03868.11615-.1098.13864-.11508.03637-.22872.07758-.34177.11993-.22925.08588-.27597.15053-.28354.38815-.00207.06507-.0004.13025-.0004.19538v11.66763c0,.05583.00082.11167-.00017.16747-.00368.20675-.00389.20996-.21633.21041-.72597.00154-1.45197-.00257-2.17788.00336-.14116.00115-.20976-.03414-.18902-.18486.00754-.05479.00685-.11217.0002-.16719-.03165-.26206.0489-.46213.27092-.62515.32081-.23556.45879-.5748.46416-.96945.00126-.09302.00169-.18605.0017-.27908.00008-3.34025-.00008-6.68051.00068-10.02076.00003-.12072-.00372-.24355.016-.36178.091-.54554.40552-.87589.95643-.98936.48216-.09931.96792-.18117,1.45229-.26965.04379-.008.08954-.0207.15616.01761Z"/>
  <path class="cls-3" d="M137.0553,49.06437c0,.35638-.00127.67142.00082.98643.00057.08733-.03435.13572-.11951.16121-.12453.03727-.24618.08423-.3687.12807-.1576.05639-.24018.16909-.24561.33612-.00303.09299-.00252.18612-.00252.27919-.00011,3.8907.00049,7.7814-.00101,11.6721-.00015.37317.0581.32699-.32078.3286-.67036.00285-1.34077.00109-2.01115.00066-.27644-.00018-.24745.02099-.24929-.26009-.00042-.06515.00322-.13049-.00042-.19543-.01071-.19083.05373-.34255.21144-.45824.39323-.28846.53068-.68192.52942-1.16456-.00872-3.36943-.00427-6.7389-.00532-10.10836-.00007-.1962.0061-.39031.06122-.58045.12123-.41819.38408-.7093.80943-.80401.5526-.12305,1.11309-.21065,1.712-.32123Z"/>
  <path class="cls-5" d="M50.77422,60.89527c-.1946.00795-.36144-.07401-.50465-.19774-.17592-.152-.33868-.31862-.47149-.51177-.26276-.38214-.22375-.67167.15757-.92784.3702-.2487.75483-.47636,1.13745-.70606,1.6585-.99568,3.33188-1.96535,5.06892-2.81941.66695-.32792,1.33848-.64932,2.0591-.84927.05365-.01488.10782-.02795.16199-.04087.21853-.05211.44219-.1073.65212.01157.29712.16824.54685.38797.66802.72153.12233.33675.02692.63823-.2878.8123-.61006.33744-1.22681.66301-1.84465.98611-2.09263,1.09433-4.18026,2.19787-6.23976,3.35377-.17186.09646-.35016.17391-.55681.16768Z"/>
  <path class="cls-2" d="M59.01183,93.2324c-.45029-.02727-.93057-.17464-1.40858-.32828-1.38342-.44468-2.71509-1.02016-4.04253-1.606-.97861-.43189-1.94471-.89071-2.91042-1.35035-.16802-.07997-.33742-.15839-.4844-.2751-.22608-.17954-.28813-.37703-.18398-.64059.11741-.29711.28835-.56299.52055-.78485.21302-.20353.46235-.27844.74352-.16528.44845.18049.89527.36534,1.3393.55642,1.63197.70233,3.27884,1.36819,4.92921,2.02574.6565.26157,1.30945.53206,1.96355.79963.08597.03516.17116.07331.25327.11661.30178.15913.42903.44317.34555.77306-.08652.34191-.30586.58993-.57806.79744-.12834.09784-.28211.07938-.48699.08155Z"/>
  <path class="cls-4" d="M5.00033,56.71396c.04261-.30922.23519-.56834.49741-.79618.23154-.20118.48554-.20069.75977-.1466.77268.15242,1.4907.46179,2.20519.77637,1.91682.84396,3.76071,1.83253,5.59384,2.84166.20356.11206.4093.22264.60124.35277.3426.23228.39999.50445.19524.86411-.12016.21107-.2692.40182-.44222.5724-.24525.24179-.53047.28981-.84681.16177-.10334-.04183-.2063-.08577-.30546-.13653-2.37589-1.21614-4.79718-2.33836-7.2074-3.48349-.23513-.11171-.46658-.23121-.69928-.34799-.25285-.12689-.35854-.3386-.35151-.65831Z"/>
  <path class="cls-1" d="M6.03653,93.32245c-.1949-.0139-.34956-.05032-.48403-.17308-.19581-.17876-.36166-.37211-.45192-.62593-.10853-.30519-.05143-.7102.35815-.88259.64279-.27053,1.28051-.55317,1.92467-.82034,2.03586-.84441,4.06687-1.69998,6.07592-2.6068.09321-.04207.18704-.08317.28237-.12011.42095-.1631.69805-.09077.98898.26003.14286.17226.27481.35363.36628.55861.15052.33729.08616.56191-.21329.77366-.06061.04287-.12415.08309-.19052.11614-2.14003,1.06565-4.29294,2.10314-6.53193,2.94946-.53068.20059-1.0679.384-1.62579.49609-.17276.03471-.34887.05277-.4989.07485Z"/>
  <path class="cls-5" d="M58.52368,61.15717c.31094.00864.56247-.01292.8101.05296.43518.11578.81816.75464.70541,1.18987-.05071.19575-.1962.28664-.38323.31802-.34798.05837-.69631.11499-1.04532.16675-1.47906.21935-2.9598.42779-4.43398.6789-.49422.08419-.98789.17169-1.48141.25991-.46701.08347-.67835-.01507-.93019-.42418-.10332-.16785-.18732-.34372-.24651-.52983-.09916-.3118-.00413-.51134.3126-.59861.38459-.10597.77631-.18701,1.16656-.27137,1.03489-.22373,2.07422-.42625,3.12017-.58985.8168-.12776,1.63617-.24538,2.4058-.25257Z"/>
  <path class="cls-1" d="M8.22723,87.02251c-.56724-.0097-1.13599.03061-1.70111-.04989-.0827-.01178-.1658-.02309-.24718-.04144-.20751-.04679-.42566-.07238-.56623-.26398-.18016-.24558-.30169-.51632-.30989-.82301-.00819-.30608.15801-.47826.47264-.50467,1.01047-.08481,2.02402-.11557,3.03636-.16741,1.25387-.06421,2.50635-.14947,3.7576-.25205.39994-.03279.61451.07547.78843.43316.09753.20059.17909.40881.21512.6314.05816.35935-.05857.52824-.41814.58485-.25704.04047-.51583.07059-.77442.10038-1.39546.16074-2.79288.29866-4.19734.35257-.01859.00072-.03724.00009-.05586.00009Z"/>
  <path class="cls-2" d="M57.06835,86.95846c-1.30379.01047-2.60063-.10749-3.89731-.22427-.44412-.04-.88734-.0932-1.32939-.1522-.40418-.05394-.53044-.24148-.43801-.63752.05284-.22639.12846-.44645.24052-.65198.13166-.24147.32481-.37409.61039-.35784.27865.01585.55832.0156.83664.03532,1.0763.07627,2.15353.13031,3.23203.16449.93878.02976,1.87729.06961,2.8156.1121.37474.01697.53042.2012.51714.57838-.01061.3013-.14.55758-.31549.79043-.11276.14961-.29669.18602-.46692.23085-.28004.07375-.56985.09023-.85647.10782-.31515.01935-.6324.00441-.94874.00441Z"/>
  <path class="cls-4" d="M6.92141,62.08541c.94728.0143,1.79837.10462,2.64742.21011,1.07003.13294,2.13515.3004,3.19774.48442.57427.09945.69712.29449.49517.84625-.0573.15654-.12822.30977-.20872.4558-.15626.28345-.40266.39789-.72407.35868-.83061-.10134-1.66089-.20571-2.49238-.29922-.61907-.06962-1.23983-.12438-1.85987-.18535-.80517-.07916-1.61078-.15403-2.41539-.23849-.39842-.04182-.56868-.28555-.48761-.67958.05159-.25077.17115-.47099.3289-.67045.09807-.12401.23989-.17016.38694-.20408.40313-.09299.81329-.07621,1.13188-.07811Z"/>
  <path class="cls-5" d="M48.35584,57.48342c-.40305-.05445-.72806-.25962-.99891-.55171-.10473-.11294-.07901-.25859-.01709-.39381.05137-.11218.13232-.20186.21582-.28916,1.10542-1.15582,2.22601-2.29649,3.42255-3.35923.4587-.40741.9267-.80502,1.44375-1.13929.08578-.05546.1785-.1004.26298-.15761.4833-.32728.95759-.06389,1.23883.20002.2652.24886.26621.52299.00122.77233-.61603.57965-1.23755,1.15365-1.86494,1.72098-.75855.68593-1.5116,1.37759-2.25038,2.08476-.3089.29568-.61974.58936-.9306.88298-.14558.13751-.30456.2467-.52322.22974Z"/>
  <path class="cls-2" d="M49.06979,91.70078c.17954-.00531.32016.08249.45449.18747.47649.37242.94924.74978,1.43135,1.1148,1.25364.94916,2.51162,1.89259,3.76739,2.83895.08162.06152.16424.12317.23762.19387.1738.16744.20378.34019.10604.55663-.20384.45141-.74557.68038-1.20625.50558-.40305-.15293-.76316-.38572-1.11931-.62267-1.13277-.7536-2.18959-1.60701-3.2338-2.47632-.40026-.33321-.79839-.66936-1.18794-1.01492-.38671-.34303-.37808-.57386.02062-.91196.11315-.09595.23784-.17884.36067-.26268.11034-.07531.23625-.10705.36912-.10874Z"/>
  <path class="cls-4" d="M16.06105,57.86891c-.23702.0088-.38688-.09857-.52891-.22377-.35588-.31372-.71221-.62694-1.06806-.9407-1.2282-1.08295-2.49752-2.11757-3.7416-3.18186-.11304-.0967-.2279-.19195-.33404-.29591-.21416-.20978-.23211-.42828-.06406-.67509.27375-.40204.78608-.54972,1.22497-.34167.35442.16801.67345.39524.98676.62906,1.09798.8194,2.10883,1.74042,3.10836,2.67415.37385.34924.7388.708,1.10746,1.06278.04692.04516.09413.09041.13711.13922.2399.27241.2303.47593-.03788.72074-.1518.13858-.32175.25326-.50519.34594-.09966.05035-.20271.09629-.28493.08711Z"/>
  <path class="cls-1" d="M11.07098,97.20024c-.41749-.00853-.87215-.3537-.96365-.66066-.05946-.19948-.00998-.36907.14877-.50119.17155-.14276.34647-.28168.52355-.41754,1.60173-1.22886,3.21192-2.44687,4.77421-3.72626.05748-.04707.11922-.08901.17974-.13227.20178-.14425.41617-.14894.63331-.04487.22009.10548.41269.25196.57949.42986.22753.24267.22417.43299-.00661.68052-.02537.02721-.05137.05406-.07915.07875-1.35645,1.20513-2.73172,2.38743-4.21348,3.4389-.36411.25837-.73748.50386-1.14204.69637-.16767.07978-.33706.15945-.43414.1584Z"/>
  <path class="cls-5" d="M52.44343,65.79111c1.27583.06739,2.59427.13771,3.90072.3437.39477.06224.78732.13865,1.16419.27764.44637.16463.73074.67991.63077,1.1405-.03745.17253-.12955.2526-.30909.25931-.31794.01187-.63125-.04535-.94461-.08173-1.13582-.13184-2.26945-.28236-3.4093-.3782-.38912-.03272-.77763-.07255-1.16644-.10885-.24136-.02254-.42391-.13255-.52425-.35876-.11397-.25694-.19925-.52199-.18718-.8077.00807-.19107.08104-.27202.27155-.28363.17624-.01074.35364-.00229.57364-.00229Z"/>
  <path class="cls-1" d="M13.94313,82.57325c.00668.39761-.10874.51951-.44337.47068-1.4898-.21736-2.97833-.44306-4.42603-.87423-.29457-.08773-.58334-.19027-.85321-.33933-.3625-.20023-.56983-.81403-.40504-1.19307.07886-.18138.19841-.23628.43794-.18553.40909.08667.81826.17367,1.22495.27077,1.26525.30209,2.53663.57624,3.81443.81856.33079.06273.51226.23872.57983.55171.03719.17226.07836.34505.0705.48045Z"/>
  <path class="cls-4" d="M12.99491,66.34702c.04647,0,.09309-.00242.13939.00042.2019.01237.29411.09038.30491.2876.01705.31149-.04959.61145-.18059.89263-.07955.17076-.22962.25825-.41843.28747-.65148.10082-1.30321.20057-1.95303.31137-1.04361.17794-2.0858.36421-3.12853.54729-.43464.07631-.6143-.08317-.56821-.5242.04429-.42389.2133-.75307.65429-.91281.51818-.18771,1.04943-.31759,1.58762-.41917,1.13262-.21377,2.27717-.34452,3.42335-.4604.04596-.00465.0928-.00059.13924-.00059v-.00961Z"/>
  <path class="cls-2" d="M51.09167,82.57613c.00199-.14912.02453-.29479.05255-.44169.06339-.33228.25092-.51798.5858-.58221.50133-.09615,1.00051-.20487,1.49794-.31977,1.15798-.26749,2.31771-.52878,3.46929-.82179.32435-.08253.52421.07301.54108.42684.02472.51828-.15051.82028-.62461,1.03858-.63672.29317-1.31503.45657-1.99376.61439-.98629.22934-1.9841.39888-2.98351.55907-.00918.00147-.01847.00223-.0277.00339-.43701.05479-.53428-.03488-.51709-.4768Z"/>
</svg>