<?xml version="1.0" encoding="UTF-8"?>
<svg id="Capa_1" data-name="Capa 1" xmlns="http://www.w3.org/2000/svg" viewBox="0 0 150 150">
  <path d="M55.39533,56.86802c1.15799,1.41848,2.25245,2.90728,3.06933,4.56472-1.87377,1.0119-4.08169,2.31901-5.24947,4.16551-.43222.68342-.62825,1.58414-.99865,2.28837-3.15088,5.99065-10.12379,8.62674-16.41392,5.78737-1.30804-.59045-2.3193-1.52498-3.62408-2.09247-8.00774-3.48283-16.90458,2.46013-16.87156,11.14206.01597,4.19807,3.02013,6.87524,2.72539,11.28849-.03859.57785-.70331,4.20277-1.21177,4.20466-7.99242-5.72738-12.16877-14.80135-11.79786-24.64584.97215-25.80198,33.91607-36.86125,50.37259-16.70287Z"/>
  <path d="M62.19427,76.36402c-2.5372-.7771-4.94105-.7976-7.33265.45587-4.37117,2.291-3.45916,7.42477-9.38084,8.91212-3.59648.90333-5.11287-.11785-8.05677-1.67465-7.10826-3.75902-15.08713,3.05614-12.35442,10.49654.78495,2.13719,1.5483,2.88836,1.39519,5.46103-.02906.48831-.2245,2.302-.78354,2.36324-.51181.05607-4.95852-1.77257-5.15745-2.14632.38901-1.28769.92526-2.49325,1.1845-3.83014.55328-2.85328.36215-5.71293-.60384-8.45828-.45083-1.28124-1.28845-2.44574-1.46103-3.82678-.71389-5.71288,3.75813-10.11698,9.45168-9.45168,2.12811.24867,3.42488,1.62938,5.20145,2.51589,7.18457,3.58513,15.99407,1.32023,20.52537-5.25974,1.4851-2.15654,1.81156-4.27039,4.2414-5.76255.56649-.34788,1.40169-1.06676,1.77409-.22627.31804.71781.72912,2.43746.89263,3.25133.47572,2.36792.52238,4.76923.46423,7.18038Z"/>
  <path d="M61.73667,79.54229c.38565.35302-.73527,4.07535-.96549,4.75923-1.54452,4.58803-4.82863,9.51021-8.57761,12.57361-.40527.33116-1.47489,1.24569-1.86519,1.4239-.20732.09467-.35964.13526-.56739.00513-.12518-.07841-.97981-1.15918-1.28366-1.43353-3.07182-2.77354-8.12732-5.34913-12.24656-3.52479-3.96103,1.75428-4.1355,6.56278-2.90485,10.17135-1.58552.06201-3.16538-.02358-4.69867-.44482.29992-1.68481.55871-3.32311.40964-5.05426-.28199-3.27477-2.66937-4.81293-1.28715-8.43714,1.0453-2.74081,4.06477-4.2259,6.89812-3.60503,1.42747.3128,2.53335,1.41414,3.86903,1.99052,4.84534,2.09086,10.39318.7169,13.74737-3.31119,1.42334-1.70931,1.7292-3.85264,3.8012-5.05945,1.13539-.66129,2.75289-.82503,4.0449-.64642.21228.02935,1.52298.49833,1.6263.5929Z"/>
  <path d="M103.21127,88.36927h-4.71615l-1.4209-7.3683c-2.0912-.09351-4.25384-.13078-6.3128.01934l-1.26987,7.34895h-4.71615l6.21129-31.87924,6.29984.14622,5.92475,31.73302ZM91.49235,77.222h4.78761c.05209,0,.23946-.20836.18793-.3235l-2.32681-12.82939-.3607-.70971-2.28804,13.8626Z"/>
  <path d="M144.94207,82.00961c-.77467,9.0629-15.4243,8.94132-16.43367.28442.3504-6.3801-.47072-13.26323-.00754-19.58392.67898-9.26554,16.44122-8.23557,16.44122.14905v5.00198c0,.01516-.19921.21437-.21437.21437h-4.1445c-.01516,0-.21437-.19921-.21437-.21437v-4.00158c0-.14633-.18184-1.13659-.23815-1.3339-.77208-2.70541-5.42165-2.98873-6.50725-.40952-.21333.50683-.31322,1.18965-.40545,1.73826.31952,5.59258-.40705,11.62051-.00092,17.1609.06888.93969.3163,2.03892,1.00071,2.71505,1.41794,1.40077,4.78655,1.15654,5.70437-.7383.16585-.3424.4467-1.36607.4467-1.69701v-5.93092h4.57324c-.13507,2.15316.18189,4.51756,0,6.64549Z"/>
  <path d="M72.34191,84.36769h10.64707c.01516,0,.21437.19921.21437.21437v3.57284c0,.01516-.19921.21437-.21437.21437h-15.79196v-4.21595l10.65728-23.36092c.12504-.08805-.1354-.2913-.15312-.2913h-10.36124v-4.00158h15.36322c.01516,0,.21437.19921.21437.21437v3.85867l-10.57561,23.79513Z"/>
  <path d="M118.50304,56.49951v4.00158h-8.07462c-.01516,0-.21437.19921-.21437.21437v9.36085c.1403-.04641.31003.14291.35728.14291h6.7884v3.85867h-7.14569v14.29137h-4.6447c-.01516,0-.21437-.19921-.21437-.21437v-31.44102c0-.01516.19921-.21437.21437-.21437h12.93369Z"/>
  <path d="M125.64872,88.36927h-4.85907v-31.86976h4.6447c.01516,0,.21437.19921.21437.21437v31.65539Z"/>
  <path d="M35.92668,103.49002c-3.25048-6.2867,2.9509-10.45179,8.19311-6.12052.54416.4496,2.41472,2.37725,2.19721,3.05182-.09673.30001-3.40531,1.58646-3.95658,1.76951-2.05503.68234-4.27948,1.0907-6.43374,1.29919Z"/>
  <path d="M94.63645,101.58879c-.06364.20773-.63539.28997-.71393.21487-.05466-.05227.03923-1.06128-.00209-1.28601l-.70624,1.07808c-1.04179.92707-2.07214.25065-2.63682-.80692-.99258-1.85899-1.0005-5.75328.42633-7.40601,1.03443-1.1982,2.42728-.50998,2.77706.84488.33962-.17021-.00002-.8406.20906-1.14579.20119-.29367.64664-.0669.64664.07498v8.43191ZM92.02604,93.96755c-1.85576.38407-1.94691,5.66102-.23871,6.75661,1.16172.7451,2.00498-1.37139,2.11864-2.29537.14273-1.16023-.06664-4.83653-1.87993-4.46124Z"/>
  <path d="M142.79837,101.80316c-.90159.18749-.49716-.45919-.57308-1.14327-.81132.94247-1.55118,2.04846-2.84677.9189-1.05328-.91831-1.40238-3.65544-1.27902-4.97458.19457-2.08064,1.75872-5.71412,3.80829-2.70505.51907.76206.23671-.87062.31965-.95595.08345-.08586.57093.06288.57093.21367v8.64628ZM140.18585,93.97166c-1.74597.39984-1.79906,5.4689-.38304,6.61022,1.48019,1.19304,2.30556-1.45712,2.40595-2.58279.10418-1.16818-.32669-4.41588-2.02291-4.02744Z"/>
  <path d="M104.59946,92.82933c1.98516-.45125,2.70915,2.762,2.76149,4.17972.05913,1.60195-.80513,6.4488-3.28684,4.7172-1.97783-1.38002-1.91453-8.34231.52535-8.89692ZM104.74576,93.96799c-1.72194.35254-1.94755,5.65104-.24079,6.75473,1.24678.80624,2.01824-1.47189,2.11875-2.43854.1171-1.12625-.11115-4.67791-1.87796-4.31618Z"/>
  <path d="M81.73238,92.83067c2.55346-.58812,2.90293,3.9608,2.75491,5.61176-.10551,1.17678-.85542,3.66632-2.35875,3.63136-2.21686-.05155-2.36431-4.51523-2.21086-6.05728.08958-.90018.8457-2.96266,1.8147-3.18584ZM81.8775,93.96743c-1.71177.49836-1.77686,5.48987-.38348,6.61445,1.67556,1.35232,2.4584-2.10455,2.4338-3.28171-.02027-.9698-.64085-3.74308-2.05032-3.33274Z"/>
  <path d="M73.05648,101.80316v-6.50257c0-.04946-.31201-.82539-.36821-.9181-.54249-.89505-1.36403-.37069-1.73996.38213-.06797.13612-.46428,1.18384-.46428,1.25054v5.78801h-.71457v-8.64628c0-.14192.44557-.36862.64664-.07502.19401.28329-.11664.88756.20899,1.00285.50588-1.53039,2.06214-1.85256,2.72246-.21851.53502,1.32399.60961,5.95308.43038,7.44365-.06328.52627-.19529.52448-.72146.49331Z"/>
  <path d="M111.50027,101.80316v-6.35966c0-.05616-.30664-.95654-.36806-1.06117-.50378-.85807-1.28245-.41709-1.68688.29246-1.04073,1.82588-.26751,4.83974-.53771,6.89379-.09729.29937-.42756.24156-.69436.23458v-8.64628c0-.14192.44557-.36862.64664-.07502.19404.28334-.1167.88766.20906,1.00291.51416-1.53596,2.00962-1.88823,2.68451-.18069.53189,1.34573.64877,5.90459.46826,7.40577-.06328.52627-.19529.52448-.72146.49331Z"/>
  <path d="M78.20137,101.80316v-6.35966c0-.05616-.30664-.95654-.36806-1.06117-.50378-.85807-1.28245-.41709-1.68688.29246-1.04073,1.82588-.26751,4.83974-.53771,6.89379-.09729.29937-.42756.24156-.69436.23458v-8.64628c0-.14192.44557-.36862.64664-.07502.19401.28329-.11664.88757.20899,1.00285.61308-1.69501,2.20291-1.79735,2.78736.00242.43094,1.32706.53774,5.79021.36548,7.22272-.06328.52627-.19529.52448-.72146.49331Z"/>
  <path d="M131.22236,98.87343c.10309.94407.93841,2.86576,2.00214,1.676.20801-.23265.5703-1.1118.5703-1.39017v-6.00238c0-.26909.71457-.26909.71457,0v6.00238c0,.3567-.43254,1.72903-.6498,2.06556-1.22148,1.89192-2.90904.30604-3.17447-1.38538-.05505-.35082-.17731-1.39726-.17731-1.68057v-5.00198c0-.26909.71457-.26909.71457,0,0,1.74856-.18227,4.04734,0,5.71655Z"/>
  <path d="M121.64714,99.15926c.12273.91808,1.0739,2.4271,2.00748,1.39616.13991-.1545.56496-1.23676.56496-1.39616v-6.00238c0-.26909.71457-.26909.71457,0v5.71655c0,.49444-.44606,1.96868-.73791,2.40619-1.04701,1.56961-2.57186.51721-2.9694-.9855-.09339-.35303-.29428-1.40068-.29428-1.70652v-5.43072c0-.21812.58673-.33133.71457,0,.18031,1.87368-.24283,4.18595,0,6.00238Z"/>
  <path d="M119.36253,95.22882c-.01943-.01727-.00166-.31166-.13869-.50108-1.21685-1.68204-2.6537-.36748-2.94503,1.2069-.22846,1.2346-.11625,5.00094,1.72407,4.99975.93815-.00061,1.24831-1.26731,1.57353-1.41706.1951-.08983.45493.44745.46606.5261.05208.36793-.71613,1.38773-1.03841,1.61775-1.99933,1.42702-3.33459-1.40949-3.50082-3.07497-.18206-1.82414.28652-6.6146,3.15077-5.72261.4831.15045,1.42626,1.39191,1.4173,1.86876-.00615.32713-.53811.64816-.70879.49646Z"/>
  <path d="M99.91215,99.53015c.02601.01075.30759.44223.30425.4736-.05112.4807-.74284,1.45276-1.15634,1.72114-1.9808,1.2856-3.22271-1.57854-3.40775-3.15274-.21186-1.80231.22603-6.05939,2.7737-5.77651.81103.09005,2.1109,1.6271,1.65002,2.22479-.49527.64228-.7401-.68957-1.3548-.9455-2.21249-.92115-2.50984,2.83108-2.36808,4.22513.13118,1.28998,1.14848,3.49928,2.64377,2.21848.29914-.25623.59062-1.12254.91524-.9884Z"/>
  <path d="M85.61984,92.95713c.24515.17187,1.20544,5.12254,1.30067,5.84483l.36015-.42447,1.17881-5.10937c.14225-.38251.5189-.4769.7293-.09962l-1.9859,8.49123c-.37682.04417-.22493-.00796-.28609-.2096-.81126-2.67463-1.14204-5.6331-1.99457-8.29472.11512-.21784.54625-.30441.69763-.19828Z"/>
  <path d="M129.07865,92.94251c.16512.15172,1.16749-.37239.85813,1.14393l-.85813-.00062v7.50297c0,.18762-.52767.26115-.71457.21437v-7.50297c0-.28835-.82755.02046-.86991-.71331-.05606-.97111.86991-.57803.86991-.64437v-3.21556c0-.26909.71457-.26909.71457,0,0,.43885-.11839,3.10678,0,3.21556Z"/>
  <path d="M68.62615,101.80316h-.71457v-11.64747c0-.26909.71457-.26909.71457,0v11.64747Z"/>
  <path d="M136.22434,101.80316c-.34263.02273-.68257.04909-.71467-.35718l.00081-8.14547c.31695-.79528.77899-.19015.78466.35592.22796-.67127,1.50758-1.40844,1.50951-.36115.00186,1.00578-.61377.40936-.99482.87639-.11004.13487-.58549,1.57071-.58549,1.70059v5.93092Z"/>
  <path d="M144.37042,101.80316c-.02058.01984-.57165.02858-.57165,0v-12.07621c0-.24613.57165-.24641.57165,0v12.07621Z"/>
  <path d="M126.64912,101.80316c-.02058.01984-.57165.02858-.57165,0v-12.07621c0-.24613.57165-.24641.57165,0v12.07621Z"/>
  <path d="M101.06757,93.15688c.09658-.33761.71457-.2138.71457,0v8.43191c0,.26909-.71457.26909-.71457,0v-8.43191Z"/>
  <path d="M106.21174,88.94168l-1.06741,2.43245c-.09938.15509-.59209.18894-.64616.13845-.09717-.09074.6273-2.47029.7278-2.55732.10378-.08988.76701.0293.98577-.01358Z"/>
  <path d="M101.62114,91.35013c-.80138.44854-.9986-1.98884-.19629-1.9891.68597-.00023.59229,1.76745.19629,1.9891Z"/>
</svg>