<?xml version="1.0" encoding="UTF-8"?>
<svg id="Capa_1" data-name="Capa 1" xmlns="http://www.w3.org/2000/svg" viewBox="0 0 150 150">
  <defs>
    <style>
      .cls-1 {
        fill: #1d1d1b;
      }
    </style>
  </defs>
  <path class="cls-1" d="M32.62142,24.75423c-.04122.97087.03104,1.95701,0,2.92885.15655.38028.35702,1.27321.35349,1.65088-.00219.24345-.17986.39059-.1812.41654-.01211.22781.01994.46264,0,.68914l.34398-.00139c-.14065.75535.30537,1.36709.34516,2.06881.00639.11361-.01211.23214,0,.34457.51618,1.11085.85789,2.27331,1.206,3.4457.01565.05275-.01531.11925,0,.17229.43534-.08093.68636,1.09348.86143,1.55057.01918.05005-.01918.12223,0,.17229.47673-.02557.79354,1.14135,1.03371,1.55057,1.01907,1.73627,2.81839,3.8476,4.21855,5.34324,4.94302,5.28006,11.37166,9.46003,17.14346,13.78373.27508.33502-.9294.66235-1.21146.76544-1.80824.66113-3.48465.91518-5.4184.77999-.48161-.03365-3.2375-.63989-3.36149-.51421-.21452,1.38354,3.00245,1.59423,4.07116,1.69968,2.15239.21241,3.29335.14347,5.3225-.49061.47622-.14881,1.97539-.86475,2.23744-.85764.20375.00551,3.26223,2.14805,3.34223,2.33557.05392.12623.08253.37616-.09119.42781-2.03823,1.2759-4.3613,2.44097-6.32121,3.8084-1.67103,1.16599-4.59904,4.60051-4.932,6.6106-.1134.68472-.04913,1.94649.76855,1.1135.23184-.23622.29956-.90925.47294-1.24978,2.0702-4.06561,6.66377-6.95811,10.68555-8.95517,1.73564-.86185,1.51296-.25128,2.89797.44766.41523.20955,1.47048.4851,1.70258.70941.2914.28152.4191,1.23199.7429,1.58375.31555.3428,1.08629.41284,1.28793.60838.13426.13022.6369,1.0907.81987,1.32739.99173,1.28221,1.55805.98572.9495,2.86319-.88262,2.72308-2.82807,3.62854-3.98216,5.49626-.17119.2771-.10894.60741-.19996.74365-.06654.09977-.65944.25313-.8822.41157-.91215.6488-1.66851,1.41736-2.3521,2.29897,1.12944.26596.33893.33389.10246.61137-.97348,1.14236-2.12892,2.50272-1.99836,4.12567.2967-.03226.84468-1.56735,1.20515-1.20511.12072.12131-.72708,1.33008-.86058,1.54968-.04038.06637.04063.30718,0,.34457.04139.36606.02154.38554-.34457.34457-.0196.16501.00522.34756,0,.51686-.01598.51509.0111,1.03514,0,1.55057.04231.21552.13645.37919.17229.68914l1.206-1.89514c.35307-1.00246.56018-1.7438,1.37828-2.58428.00782-.34226.16808-.53696.51686-.51686.26255-.64031.44232-.91543,1.03371-1.37828-.04829-.30255.03659-.40745.34457-.34457.19752-.59404.13392-.23113.58062-.53923.15445-.10646.21603-.27412.2808-.32219.02044-.40198.28123-.66765.68914-.68914.17195-.21645.21813-.3802.51686-.51686l.51686-.34457c.10389-.12211.22537-.23727.34457-.34457.02044-.40198.28123-.66765.68914-.68914.20593-.33124.16135-.39475.51686-.68914.74281-1.41391,1.40108-2.90113,1.72285-4.47941.13662-.67025.0975-1.12334.17229-1.72285l-.17136-1.54994c1.24781.25582,2.54634.25481,3.78842,0l-.17136,1.37765c.42331,2.03491.28434,3.30972,1.34917,5.28376,1.28339,2.37897,2.98386,3.16019,4.68577,4.9622,1.80184,1.9078,3.60276,4.55832,4.13181,7.15379.38722-.18743.49103-.90727.52325-1.28137.10675-1.23952-.34802-1.88054-.52342-3.02471l.51332.34453c.00101-1.82725-1.3586-3.63523-2.75328-4.65359l.51694-.17107c.47-.4183-2.6716-2.8732-3.27401-2.75778l.34213-.42646c-1.16284-1.2497-2.92178-2.76077-3.5713-4.35659-.142-.34865-.13064-.62546-.21754-.90042-.30915.1921-.61856-.74243-.6639-1.00187-.06907-.39513.12602-.43736.14705-.5487.04122-.21805-.06292-.39096.09716-.68001.03685-.06654.94706-.88649,1.10883-1.04284.09699-.3579.25952-.87833.68914-.86143.0318-.11933-.0673-.40569.01817-.49204.09085-.09182.35525.00206.49868-.02482-.05796-.33098.01523-.40043.34457-.34457.55278-.50882.6046-.30491,1.03371-1.206.05333-.11201-.07983-.33982.17001-.60001.24429-.25447.73246-.30066,1.03598-.4337.5034-.2207,1.00418-.39833,1.49908-.65419.2559-.13233.49734-.47732.69108-.52838.37965-.10011,3.78901,1.88176,4.40976,2.24938,2.8835,1.70779,5.49722,3.25954,7.21192,6.22624.45452.78635.57835,1.97939,1.43279,2.35399.95901-.19601-.72624-3.38568-.97853-3.84197-.90862-1.64361-1.7666-2.67559-3.28789-3.7758-1.84374-1.3334-4.91879-2.64295-6.48458-4.02472-.19315-.17048-.42726-.26183-.35761-.58542.95632-.25876,2.32602-1.95074,3.19888-2.07209.9135-.12703,3.62556,1.25454,5.01267,1.31405,1.26741.05443,3.67452-.1881,4.92392-.49448.58651-.14385,2.34932-.60384,1.76407-1.33723-2.11024.36367-4.1923.91775-6.32904.4753-.51341-.10629-2.93213-.81978-3.28309-1.02395-.1611-.09376-.34373-.15567-.29157-.39454,7.67258-5.87721,16.89488-11.61818,21.88105-20.15807.48724-.83451,1.06963-2.5934,1.54897-3.18887-.05031-.35302-.00866-.39353.34457-.34457.04189-.18865.13569-.99619.17229-1.03371-.04501-.36169-.01725-.38865.34457-.34457.01985-.16749-.00892-.34697,0-.51686.00984-.18848-.05434-.43315.17229-.51686-.01136-.10835-.00513-.23433,0-.34457.01287-.27786.13207-.66184.34457-.86143-.0058-.11706-.01842-.49595,0-.51686-.00715-.40758-.11609-.59732.34457-.51686.02086-.28345-.00623-.57629,0-.86143.00681-.30886-.20728-1.02231.17229-1.37828-.00387-.17216.00286-.3447,0-.51686-.03281-1.96492-.10339-3.97513-.17229-5.85769-.00841-.22869-.00067-.46011,0-.68914-.56253.17123-.33288-.85667-.34457-1.37828-.01279-.57116-.00791-1.15153,0-1.72285v-.18633c-.00076-.12211-.0021-.2551,0-.33052.00799-.2864-.01338-.57557,0-.86143-.25532-.30449-.3211-.82151-.34457-1.206-.00698-.11395.00976-.23121,0-.34457l-.68914-2.06742c-.25725-.1645-.1208-.2265-.17229-.34457-.3153.06221-.39605-.0331-.34457-.34457-1.27902-1.02042-1.5732-1.74657-3.56146-1.82914-2.48047-.10305-1.79141-.14738-3.93017-.93015-4.60535-1.68558-7.98324-1.77888-12.70224-.46453-2.89276.80569-7.2459,2.3444-9.59648,4.18633-.44914.35197-2.18864,2.33338-2.4808,2.28804-.81305-.56115-1.51927-1.24053-2.30389-1.84037-.4732-.36173-1.33546-.67812-1.67835-1.07825-.42129-.49174-.66626-1.64966-.98475-2.28867-.35366-.70958-2.33897-4.54524-3.13916-4.40538-1.07729.18827-3.57567,5.53912-3.99452,6.6983l-4.10187,2.91909c-2.30036-2.65507-5.04338-4.11293-8.29122-5.3257-4.01051-1.49753-7.46496-2.30865-11.80456-2.06439.09699.55883-.28425.29107-.60232.33776-.54394.07988-1.2097.11782-1.63738.1791-.10911.0156-.23193-.00715-.34457,0,.12677.55656-.40573.30024-.86143.34457-.7164.29885-1.10875.52422-1.89514.68914.04114.36636.02137.38566-.34457.34457-.03256.03579-.24825-.03037-.34457,0,.1065.51303-.49414.45153-.86143.51686-.0546.00972-.11575-.00416-.17229,0-.79.05826-1.75322-.06158-2.58428,0-.11374.00841-.231-.0093-.34457,0l-1.55469,1.28802c-1.00561,1.05882-1.90658,3.47817-2.0633,4.91425-.0244.22373.00883.46239,0,.68914-.04425,1.13685.13771,2.04008-.00909,3.18757-.04105.32152.22099.69898-.33548.6027-.00665.22928.00976.4602,0,.68914-.03289.77406-.13965,1.81526-.17229,2.58428ZM86.89039,84.88346c.11685.05981-.10086.29258-.34289.16879-.11685-.05977.10086-.29258.34289-.16879ZM82.03048,17.38063c.19508.33607-.54226,2.29426-.78109,2.67374-.11096.17641.00976.30335-.3873.21956-.1044-1.37887-.48186-2.79442-.86143-4.13303.16017-.1513,1.96933,1.13537,2.02982,1.23973ZM78.08534,52.55871c.71926-4.33312,2.67202-9.84111,3.09962-14.47342.19576-2.12151-.72086-3.21567-.67021-4.79677.12509-3.9072,1.71688-11.92031,3.71986-15.23962.24429-.40489,2.17073-3.23842,2.65578-2.76939l-1.37559,8.52904c-.27803,5.1312-.77856,10.26653-.86387,15.41826.23134-.0355.56161.06166.75585.00984.06427-.01716.50617-1.06765.54975-1.21277.17035-.56737.01741-.2861.29654-.90622,1.98069-4.39941,3.78337-8.84686,5.95351-13.16416,1.97657-3.93223,6.33939-13.46062,11.81036-12.79646.21603.0262,2.59647.74214,2.68733.8499.36283.43025-.92233,1.02993-1.20827,1.28831-2.06414,1.86527-4.59643,5.34307-4.95412,8.13967-.09531.74533-.26406,2.92292.90273,2.81406.70083-.06541.80675-2.24719,1.04263-2.93625,1.04414-3.0507,5.72781-7.79426,9.13178-7.72789,1.58699.03092,2.22507,2.36488,2.32719,3.6688.34078,4.35188-.26028,8.47066-4.82886,10.00002-.49372.1653-2.26528.18221-1.47704,1.30303.45755.65065,3.85967-.14995,4.66524-.52682.29788-.13931,1.69265-1.14913,1.80605-1.03485-.42752,2.73864-1.01941,5.566-2.13926,8.11574-3.92874,8.94516-15.68476,17.01307-23.29668,22.95703-.50154.3916-3.90241,3.66333-4.36778,3.21163-.01691-.87144-.6385-2.28467-1.26656-2.86958-1.33681-1.24494-3.90779-1.20911-4.9781-2.86041-.74247-1.14538-.18255-1.75772.02212-2.99072ZM77.07956,57.58312c.0445-.19836.062-.3195.25245-.43841.22234-.04791.69915.55345.99779.72153.95834.5394,3.03863,1.17937,3.64398,2.04143.73112,1.04124.55808,3.04103-.86403,3.25621-.44375.06717-2.16652.21994-2.5709.19374-.62849-.04076-.99872-.42512-1.36608-.8886-1.32276-1.66876-.50802-3.03547-.09321-4.8859ZM72.93555,57.14261c.03247.0318-.02229.6655.04088.90757.22293.8536.68022,1.48024.66214,2.4522-.02053,1.10042-.66676,2.34356-1.69324,2.80123-.93209.4157-1.00301-.07781-1.69946-.12589-.83821-.05788-1.97118.53288-2.47424-.78332-1.12255-2.93646,1.96008-3.48663,3.761-4.50187.33464-.18865,1.0613-1.08452,1.40293-.74992ZM67.92893,17.46484c.02532-.12248,1.90994-1.4897,2.07752-1.32398-.39109,1.26799-.56968,2.58554-.86328,3.87679-.04669.2056-.05207.54441-.33944.2567-.10398-.10406-.91013-2.63883-.8748-2.80952ZM36.83559,14.58255c.82214-1.15014,1.64554-1.10294,2.88401-.80304,3.33188.80691,7.05477,4.77498,7.98223,8.04045.19079.6719.08253,2.52404,1.01966,2.42541.97869-.10301.85882-1.79654.79118-2.51332-.24438-2.5889-2.73116-6.39499-4.657-8.09227-.18482-.28526-1.8487-1.12511-1.72344-1.37391.20181-.40093,2.97301-1.16208,3.52511-1.13066,4.55723.2594,7.78454,6.48311,9.66117,9.99308,3.12132,5.83801,5.77197,11.99914,8.35852,18.08943.52569.09081.65238-.10057.69444-.59295-.3513-2.50516-.2204-5.06908-.36224-7.58038-.27845-4.93053-.82853-9.66265-1.56495-14.45756-.06949-.45221-.35988-.83476-.32749-1.30745,1.32924.47362,2.31542,2.13506,2.95745,3.32919,2.1433,3.98645,2.71694,9.63741,3.28275,14.11737.03752.29654.28821.60329.30091.9177.01926.47484-.61772,1.72659-.69057,2.56131-.52762,6.04807,3.01701,12.50813,3.36284,18.332.14175,2.38646-4.2755,2.7362-5.60759,4.06001-.57212.56863-.85242,1.91175-1.02454,2.68106l-.39849-.02717-16.31341-12.97733c-6.12605-5.56238-12.80277-12.26471-12.9181-21.10648.92889.37321,1.80639,1.00414,2.78617,1.26072.7074.18524,2.99606.47993,3.54842.08101.27281-.19698.16917-.90824-.133-1.08561-.23824-.13981-1.56958-.27294-2.11487-.46819-1.49875-.53667-2.84186-1.81072-3.43342-3.2857-.79556-1.98355-1.13289-7.34222.11424-9.08674Z"/>
  <path class="cls-1" d="M15.56519,116.4099c-.04694-.02082-.12131.01971-.17229,0-.12484-.04835-.30242.02755-.4366-.16717-.11584-.16816-.06006-.35094-.08025-.52197-.01321-.11167.00538-.23121,0-.34457-.52014.0962-.33363-.26356-.34465-.5952-.03037-.91865-.04921-1.63908.17237-2.50594.04055-.15847.11407-.22844.17229-.34457.03542-.07066-.10406-.315.10743-.35227,1.45652.01296,2.91682.0077,4.37199.0077h1.03371c2.54289-.92864,4.93032-1.2672,6.05967-4.19129,1.98019-5.12716-1.13054-9.80036-6.49308-10.27793-3.9528-.35206-8.39133.25241-12.39696.00219-.42323.06393-.61208.35954-.62546.77533-.00151.04686.50062.73785.53444.77032.02902.0278.28274.01544.43197.16265.37258.36737.92628.75657.95531,1.29277l.0053,15.52652c.06183.34104-.34154.22604-.35887.24657-.04307.05089-.00833.30238-.17043.43004-.12795.1008-.30394.05662-.34642.08682-.07765.52657-.62403.90292-1.03371,1.206-.01817.16682.02339.35361,0,.51686l.17229.34457c.05611.00656.11525-.00273.17229,0,2.91312.13986,5.86972-.10381,8.78654,0,.04307-.03148.19693-.06751.34457-.17229-.04139-.36611-.02154-.38596.34457-.34457.01077-.10107.01396-.24585,0-.34457-.41919-.13847-1.13331-.70693-1.206-1.206ZM14.60846,100.55147c.10128-.79711.48178-1.02706,1.25639-1.15657,2.16601-.36211,4.09017.43286,4.67803,2.64775.55345,2.08519.43685,5.54322-1.54367,6.86112-.79354.52804-2.56703.61734-3.48322.4055-1.20717-.2791-.75223-2.16545-.81398-3.14856-.11298-1.79671-.32329-3.80083-.09355-5.60923Z"/>
  <path class="cls-1" d="M101.79624,141.90572c-.96002-1.28181.59517-7.85119-1.04355-10.32724-1.25167-1.89118-5.32359-2.24709-7.12703-1.11203-.51702.32539-1.04229,1.40577-1.47132,1.28326-.07083-.02023-.5495-.78041-1.00889-1.07329-1.53349-.97754-4.59803-1.21437-6.14203-.21796-.35618.22987-.36089.81066-.86782.76708.0074-1.02181.23344-1.42787-.95093-1.38936-.71126.02311-3.64163.8258-4.43971,1.08944-.21897.07235-.23807.26106-.29569.3008v.51686c.26785.27893.36325.30272.59038.52098.10128.09744.0657.30341.09876.34045.01943.02177.23656-.05092.30629.03047.2771.32335-.14208,7.44712.05317,8.51034.05611.33069-.34457.22421-.35946.24572-.03113.04496.03786.32034-.09893.50348-.13376.17897-.40447.46985-.59021.70252v.51686c.22873.09369.248.16042.58264.18476,1.43019.104,4.3343.1543,5.71418-.0041,1.47183-.16898-.45553-1.40882-.60031-2.34532-.21956-1.42017-.13914-6.61274.417-7.82989.94479-2.06801,3.09937-1.58062,3.36637.60081.14932,1.2203.20072,6.65851-.00808,7.75319-.04257.22345-1.70014,1.81284-.77141,1.81284h6.54683c.15378,0,.29595-.339.23227-.5736-.11836-.43572-.89499-.5932-1.01142-1.57614-.16833-1.42135-.19609-6.20901.01497-7.57329.24059-1.55475,2.40551-2.49841,3.24347-1.02595.15512.27269.51223,1.9062.52426,2.24726.01758.50194-.19626.96408-.1717,1.52413.06553,1.49727.59349,4.23022-.19037,5.48418-.19744.31576-.74113.67982-.80632.91981-.06368.23458.0784.5736.23227.5736h6.54683c.10431,0,.257-.28165.27121-.43303.05586-.59698-.50718-.57574-.78571-.94763Z"/>
  <path class="cls-1" d="M32.53502,138.979c-6.97982,5.15406-12.748-5.44597-7.91123-11.09775,1.83036-2.13888,4.9161-2.6068,7.13805-.70538,1.1996,1.02664,2.59782,4.91132,4.12307,2.94651-.58903-1.44285-.42827-4.41068-1.06139-5.66333-.52804-1.04477-1.13508-.13216-1.63974.00671-.96406.26526-4.14755-.83743-5.64402-.8348-7.55463.01335-12.15914,6.60578-9.78399,13.7607,2.38995,7.19946,12.82372,8.51001,17.24803,2.50549.49919-.67755,1.67549-2.94588,1.15956-3.68478-.74719-1.06995-3.00557,2.30675-3.62833,2.76661Z"/>
  <path class="cls-1" d="M111.65553,129.88941c-.79278.12381-1.43069.69785-2.19495.82016v-7.14983c0-.06928-.20021-.38491-.29065-.44257-.77974-.49679-4.31638,1.01068-5.39653,1.12919-.75173.79825.73903,1.10866.86319,1.55309v17.57308c0,.10011.26204.2514.42222.25733.52594.01947.85251-.75905,1.30821-.93657,1.11615-.43475,2.86113.81013,4.21627.93476,11.54142,1.06145,10.74056-15.2487,1.07224-13.73864ZM112.70859,141.62439c-.92326,1.17007-2.03234.6528-3.22378.25944l-.01354-8.4932c.55934-1.84468,2.43714-2.98157,3.64314-.90786,1.16604,2.00521,1.03581,7.31471-.40581,9.14163Z"/>
  <path class="cls-1" d="M38.66444,118.55039c1.06568.63501,4.44173.69108,5.27505-.2954.1775-.21014.29855-.55799.15201-.82063-.25195-.34629-1.35675.18917-1.6129-.97524-.53881-2.44888.31193-6.57392-.05216-9.25126-.23395-1.72052-2.38785-2.91162-3.91158-3.32437-2.49292-.67526-5.41058-.77154-7.76949.39942-4.04399,2.00744-1.45753,6.30942,1.40385,4.50507,1.02219-.6446.68451-1.77147,1.07577-2.71463.60948-1.46941,3.13411-1.43708,3.69891.09022.19264.52098.40876,3.16515-.10515,3.33132-.53132.1718-2.19621.09786-2.90268.19843-2.94222.41894-6.68791,1.74342-6.81838,5.25036-.17186,4.62137,6.76421,4.91113,9.64738,3.09188.21325-.1346.47631-.55162.63715-.58026.30461-.05424.96246.90456,1.28221,1.0951ZM37.10083,114.7732c-.26852,1.81467-2.87156,3.39144-4.0418,1.45753-1.10387-1.8242-.00723-4.09017,1.80512-4.90016.31244-.1396,2.23668-.85697,2.23668-.34764,0,1.10568.15008,2.77591,0,3.79027Z"/>
  <path class="cls-1" d="M118.15281,103.48028c-9.04186.54138-10.92555,12.06965-2.66226,14.99705.24699.08749.83602.30228,1.03371.34457.53351.11407.83703.14099,1.37828.17229,1.12238.06486,2.05775-.11054,3.10113-.17229.22015-.01304.46958-.01544.68914,0,.04946-.17649.20543-.14469.34457-.17229.87118-.17277,2.52808-.80935,3.19064-1.37504.34499-.29456.40834-.67694.9442-1.03695-.04139-.36611-.02154-.38596.34457-.34457.05451-.14802.12913-.24228.17229-.34457.06612-.15681-.1436-.43862.34457-.34457,2.38961-7.16388-1.27346-12.17912-8.88084-11.72363ZM121.43111,115.37291c-1.3252,3.27136-4.25472,2.44522-5.0316-.64725-.57742-2.29855-.85596-9.1085,2.32072-9.64973,1.0857-.18499,1.91684.59751,2.4252,1.45809,1.20507,2.0401,1.16335,6.67214.28568,8.83889Z"/>
  <path class="cls-1" d="M143.05617,113.99791c.00034-.22301.02355-.47458,0-.68914v-.17229c-.87547-3.13783-5.18555-3.23716-7.46361-4.51016-2.64779-1.47965-.98593-4.19655,1.748-3.47029,2.18519.58049.65818,3.38536,2.78138,3.93616,2.20606.57229,2.95198-1.11207,2.76195-3.01941-.3296.05893-.40009-.01712-.34457-.34457-.95775-.86492-1.52146-1.5729-2.92885-1.89514-.1664-.03811-.41986.07554-.51686-.17229-.1706.0127-.34558-.00801-.51686,0-.4504.02103-1.00216.15327-.86143-.34457-.92999-.03361-1.83633.09233-2.75656.17229-.09498.00824-.3423.1486-.68914.17229-.1134.00774-.23041-.00067-.34457,0-.37519.24964-.81541.24146-1.206.34457-1.63629.43189-2.05691.85272-3.08044,2.18145-.13275.17233-.16951.55589-.19298.57511.05005.35302.00875.39357-.34457.34457-.05754.59046-.03828,1.46409,0,2.06742.45738-.08284.35635.11342.34457.51686.03272.02486.13115.54529.17229.68914.36611-.04139.38596-.02154.34457.34457.28097.19294.32404.23496.51686.51686.36611-.04139.38596-.02154.34457.34457.19416.0914,1.16444.46609,1.206.51686.35349-.04989.39336-.00917.34457.34457.13889.0262.47538-.0384.51686,0l.34457.17229c.29813.0179,2.27731.70571,2.64922.88265,4.15899,1.97903.41952,5.31955-2.12505,3.50326-1.16789-.83362-.19651-3.17442-1.99264-3.52099-3.42509-.66092-3.79448,3.09339-1.20717,4.65338,1.33647.80578,2.22667.78971,3.70935.85625.79329.03558,1.61711.0142,2.41199,0,.11474-.00206.22983.00303.34457,0,.02414-.25918.49271-.25918.51686,0,1.72992-.16038,4.5823-1.30898,5.29558-3.0597.24-.58914.16345-.86086.21754-1.41971.01624-.16762-.00025-.34726,0-.51686Z"/>
  <path class="cls-1" d="M93.43806,110.20764c.03087-.30015.02112-.72662,0-1.03371-.47479.07954-.34062-.11365-.34457-.51686-.00168-.1701-.01312-.34806,0-.51686-.17885-.06648-.13258-.22112-.17229-.34457-1.95512-6.07595-12.45382-5.53777-14.82316.59631-1.60264,4.14919.3068,8.64286,4.48968,10.16789,2.21296.80679,5.54517.87085,7.4907-.59946.91922-.69469,3.38875-3.43514,2.58916-4.657-.50861-.7773-2.01165,1.37719-2.32375,1.64901-2.95106,2.57035-6.67521,1.1441-6.72602-2.84962-.45216.14293-.42079-.35843-.34205-.77047.13889-.7266.47437-.26396.51433-.26324.22957.00406.45948-.00307.68914,0l.08614-.16884.08614.16884c.63017.00471,1.26497.00122,1.89514,0,.29855-.00059.69738-.00025,1.03371,0,1.31822.00093,2.64459.01586,3.96256,0l.08614-.16884.08614.16884c.33633-.00576.71034.03327,1.03371,0-.04139-.36611-.02154-.38596.34457-.34457.02069-.05346-.02541-.15725,0-.17229-.04114-.366-.02179-.38575.34457-.34457ZM83.44553,109.34622c.17136-5.52742,5.11976-5.9239,5.16855,0h-5.16855Z"/>
  <path class="cls-1" d="M71.68236,107.585c.31471,1.3893-.05771,3.16704,1.75844,3.58177,1.47519.33691,2.81696-.33153,2.94954-1.89829.22503-2.65877-1.76045-4.19293-3.85059-5.30513-.20652-.10991-.61377-.10785-.63732-.13027l-.34457-.17229c-.10415.01586-.66197.02114-.68914,0-.40758.00713-.59736.11605-.51686-.34457-.31244-.0199-1.98094-.05662-2.06742,0-.10137.06633.29208.28461-.51686.34457-.63909.04736-1.25925.06175-1.89514.17229.04105.36638.02137.38562-.34457.34457-.04846.04252-.37906-.03281-.51686,0,.10524.44663-.337.4284-.68914.51686-.05384.0135-.11744-.01207-.17229,0,.05838.33023-.01598.40055-.34457.34457-.05636.06198-.24766.10564-.34457.17229-.02154.63808-.53158.6537-.86143.86143-.28981.46655-.68401,1.51256-1.206,1.55057-.01472.05342.01565.11958,0,.17229-.09842.3322-.27971.91118-.34457,1.206-.08337.37885-.13653.63728-.17229,1.03371-.02011.22286.09758.56695-.17229.68914.39,3.47418,1.01159,5.75569,4.3613,7.44018.32118.16156,1.43978.43029,1.49639.48493l.34457.17229c.65726.05418,1.16175.1734,1.89514.17229.59088-.00093,1.33849.06957,1.89514,0,.1155-.01445.53797-.12913.68914-.17229.53494-.15277,1.17058-.56152,1.67852-.8196l2.11175-1.76468c.0196-.05003-.02036-.12375,0-.17229.18507-.44148.2591-.87808.68914-1.206.0037-.16844.01565-.35023,0-.51686-.03171-.33866.02204-.6936,0-1.03371-.69738-.1531-.90366.19731-1.37828.51686-.05409.0364-.10675.11996-.17229.17229.04139.36611.02154.38592-.34457.34457-1.22879,2.07188-4.42381,2.75801-6.10325.84851-1.68129-1.91175-1.82271-6.07551-.76981-8.32462,1.37946-2.94677,3.91301-2.25056,4.58558.71863Z"/>
  <path class="cls-1" d="M143.05617,142.08039c-.20854-.1905-1.22072.50491-1.37828-.86143-.26137-2.26682-.00353-5.53722,0-7.92511-.26995-.22215-.25456-.56428-.34457-.86143-.0477-.15737-.11348-.36857-.17229-.51686-.47235-.04774-.78563-.49029-1.03371-.86143-2.87223-1.16536-6.71146-2.08151-9.53263-.14309-1.91491,1.31571-1.57875,4.34259,1.16604,3.92167,2.26091-.34669.81095-2.94668,2.53683-3.49138,1.01487-.3203,2.0649-.13815,2.4236.96542.16497.50783.34003,2.70022-.14932,2.8586-3.48936.1313-9.04396.98258-8.50447,5.62324.13805,1.18726.67543,1.41969,1.37828,2.15321.40758-.00715.59728-.11609.51686.34457.27391.0501,1.32141.13247,1.37828.17229.40766-.00715.59728-.11609.51686.34457.76527.04883,1.82506.05931,2.58428,0l2.70037-1.52625c.34911-.031.84023.79602,1.19641.98929.31109.16879.70294.12314.8833.24472.0837.0564.03138.28434.04391.29225.09472.05977,1.93652.03157,2.23971,0-.11853-.52729.25969-.25826.54596-.39227.34028-.15933.6035-.44794,1.0046-.46916.00925-.05291.00034-.11723,0-.17229-.00076-.13483.02541-.66592,0-.68914ZM136.85391,140.09911c0,.07533-.63362,1.14824-.77562,1.2918-1.33159,1.34671-3.20486.1656-3.20107-1.63667.00446-2.12277,2.01754-3.37735,3.97669-3.35927v3.70413Z"/>
  <path class="cls-1" d="M77.24326,135.18898c-.26533-.1216-.15798-.46407-.17229-.68914-.01077-.16884.02423-.36013,0-.51686-.45107.1052-.42356-.33797-.51686-.68914-.01329-.04995.00866-.11355,0-.17229l-1.37828-1.55057c-.13914-.05762-.23067-.11782-.34457-.17229-.45191-.21616-1.56024-.6226-1.55057-1.03371-.10044-.01998-.23168.00995-.34457,0-.18667-.01649-.43097.05924-.51686-.17229-.1081.01081-.23504.00648-.34457,0-1.27271-.07529-2.18932-.47345-3.68966-.33075-.4329.04116-.79505.3186-1.30661.33075-.11071.00261-.23714.01342-.34457,0-.08488.226-.32783.16312-.51686.17229-.11306.00547-.2347-.0143-.34457,0,.0514.34808.00311.39687-.34457.34457-.02583.03388-.54512.13184-.68914.17229.06099.31456-.03256.39862-.34457.34457-.10314.11432-.24875.11491-.34457.17229l-.42701.69215-1.46812,1.54756c-.03129.09481.03617.31281,0,.34457l-.17229.34457c.00824.11266.00185.23113,0,.34457-.01312.78849-.37729,1.53303-.34945,2.31617.04358,1.22724.63606,2.42461,1.03859,3.54152.01834.05077-.01783.12097,0,.17229.34137-.01411.53032.16808.51686.51686.20593.15159.20745.1942.34457.34457.43711-.12539.30335.30339.34457.34457s.46991-.09258.34457.34457c.18583.10976,1.3342.62592,1.37828.68914.328-.05628.40278.01504.34457.34457.13889.0262.47538-.0384.51686,0l.34457.17229c.10415-.01586.66188-.02116.68914,0,.40758-.00715.59736-.11607.51686.34457,1.35961.08635,3.05402-.42869,3.96256-.34457l.34457-.17229c.06006-.04942.51736.03716.68914,0-.1171-.50907.39336-.37.68914-.51686.34945-.17355.67669-.35044,1.03371-.51686-.04139-.36611-.02154-.38596.34457-.34457.11937-.20905.13544-.22524.34457-.34457-.08143-.53153.13477-.27113.34457-.34457.13872-.39035.15327-.65497.68914-.68914.1388-.38423.29241-1.21136.51686-1.55057l.17229-.68914c-.00942-.1135.00681-.23058,0-.34457-.00042-.00719-.00025-.02297,0-.04137v-.13092c-.00387-.1146.00143-.22985,0-.34457-.00505-.40102-.00572-.80502,0-1.206.00488-.34411-.01026-.69,0-1.03371ZM71.76572,140.30698c-.93646,2.60491-3.39599,2.57868-4.39352.01523-.7805-2.00563-.95968-8.64778,1.9054-9.06226,3.40532-.49263,3.21672,7.02043,2.48812,9.04703Z"/>
  <path class="cls-1" d="M43.60224,129.88884c-2.70264.35202-5.5048,2.30905-6.1369,5.06161-2.55071,11.10692,16.70636,11.92877,15.2993.68338-.53999-4.31529-5.29179-6.24912-9.1624-5.74499ZM47.21753,140.22323c-.90719,2.53258-3.25945,2.89612-4.30805.26951-.7858-1.96813-1.03102-8.6691,1.7263-9.23734,1.13533-.23399,2.14885.93882,2.54003,1.86986.67593,1.60882.63009,5.45533.04173,7.09797Z"/>
  <path class="cls-1" d="M59.48864,109.93996c1.19296-3.63279-1.94998-7.41873-5.88646-6.23103-.74222.22394-1.60928,1.10013-1.94132,1.16072-.54529.09954-.09901-.88725-.28442-1.1844-.52703-.84477-5.29937,1.08082-6.31263,1.0449-.80666,1.35595.79253.92574.98517,2.12862-.18675,2.93587.28459,6.23957.01985,9.12911-.03592.39199-.11357.83655-.3492,1.15537-.20114.2722-1.25546.70618-.85032,1.3191.21536.32575,7.48978.26339,7.80961.03285.56775-.40922-.89794-1.38762-1.10614-2.0853-.02574-.08612-.15058-.16042-.18087-.4141-.19693-1.64739-.13014-6.11465.18087-7.6833.12593-.6353.59206-1.84584,1.11489-2.24532.311-.23759,2.13783-.5582,2.3314-.43732.94976.59309-.03079,2.32595-.12921,3.1581-.38285,3.23615,3.84184,3.4574,4.59878,1.15199Z"/>
  <path class="cls-1" d="M105.23791,111.0709c1.2441.84431,3.25525.41656,3.74569-1.08181,1.33521-4.07947-2.88603-8.28277-6.81637-5.78261-.20274.129-.9824,1.03005-1.1477.83173.06402-.87539.10465-1.5178-.95135-1.55965-.73734-.02919-3.82148.88344-4.70024,1.16456-2.23062.71358.13897,1.33098.30604,2.20869-.19937,2.94006.2782,6.24155.01195,9.13553-.09901,1.07546-1.55788,1.9508-1.20011,2.47559.31319.45931,6.75218-.05958,7.73929.01363.16842-.94801-1.03674-1.28446-1.19826-2.16107-.21695-1.17832-.16993-6.62991-.01245-7.92103.17885-1.46623,1.67616-3.30532,3.33096-2.80441,1.70199.51524-1.17016,4.08098.89255,5.48086Z"/>
  <path class="cls-1" d="M59.67018,141.47739v-17.91765c0-.05855-.18675-.41094-.29023-.43605-.82248-.19954-4.20946.69856-5.1259,1.04988-1.41479.54237.66449,1.20595.60081,1.9618-.14444,5.20799.25069,10.51147-.20282,15.6647-.12602.24406-1.44188,1.23975-.58113,1.48632h6.37455c.04795,0,.17826-.19862.25792-.2623.14385-.52813-1.03321-1.15306-1.03321-1.5467Z"/>
  <path class="cls-1" d="M126.1941,141.80006c-.62226-1.20528-.00025-8.76385-.18608-10.84019-.10616-1.18677-.47631-1.24738-1.63082-1.09615-.37141.04864-4.04803,1.07449-4.23495,1.19041l.17229,1.03371c.20484.12068.32732.15083.51686.34457.22385.22882.29098.0893.35349.59219.22116,1.78041.15353,6.09149-.00135,7.94337-.09388,1.12187-.34625.73722-.52443.94012-.34364.39122-.64784.85396-.51686,1.37828h6.63298c.15378,0,.29595-.33898.23227-.5736-.07723-.28421-.6438-.58428-.81339-.91272Z"/>
  <path class="cls-1" d="M13.15228,141.04756c-.04139-.63972.07108-1.33607-.0143-1.96689-.44543-3.29104-6.34132-3.25592-6.19486.49696.01733.44451.36148.90952.34196,1.21479-.01733.27094-.33717.43431-.33061.83316.00967.59358.52645,1.36621.51492,2.0057.48859.02656.7916-.29323,1.28516-.35025,1.27338-.14709,4.59685-.14686,5.87519-.00675.55286.06061.77545.32539,1.28002.35668v-2.92885c-.94218.1992-1.71923.49341-2.75749.34545ZM12.20563,141.04667c-.83686,0-3.18685.16669-3.79027,0-.31681-.08753-.67097-.74393-.61242-1.11413.17716-1.11966,4.81221-1.17016,4.79252.30726-.00244.17691-.26406.80687-.38983.80687Z"/>
  <path class="cls-1" d="M9.66493,129.02287c-4.10893.75631-3.36679,7.83157.9792,7.1883,4.0773-.6035,3.14488-7.94739-.9792-7.1883ZM12.43597,133.00025c-.3015.99853-4.11844,1.03914-4.53451.11748-.42844-.94904.45141-1.37681,1.24865-1.50127.92847-.14499,3.77345-.23054,3.28587,1.38379Z"/>
  <path class="cls-1" d="M126.34452,125.54102c-.31597-1.92441-1.49572-2.42844-3.36864-2.24759-.95228.09197-1.04431.35574-1.65135.93232-.10061.09556-.35736.07214-.44552.15533-.14764.13939-.23975.99152-.23504,1.246.06469,3.48307,5.06954,3.81315,5.70055.60308v-.68914Z"/>
  <path class="cls-1" d="M6.96002,126.81103c.00875.59183.49843,1.22463.50954,1.83133,1.67953-.51761,3.84714-.55837,5.50984-.00008.32102-1.07081.10768-2.02902.00067-3.10046-.44636-.03129-.49658.42726-.95026.51252-1.03371.19428-4.31722.33178-4.04567-1.37399.84746-.08837,2.12513.41023,2.23895-.79425.17229-1.82363-3.46261-1.28659-3.28402.8785.03466.42041.34836.75694.34709,1.03476-.00135.31286-.33271.5619-.32615,1.01167Z"/>
  <path class="cls-1" d="M48.22433,37.16986c1.4587-1.93867,4.61039-2.18641,6.68682-1.19586,3.18004,1.51708,3.26164,6.15419.96692,8.50498-.2559.26213-1.45374.90702-1.37618,1.20604l10.62077,8.15978.74887.19702c.00202-.14318.01026-.28871.00715-.43366-.01994-.94265-1.54081-4.29472-1.99297-5.41773-1.64386-4.08277-5.41739-14.07812-9.26041-16.06542-2.3574-1.21903-3.11863-.54672-5.37129-.4724-1.02227.03373-1.99516-.28859-3.02206-.17927v3.35956c0,.9172.97911,2.52804,1.03489,3.5313.33296.30789.8165-1.00696.95749-1.19434Z"/>
  <path class="cls-1" d="M54.96574,37.46989c-1.51128-.95484-3.88449-.98181-5.22845.26575-1.49008,1.3832-.98231,3.91482.11273,5.36687,4.01278,5.32111,9.64393-2.77166,5.11572-5.63262ZM50.54,40.08676c-.28005-.71568.57953-2.36383,1.38518-1.81606.77099.52426-1.23788,1.9899-1.38518,1.81606Z"/>
  <path class="cls-1" d="M84.53526,54.01363c.34953-.10179,1.14526-.68472,1.48015-.93293,2.44917-1.81488,4.79732-3.85269,7.16943-5.75195.69478-.55627,1.50346-1.20255,2.32055-1.55852-2.57107-2.00096-4.20727-5.6717-1.94738-8.56723,1.72437-2.2093,5.49899-2.37149,7.61756-.63189.37216.30562,1.32486,1.79789,1.56394,1.62081.22781-.16879.71026-2.76283,1.03565-3.18673v-3.53184c-1.21752.11163-2.48333.29018-3.71136.17948-.97331-.08778-1.41176-.47572-2.53649-.30979-4.33809.6401-6.53371,5.86812-8.17025,9.4014-1.68659,3.64142-3.72634,8.27919-5.01091,12.04528-.11853.34735-.57339,1.44604.18911,1.22391Z"/>
  <path class="cls-1" d="M96.49797,36.85898c-4.93696.719-3.54421,8.90692,1.63839,7.84078,1.03489-.21287,2.20303-1.63704,2.60497-2.56354,1.46484-3.37622-.76191-5.78434-4.24336-5.27724ZM99.46712,40.08676c-.14595.17384-2.13817-1.33311-1.36364-1.88121.66954-.47395,1.67885,1.22572,1.36364,1.88121Z"/>
</svg>