<?xml version="1.0" encoding="UTF-8"?>
<svg id="Capa_1" data-name="Capa 1" xmlns="http://www.w3.org/2000/svg" viewBox="0 0 150 150">
  <defs>
    <style>
      .cls-1 {
        fill: #171619;
      }

      .cls-2 {
        fill: #18171a;
      }

      .cls-3 {
        fill: #949196;
      }

      .cls-4 {
        fill: #0c0c0e;
      }

      .cls-5 {
        fill: #0d0c0f;
      }

      .cls-6 {
        fill: #151316;
      }

      .cls-7 {
        fill: #19181b;
      }

      .cls-8 {
        fill: #7a777d;
      }

      .cls-9 {
        fill: #020202;
      }

      .cls-10 {
        fill: #100f12;
      }

      .cls-11 {
        fill: #0e0d10;
      }

      .cls-12 {
        fill: #101012;
      }

      .cls-13 {
        fill: #0c0b0e;
      }

      .cls-14 {
        fill: #151417;
      }

      .cls-15 {
        fill: #878489;
      }

      .cls-16 {
        fill: #0f0e11;
      }

      .cls-17 {
        fill: #171518;
      }

      .cls-18 {
        fill: #0f0f11;
      }

      .cls-19 {
        fill: #131215;
      }

      .cls-20 {
        fill: #151416;
      }

      .cls-21 {
        fill: #77757a;
      }

      .cls-22 {
        fill: #adaaae;
      }

      .cls-23 {
        fill: #35343a;
      }

      .cls-24 {
        fill: #b9b7bb;
      }

      .cls-25 {
        fill: #141315;
      }

      .cls-26 {
        fill: #353439;
      }

      .cls-27 {
        fill: #161518;
      }

      .cls-28 {
        fill: #010101;
      }

      .cls-29 {
        fill: #0b0b0d;
      }

      .cls-30 {
        fill: #111013;
      }

      .cls-31 {
        fill: #121113;
      }

      .cls-32 {
        fill: #020203;
      }

      .cls-33 {
        fill: #0a090c;
      }

      .cls-34 {
        fill: #161417;
      }

      .cls-35 {
        fill: #0e0e10;
      }
    </style>
  </defs>
  <path class="cls-27" d="M126.42817,101.47866c.37009-.37075,1.22152.07158,1.16137.41635-.47899,1.09384-1.81588.23933-1.16137-.41635Z"/>
  <g>
    <path class="cls-28" d="M75.63237,119.45983l.29883.23438,67.33936-.0332v-10.38062c0-.02319-.20654-.23633-.26953-.26587h-14.46191c-.06348.02954-.27002.24268-.27002.26587v4.08521h-12.8584c9.05859-6.00708,18.34033-11.70972,27.50537-17.56592.40283-.31543.54736-.80273-.04102-.9917l-65.03223-.05762c-.40186.0752-.58691.49609-.60889.86475.19629,2.99561-.25049,6.29297-.00244,9.25098.06299.74609.12451.80762.87061.87012,3.85938.32422,8.15967-.25879,12.06738.00171.19629.08447.72949-.3938.72949-.47583v-4.08521h13.12646c-9.16455,5.96411-18.4668,11.77051-27.71729,17.62231l-.67578.66064ZM80.5855,97.96227v5.75952h7.09912v-3.34863h-4.82178v1.07153h3.21436v.66968h-3.88428v-2.41089h6.16113v4.68799h-8.43799v-7.09912h55.854l-4.56543,3.00244-4.60986,2.75732h-20.42627l7.63477-5.08984h-33.21777ZM95.25249,109.88317h16.80957l-8.30322-5.35962c.09473-.21265,1.01172-.66797,1.13721-.66797h20.42627c.05566.30859-.01904.21387-.17139.29956-.91309.51221-2.82764.10059-3.91699.2334-.79346.09644-6.5752,3.89746-7.68701,4.63525-.36963.24487-.84473.47754-1.08301.85938h3.34863c-.07373.31274-.90234.66968-1.13867.66968h-20.29199c.02002-.20361.78418-.66968.87061-.66968ZM91.17827,112.37243c.61816-.26245,1.27344-.94043,1.92773-1.01953,5.90723.01343,11.78613-.19287,17.67822.00903.9585.03296,1.92676-.03662,2.88428-.00415l-7.90186,5.22241h33.61963v-5.75952h-7.09863v3.48242h4.82178c0-.22314.07812-1.20532-.20117-1.20532h-3.01367l.00146-.66968c.04688-.06689.17139.13379.19971.13379h3.48242c.01416,0,.20068.18677.20068.20093v2.21021h-6.16113v-4.82202h8.43848v7.09888h-56.38965l7.51172-4.87744Z"/>
    <path class="cls-28" d="M65.31743,47.19738l1.73828-1.33862c3.24854,5.98218,4.2876,12.87524,2.81445,19.55542h10.84961c-1.71826-6.70508-.43799-13.49365,2.68018-19.55542l1.73828,1.33936c.60059-4.01025,1.46191-8.01343,2.64453-11.88965.44629-1.46191,1.43896-3.50195,1.71875-4.84546.04346-.20996.08447-.37622.05615-.59863-.06299-.49341-3.06006-4.16235-3.61768-4.83032-3.21045-3.8457-6.83252-7.36426-10.62158-10.63281-4.40234,3.49268-8.5376,7.69604-11.93018,12.18359-.53613.70898-2.12695,2.65625-2.19531,3.43237-.05957.67993,1.44238,4.4126,1.74805,5.42505,1.15918,3.8396,1.89502,7.77124,2.37646,11.75513ZM74.83159,28.78649c.08545-2.85107-.05859-6.18848.25732-8.98462.02295-.20117.02832-.41431.27295-.46387v42.86157c-.20117-.05859-.25244-.69214-.26611-.87256-.81445-10.57031-.58105-21.92627-.26416-32.54053Z"/>
    <path class="cls-28" d="M122.84575,79.61071c.21875.01392.90967.11548,1.00244-.13086-19.79053-9.86035-41.8584-14.20361-63.93457-10.82861-11.70361,1.78906-22.99658,5.71313-33.57617,10.8938.00342.12231.57715.07715.73682.06567,4.15381-.29761,8.30859-.96191,12.4585-1.3374,22.19629-2.00781,45.02002-2.02759,67.2373-.26733,5.35742.42432,10.72217,1.26538,16.07568,1.60474ZM43.48443,73.3153v-.13086l.53369-.1355.00049.26709-.53418-.00073ZM47.63579,72.24523c-.20361.06714-.36084.08472-.53564.13403-.31348.08838-.61963.18799-.9375.26782-.33447.08398-.74854.32471-1.07324.20093.29932-.2439.73438-.23926,1.07324-.33496.31348-.08838.61816-.18945.9375-.26782.17871-.0437.35645-.09424.53564-.13403.18262-.04028.33691-.1626.53564-.13257-.05273.30859-.35693.20776-.53564.2666ZM48.30571,72.10998c.10107-.2749.84473-.53638.9375-.13403l-.9375.13403ZM98.26616,71.30773c-.25879-.03687-.45654-.09814-.66992-.13403-.24219-.04077-.47461-.10156-.66943-.13379-.26562-.04443-.5415-.09302-.80371-.13403-.26807-.04199-.54248-.09497-.80371-.13403-10.00879-1.49316-20.50684-1.92676-30.60498-1.0708-3.40674.28882-7.14062.69385-10.51562,1.20483-.29004.04395-.73145.21216-1.07129.26782-.30908.05078-.62744.07935-.9375.13403-.30811.05396-.6333.07764-.9375.13379-.26611.04907-.5459.08301-.80371.13403-.26074.05151-.62305.29785-.9375.2666.13281-.28809.64307-.32642.9375-.40063.25537-.06421.54443-.07837.80371-.13379.33203-.07153.65625-.0769.9375-.13403.22559-.0459.43945-.09009.66943-.13379.32275-.06152.68457-.20044,1.07178-.26807,13.42285-2.34326,27.95508-2.36548,41.38818-.13379.27002.04468.53418.08569.80371.13379.26611.04761.53809.08301.80371.13403.22217.04248.44678.08911.66943.13403.22314.04443.44629.08887.66992.13379.31055.0625.63281.12549.93896.20093-.28711.23413-.69092-.03174-.93896-.06689Z"/>
    <path class="cls-28" d="M51.44194,46.78991c.39404-.19629,1.23926-1.2771,1.5918-1.18506.25049.06543,2.62207,2.6521,2.97559,3.0647,2.65625,3.10083,5.02588,6.81396,7.05273,10.35938.85156,1.48901,1.54785,3.1123,2.52051,4.51001-.21387-3.95508-.42529-7.90747-.95508-11.83472-1.58936-11.77295-5.41504-23.22607-11.43262-33.43726-3.73486,4.73047-7.10938,10.06641-9.60107,15.58008-.24805.54956-1.23779,2.64868-1.16064,3.07275l8.81592,9.81445.19287.05566ZM63.84429,55.63708h.13135v.66846h-.13135v-.66846ZM56.07427,26.57092c3.80859,8.23706,6.21631,16.96997,7.3667,25.98486.00391.03003.11816.15308.13965.32788.0293.24438-.03125.50098-.00586.74365.01367.12769.33057.57837.06738.80493-.05908,0-.17236-.6499-.20117-.80493-.0625-.33643-.06787-.73657-.13379-1.07153-1.74756-8.89282-4.30176-17.47876-7.36719-25.98486-.07617-.21216-.28418-.52441-.40039-.73804.3418-.28882.4209.4917.53467.73804Z"/>
    <path class="cls-28" d="M84.47027,62.40051c-.00146.34375.22754.74951.13477,1.13843.20215-.03101.24951-.25293.33643-.39893,2.76514-4.625,4.72607-8.93701,8.18115-13.25.43555-.54395,3.59326-4.20752,3.89844-4.28516.58008-.14722,1.38574,1.33521,1.77979,1.13232l8.81543-9.68042c.17041-.5647-.74854-2.448-1.02197-3.07568-2.4248-5.56909-5.96191-10.87915-9.60059-15.71216-6.55859,10.59668-9.89307,22.33911-11.56689,34.64062-.39844,2.92822-.94775,6.59106-.95654,9.49097ZM86.21538,54.76867c-.01367-.09692.12109-.16821.12988-.20386.01172-.29004-.03223-.59131-.00537-.87939.01611-.17578.13623-.29956.13916-.32617.03418-.32178.09766-.64722.13379-.9375,1.11914-8.9375,3.74902-18.71631,7.76904-26.78857.10498-.21045.04639-.74658.40039-.46997-.11572.13672-.20508.30371-.2666.46997-3.36475,9.10474-5.85742,17.50854-7.76855,27.0564-.06543.32593-.07812.65942-.13428.93774-.06152.30615-.19336.6377-.26758.9375-.01074.2666.00928.53662-.00146.80298h-.13135l.00293-.59912Z"/>
    <path class="cls-28" d="M89.02398,63.53771c.2207.04028.36084-.10278.52441-.21094,1.37061-.90625,2.73486-2.14575,4.12109-3.11157,5.42725-3.78125,11.2876-6.98999,17.50879-9.27734.13379.02173.93408,2.07397,1.03467,2.13745.14062.08911.45898-.02905.62842-.07617,2.00342-.55688,4.74854-1.8125,6.75488-2.62012.59473-.23926,3.42627-1.23242,3.55762-1.66626.20557-.68115-.14795-3.74829-.25928-4.64526-.61865-4.98364-2.4126-9.7207-4.06787-14.41528-12.53906,8.72998-22.41748,20.57056-29.80273,33.8855ZM114.20513,35.54626l-.40039.40039c-.04443-.25317.15625-.4458.40039-.40039ZM112.73198,36.61657c.10547-.08521.6333-.5752.66846-.53564.04639.35449-.34424.4873-.53467.66943-5.41748,5.1792-10.80371,10.39258-15.40332,16.34106l-.80371.80249c.09521-.3877.48242-.66602.66992-.93652,4.30664-6.21484,9.52979-11.59448,15.40332-16.34082Z"/>
    <path class="cls-28" d="M26.81109,48.93591l10.34521,4.13257c.8335.30225,1.10498-1.98877,1.58594-2.10278,7.99707,2.95605,15.38721,7.39258,22.01855,12.70728.04639-.22681-.06494-.38965-.15527-.58008-.59229-1.25049-1.59375-2.7522-2.33252-3.96265-6.21143-10.17871-14.08643-19.39233-23.50977-26.71899l-3.73438-2.62524c-1.86328,5.0813-3.77441,10.43481-4.28711,15.8728-.0625.66504-.19385,1.93628-.14062,2.55054.02344.26831.01807.50684.20996.72656ZM37.72417,36.88439c6.08008,4.72974,11.05225,10.37573,15.53711,16.60889.11768.16333.2749.31079.40137.46948-.34277.29761-.43652-.36279-.53516-.46948-5.28174-5.70508-9.74463-11.10034-15.53711-16.47485-.26904-.24951-.63232-.45117-.80371-.80225.38965.02148.67041.46069.9375.66821Z"/>
    <path class="cls-28" d="M93.17681,65.14489c2.28271-.11475,4.52393-.72144,6.78564-1.04785,6.30322-.90967,12.77002-1.33569,19.12598-1.08838.64551.02515,2.66455-.14209,3.06494.11719.38672.25.229,2.03003,1.25537,2.25977,3.02881.11011,6.04688.35815,9.07812.43091.38818.00928.7666.2749,1.1958.0144.25488-.18774.43848-4.63843.61963-5.30005l.12744-13.46631c-12.71533,2.96875-24.75244,8.1106-35.93604,14.75977l-5.31689,3.32056ZM108.97857,57.84362c5.396-2.84961,11.06348-5.198,17.01367-6.62744.17529-.03857.21387-.03857.13379.13403-5.2876,1.94922-10.20459,3.61963-15.35986,6.00391-1.3877.64185-2.70312,1.50513-4.19482,1.89746l2.40723-1.40796Z"/>
    <path class="cls-28" d="M16.03911,65.33386c.05566.23169.09326.49512.34521.59961l10.04492-.63013c1.0166-.06567.78906-1.95166,1.38281-2.2334,7.18262-.19873,14.479-.052,21.61279.88989,2.36377.31201,4.69287.85107,7.05127,1.18506-12.45703-8.33154-26.34668-14.60522-40.98535-18.08154-.05322.33838-.12207.65112-.1416.99902-.17383,3.08911.02881,6.30225.146,9.37671.08789,2.30737.0166,5.7063.54395,7.89478ZM43.08257,58.98571c.12793-.12671.5332.23584.3999.40088-.02197.02686-.60645-.19629-.3999-.40088ZM22.8565,50.81579c.29004-.05396.57959.21338.80371.2666,5.96826,1.41992,11.90186,3.68799,17.28125,6.6272.49463.27026,1.29199.65527,1.70215.97681.16113.12646.36475.15576.30273.43237-4.7041-2.39136-9.56592-4.48926-14.52881-6.29761-1.61133-.5874-3.2749-1.0459-4.8916-1.60498-.12109-.04175-.80811-.29004-.66943-.40039ZM22.72222,50.94714l-.66846-.13428-.00049-.13086c.25049-.02051.58887-.0376.66895.26514ZM21.1148,50.27941l-.00098.26709-.53369-.13525v-.1311l.53467-.00073Z"/>
    <path class="cls-28" d="M108.77495,66.61413l-10.5083.81055c.06055.23706.58789.29077.79834.33838,2.64551.6001,5.32617,1.02222,7.96387,1.67993,7.62988,1.90259,14.95898,4.66138,21.97217,8.16479.52979.63013-.11816,2.48071.47803,3.27246l9.56543,5.56763c2.23242-5.57666,3.6748-11.53857,4.21191-17.53735-1.8833-.37769-3.79248-.6709-5.69727-.93237-9.53125-1.30786-19.16211-1.69653-28.78418-1.36401ZM129.79058,68.78185c1.95312.27148,3.91797.64941,5.8457,1.05249.11279.08105.06787.12549-.13428.13379-5.6499-.86768-11.42773-1.36572-17.14453-1.47314-2.13916-.04053-4.28857.03076-6.42871-.00146l1.17725-.22388c.29053-.0603.7207.09058.96533.09131.50977-.13525,1.27783-.24902,1.80273-.27344,4.50049-.20898,9.46045.0752,13.9165.69434Z"/>
    <path class="cls-28" d="M11.13384,86.44323l9.38184-5.48877c.68506-.65308.21631-2.56641.53174-3.21826.17334-.35767,6.31055-3.05029,7.1709-3.41064,4.49707-1.88281,9.15674-3.36108,13.86914-4.61475l9.56592-2.15234c-11.93408-1.37402-24.01611-1.37085-35.94629.01538-2.98828.34741-5.99658.76147-8.93262,1.40063.81396,5.84619,1.93457,11.79102,4.14893,17.27954.05762.14185-.08496.2251.21045.18921ZM14.01616,69.96813c.22217-.04712.44678-.08594.66992-.13379,6.34668-1.36499,13.25439-2.04858,19.76172-1.74683.48145.02222,1.20605.13428,1.66895.27344.13379-.00122.49561-.2417.73535-.14478l1.27295.27734c-2.13965.03345-4.28906-.04053-6.42822.00146-2.70068.05273-5.40869.16357-8.10303.40234-2.91357.25854-5.88232.63867-8.77393,1.0708-.26465.03955-.52344.09668-.80371.13403-.14355.01904-.57178.32715-.80469.06689,0-.06177.64453-.16675.80469-.20093Z"/>
    <path class="cls-28" d="M40.60405,113.36559c-.02344,0-.23633.20654-.26611.27002-.11768.2522-.14795,5.0166-.0752,5.5625.04541.33936.11133.52344.479.59277l31.34619.01172c.48779.01807.67285-.12842.73535-.60449.13672-1.04639.10986-4.02173-.00635-5.09814-.02881-.26831-.13477-.73438-.46875-.73438h-7.56787v-2.94678H14.81987v2.94678h-7.70166c-.02393,0-.33496.31104-.33496.33496v5.89331c0,.01416.18701.20093.20117.20093h31.74414c.16455,0,.31641-.55347.3374-.73389.08252-.70435.1001-4.79639-.06299-5.30005-.03271-.10083-.21582-.39526-.27441-.39526h-6.89795v-2.14307h15.67139v2.14307h-6.89795ZM36.38482,115.50866h-3.88428v-.66968h4.55371v2.41089H10.06499c-.01416,0-.20117-.18652-.20117-.20093v-2.20996h4.68848v.66968h-3.88477v.9375h5.22412v-4.95581h14.7334v4.88892c0,.01416.18701.20093.20117.20093h5.35742c.2583,0,.21289-.85498.20117-1.07153ZM48.70757,116.58019v-5.08984h14.86719v4.48706c0,.07007.41406.60278.46875.60278h5.29102v-1.07153h-3.88428v-.66968h4.68799v2.20996c0,.0144-.18652.20093-.20117.20093h-27.12305v-2.41089h4.68799v.66968h-3.88428c-.01221.21655-.05762,1.07153.20068,1.07153h4.88916Z"/>
    <path class="cls-28" d="M6.85015,100.90905h7.96973v2.81274h49.96045v-2.81274h7.56787c.02344,0,.23633-.20679.26562-.27002.12842-.27417.13721-4.46631.07178-5.02344-.05127-.43481-.18262-.72656-.63379-.83936l-30.78467-.03491c-.53711-.01221-.90381.20337-.98975.75122-.15332.97827-.09814,3.63306-.01514,4.68604.02051.25806.07861.48486.14062.73047h7.09912v2.00903h-15.67139v-2.00903h6.89795c.16455,0,.31641-.55347.3374-.73413.11426-.97778.11475-3.58179,0-4.55933-.05078-.43481-.18262-.72656-.63379-.83936l-31.5127.04028c-.06348.02979-.27002.24268-.27002.26587v5.62549c0,.0144.18652.20117.20068.20117ZM42.81402,99.56945v-2.2771h27.32422v2.2771h-4.62109c-.1416,0-.25488-.38013-.20117-.53564h4.01855v-1.07153h-5.75977v4.95581h-14.7334v-4.95581h-5.22363v.9375h3.88428v.66968h-4.68799ZM9.86382,97.29235h27.32422v2.2771h-4.6875c-.02686,0-.02686-.53564,0-.53564h3.88428v-1.07153h-5.62549v4.95581h-14.86768v-4.95581h-5.22412v.9375h3.88477v.66968h-4.68848v-2.2771Z"/>
    <path class="cls-28" d="M6.64946,90.19347v1.60742h136.42041c.45459,0,.22656-1.34473.20068-1.60742H6.64946Z"/>
    <rect class="cls-32" x="6.64946" y="120.33044" width="136.62109" height="1.60742"/>
    <path class="cls-9" d="M143.06987,92.47057H6.64946v1.60742h136.62109c-.02637-.28613.11768-1.60742-.20068-1.60742Z"/>
    <path class="cls-28" d="M143.06987,122.60754H6.64946v1.60742h136.62109c-.02637-.28589.11768-1.60742-.20068-1.60742Z"/>
    <path class="cls-28" d="M65.09234,129.99743c3.02783,1.53174,5.82812,3.54053,8.84033,5.08984.26758.1377.85449.49487,1.10449.51123.35596.02332,2.94629-1.53931,3.49561-1.85059,3.74316-2.12183,7.50635-4.27539,11.20117-6.479.43555-.25977.97705-.5188,1.29932-.91089h-32.01221l6.07129,3.6394Z"/>
    <path class="cls-28" d="M45.49224,87.24767l7.43164-.27148c.58203-.10889.41797-.67993.63574-.9043.36572-.37598,1.31787-.04028,1.77246-.02515,5.89893.19678,11.8125.58105,17.68018.93774.21484.01294.91748.09985,1.00928-.13794l-29.06396-7.76953.53467,8.17065Z"/>
    <path class="cls-28" d="M96.45659,86.04015c.44434-.00757.97168-.31958,1.45312-.00952.29688.19092.16211.86328,1.0459.99609l7.21387.2207.40039-8.17065-28.79639,7.76685c6.23633.00073,12.44531-.69922,18.68311-.80347Z"/>
    <polygon class="cls-28" points="39.73296 109.74914 55.27056 109.74914 47.6939 104.52599 39.73296 109.74914"/>
    <polygon class="cls-28" points="23.794 109.74914 39.46538 109.74914 31.76372 104.51257 23.794 109.74914"/>
    <polygon class="cls-28" points="23.72612 108.95934 30.62505 104.39147 16.96294 104.39147 23.72612 108.95934"/>
    <polygon class="cls-28" points="55.48101 108.94518 62.36968 104.39147 48.84136 104.39147 55.48101 108.94518"/>
    <path class="cls-28" d="M33.25933,104.77087c1.69873,1.46729,4.32031,2.60864,6.07715,4.10376l.32861.08472,6.76514-4.56787h-13.39404c-.05664.25146.08398.25928.22314.37939Z"/>
    <path class="cls-28" d="M64.78032,104.25744c-.8042.19141-1.49805.13354-2.18164.698l-7.06006,4.7937h9.2417v-5.4917Z"/>
    <path class="cls-28" d="M14.95366,104.39147v5.35767h8.70654c-2.5752-1.83105-5.14893-3.72656-7.86572-5.32739l-.84082-.03027Z"/>
    <path class="cls-9" d="M70.80718,83.89684l-5.86035-3.44629c-4.9502-.86963-9.92627-1.59277-14.8999-2.31177l-.26807.13379c6.78467,1.46655,13.604,4.12402,20.35352,5.56421.22607.04834.44287.08984.6748.06006Z"/>
    <path class="cls-9" d="M99.60552,78.13879c-4.94873.63281-9.87158,1.47485-14.79297,2.28467-1.93506.96851-4.02441,2.08105-5.83545,3.27759-.15479.10229-.34668-.03418-.26514.33105l21.02734-5.75952-.13379-.13379Z"/>
    <path class="cls-32" d="M76.09966,108.00695c-1.84033-1.36694-3.70898,1.22485-2.2998,2.63452,1.66797,1.66797,4.35986-1.10425,2.2998-2.63452Z"/>
    <path class="cls-31" d="M72.41411,109.61266c-.88818-1.98755-2.04736.27808-.71191.38574.23926.01929.41992-.40649.71191-.38574Z"/>
    <path class="cls-14" d="M78.2603,108.82165l-.61182.70825.71191.6145c.61035-.43628.65332-1.06055-.1001-1.32275Z"/>
    <path class="cls-21" d="M100.14068,78.00622c-.23389-.10986-.45605.12231-.53516.13257l.13379.13379c.16553-.11646.44824-.07153.40137-.26636Z"/>
    <path class="cls-3" d="M49.51128,78.00622l.26758.26636.26807-.13379c-.10205-.01489-.31299-.23242-.53564-.13257Z"/>
    <path class="cls-24" d="M45.08941,72.84802c.32471.12378.73877-.11694,1.07324-.20093v-.13403c-.33887.0957-.77393.09106-1.07324.33496Z"/>
    <rect class="cls-26" x="63.84429" y="55.63708" width=".13135" height=".66846"/>
    <path class="cls-22" d="M113.80474,35.94665l.40039-.40039c-.24414-.04541-.44482.14722-.40039.40039Z"/>
    <polygon class="cls-23" points="21.11382 50.5465 21.1148 50.27941 20.58013 50.28014 20.58013 50.41125 21.11382 50.5465"/>
    <path class="cls-8" d="M117.62261,68.35851c-1.18311-.01245-2.36963.00635-3.55127.00244-.24463-.00073-.6748-.15161-.96533-.09131l-1.17725.22388c2.14014.03223,4.28955-.03906,6.42871.00146-.13916-.22192-.5083-.13403-.73486-.13647Z"/>
    <path class="cls-15" d="M32.4312,68.35851c-.22656.00293-.59521-.08569-.73438.13647,2.13916-.04199,4.28857.03198,6.42822-.00146l-1.27295-.27734c-.23975-.09692-.60156.14355-.73535.14478-1.22656.01147-2.45752-.01758-3.68555-.00244Z"/>
    <path class="cls-33" d="M111.13433,112.63854c.39648-.53247-.33691-1.1792-.66211-.99561-.69336.74316.02734,1.84741.66211.99561Z"/>
    <path class="cls-2" d="M99.42632,111.77184c-.86133.2793.13428,1.81445.69775.83545.29346-.50977-.26074-.97705-.69775-.83545Z"/>
    <path class="cls-17" d="M108.42144,112.93737c.71533-.41113-.2002-1.81348-.76611-.82007-.28027.49097.375,1.04468.76611.82007Z"/>
    <path class="cls-29" d="M105.19194,111.77306c-.93848.24194-.24072,1.65088.44531.99438.50244-.4812-.02637-1.10254-.44531-.99438Z"/>
    <path class="cls-30" d="M102.37896,111.77282c-.93164.24194-.17432,1.7373.51709.93164.41504-.48413-.14551-1.02808-.51709-.93164Z"/>
    <path class="cls-10" d="M96.75347,111.77306c-.93848.24194-.24023,1.65088.44531.99438.50293-.4812-.02588-1.10254-.44531-.99438Z"/>
    <path class="cls-20" d="M93.38042,111.89513c-.74902.64038.31201,1.27661.98242.64917.18066-.31738-.47559-1.08301-.98242-.64917Z"/>
    <path class="cls-7" d="M121.37114,101.04528c-.0918-.00098-.5918.70752-.60645.87769-.09717,1.11816,2.27148.29541.60645-.87769Z"/>
    <path class="cls-18" d="M109.41704,101.47863c-.72754.73462.56299,1.55933,1.16846.43481-.28662-.3335-.73242-.87549-1.16846-.43481Z"/>
    <path class="cls-19" d="M113.50689,101.89098c.02344-.31616-.36865-.53149-.37549-.84741-1.8501.73022.28613,2.04565.37549.84741Z"/>
    <path class="cls-25" d="M118.99273,101.47863c-.37793-.37891-1.30371-.02124-.97314.63647.40332.80225,1.57617-.03271.97314-.63647Z"/>
    <path class="cls-10" d="M124.79693,102.18981c.33545-.44385-.26221-.9873-.71826-.86035-.91113.25342.06641,1.72217.71826.86035Z"/>
    <path class="cls-30" d="M115.7481,102.62316c.68262-.25342.42676-1.39331-.11719-1.30127-.62793.1062-.59277,1.18188.11719,1.30127Z"/>
    <polygon class="cls-32" points="104.82915 104.39147 112.14946 109.05187 119.56304 104.39147 104.82915 104.39147"/>
    <path class="cls-14" d="M59.56157,113.1693c.46973-.448.07959-1.15918-.45215-1.11279-.9751.08496-.27344,1.80493.45215,1.11279Z"/>
    <path class="cls-19" d="M62.46978,112.19372c-.41846-.41724-1.21973.2124-.97461.7644.46924,1.05762,1.46143-.27832.97461-.7644Z"/>
    <path class="cls-12" d="M56.58257,112.18957c-.41699-.24414-1.39062.31714-.77002.83423.74854.62354,1.37354-.48047.77002-.83423Z"/>
    <path class="cls-25" d="M54.06694,113.03259c.43262-.42725-.13281-1.05273-.71582-.85449-.78076.26489.04004,1.52148.71582.85449Z"/>
    <path class="cls-13" d="M50.86236,112.89953c.29346-.44409-.19922-.87183-.72021-.71509-.86963.26147.12256,1.62036.72021.71509Z"/>
    <path class="cls-34" d="M28.84429,112.0443c-.86475.21411.03906,2.02734.71924.99121.31787-.48389-.25635-1.10571-.71924-.99121Z"/>
    <path class="cls-27" d="M26.16021,112.05578c-.80713.06689-.47363,1.1106.10938,1.31763.89209-.19922.68311-1.3833-.10938-1.31763Z"/>
    <path class="cls-16" d="M17.36626,113.29821c.56982.29907.82227-.84375.64795-1.11768-.38037-.59814-1.72461.55273-.64795,1.11768Z"/>
    <path class="cls-5" d="M23.63628,112.05212c-.65576-.37354-1.1792.92651-.41748,1.15527,1.01709.30566.74561-.96802.41748-1.15527Z"/>
    <path class="cls-19" d="M19.91362,112.43884c-.02393.03345.24609.7522.27979.77588.30469.21484,1.19678-.24561.99658-.65063-.24561-.49756-1.03223-.46558-1.27637-.12524Z"/>
    <path class="cls-16" d="M17.75054,102.49938c.2832-.16602.53027-1.00146.01611-1.25977-1.19678-.60059-.82178,1.73169-.01611,1.25977Z"/>
    <path class="cls-14" d="M29.62359,102.11657c.47559-.44092-.43506-1.00708-.7793-.92188-.80859.20068-.11182,1.74707.7793.92188Z"/>
    <path class="cls-1" d="M23.14019,102.49938c.54639.31885,1.32471-1.1355.16357-1.28931-.83057-.10986-.46289,1.1145-.16357,1.28931Z"/>
    <path class="cls-1" d="M26.99175,101.5946c-.02051-.0354-.68018-.38965-.72119-.38696-.28809.01904-.7998.65845-.27588,1.05078.53564.40137,1.18115-.34912.99707-.66382Z"/>
    <path class="cls-11" d="M20.64995,102.38c.75-.01587.54395-1.1272-.00146-1.17065-.63281-.05029-1.07227,1.19336.00146,1.17065Z"/>
    <path class="cls-4" d="M59.67241,102.36413c.39062-.24707-.09717-1.14917-.45068-1.31812-1.16064.53149-.19678,1.72778.45068,1.31812Z"/>
    <path class="cls-35" d="M50.67583,101.21887c-.0835-.07446-.18555-.11865-.29541-.13745-1.80518,1.95776,1.67725,1.36768.29541.13745Z"/>
    <path class="cls-16" d="M56.27495,101.04601c-.2207.20947-.60596.54932-.59961.87036.02051.99561,2.15869.1499.59961-.87036Z"/>
    <path class="cls-6" d="M54.17241,102.08996c.23779-.41357-.41895-1.14233-.90137-.70825-.77637.69849.53809,1.34106.90137.70825Z"/>
    <path class="cls-10" d="M62.49712,102.17468c.52051-.43506-.09375-.97607-.56689-.84473-.15186.04224-.51611.39307-.4873.56396.29102.43994.59473.66455,1.0542.28076Z"/>
  </g>
</svg>