<?xml version="1.0" encoding="UTF-8"?>
<svg id="Capa_1" data-name="Capa 1" xmlns="http://www.w3.org/2000/svg" viewBox="0 0 150 150">
  <defs>
    <style>
      .cls-1 {
        fill: #d8233c;
      }

      .cls-2 {
        fill: #184989;
      }
    </style>
  </defs>
  <path class="cls-1" d="M14.75617,55.28187c1.3673.00015,2.73464-.00519,4.10189.00387.34544.00229.6956-.02198,1.02695.14617.50266.2551.66033.5909.49468,1.126-.18819.6079-.56874,1.09832-.9881,1.55381-.51582.56025-1.09758,1.0475-1.74667,1.45444-.51083.32026-1.04664.49198-1.65894.4808-1.17613-.02147-2.35292-.00669-3.52944-.0058-.22236.00017-.44628-.00902-.66432.04666-.73554.18786-1.22509.62012-1.41864,1.37756-.08345.32657-.13858.64937-.1382.98568.00243,2.16213.0003,4.32426.00289,6.48639.00023.18999.01189.38161.03851.56961.06968.49213.29338.87643.70756,1.18622.82931.62031,1.75127,1.07638,2.65005,1.5732,1.42642.78849,2.86847,1.54871,4.29489,2.33718.58187.32164,1.14267.68276,1.66735,1.09418.81204.63675,1.19741,1.49716,1.28609,2.50505.02365.26882.02896.53998.0288.81006-.00195,3.35436.01795,6.70902-.02309,10.06292-.01512,1.23549-.35478,2.41911-1.06713,3.45405-.73376,1.06606-1.77318,1.68841-3.02239,1.99222-.73102.17779-1.46917.24459-2.21827.24189-1.1924-.00429-2.38495.00925-3.57721-.00449-.99148-.01143-1.94909-.18328-2.85763-.6161-1.19343-.56856-1.99022-1.49017-2.48396-2.69171-.40843-.99396-.59626-2.0408-.64137-3.10821-.0342-.80945-.01576-1.6213-.01343-2.43206.00102-.35432.00928-.36046.37897-.36185.93802-.00353,1.8762-.01099,2.81406.00191.95871.01318,1.99088.84952,2.02355,1.96279.0117.3988.05006.78852.17567,1.17252.22436.68587.7068,1.08804,1.38473,1.23379.71861.1545,1.45342.14719,2.18359.06499,1.25005-.14071,1.56633-.97743,1.70887-1.7995.0054-.03113.00594-.06339.00594-.09513.00011-2.51185.00937-5.02378-.00744-7.53552-.00379-.56578-.2757-1.01463-.75724-1.35477-.9087-.64191-1.88953-1.15759-2.85497-1.70114-1.47534-.83062-2.95572-1.65232-4.42699-2.49006-.38483-.21912-.75496-.46836-1.11266-.72999-.93997-.6875-1.29356-1.68937-1.44278-2.78811-.04479-.32979-.07115-.66479-.07173-.99746-.00525-2.97297-.01513-5.94603.00317-8.91889.00769-1.24931.23701-2.46313.83147-3.58148.60756-1.14297,1.52894-1.90913,2.76263-2.32198.85505-.28614,1.72525-.3984,2.62073-.39198,1.17646.00843,2.35302.00207,3.52954.00222Z"/>
  <path class="cls-1" d="M36.91208,77.49924c0,5.3723-.01045,10.74464.01061,16.11686.00337.86139-.29626,1.18077-1.15069,1.15439-1.03219-.03187-2.06612-.00552-3.09929-.0083-.69891-.00187-.97939-.27978-.9797-.97865-.00183-4.06896-.01424-8.138.01017-12.20681.00489-.81465-.25005-1.35344-1.34232-1.32001-1.46097.04471-2.92434.01231-4.38668.0104-.70123-.00091-.98156-.27478-.98704-.97541-.00646-.82646.02514-1.6541-.00857-2.47924-.04571-1.11894.40333-1.27958,1.24593-1.26705,1.38256.02056,2.76565.00574,4.14851.00524.143-.00005.28725.00707.42878-.00854.54389-.05995.85474-.39205.88767-.93902.00477-.07922.00239-.1589.00239-.23837.00008-3.6716-.00432-7.34321.00284-11.0148.00201-1.03109-.36467-1.89154-1.13317-2.56889-.48626-.42859-1.06807-.7673-1.71555-.71736-1.27283.09818-2.22905-.48405-3.11876-1.26363-.59757-.5236-1.15355-1.08874-1.51838-1.81-.05694-.11257-.10601-.2303-.14665-.34974-.24162-.71007.07502-1.22068.82521-1.32744.14106-.02008.28543-.02305.42829-.02334,2.11387-.00424,4.23074-.08411,6.34055.03487,1.51085.0852,2.87437.62435,3.88381,1.83658.54806.65817.87084,1.4293,1.09637,2.24527.23481.84953.27769,1.71968.27717,2.59596-.00305,5.16567-.0015,10.33135-.00151,15.49702Z"/>
  <path class="cls-1" d="M50.66463,77.60798c0,5.29303.00001,10.58605-.00008,15.87907,0,.14305.00852.28692-.00359.429-.04684.54974-.34454.8331-.89299.84505-.36543.00796-.73116.00182-1.09676.00183-.77887.00002-1.55778.00403-2.33661-.00153-.57036-.00407-.88456-.284-.95192-.8469-.02065-.17258-.00957-.34919-.00958-.52396-.00033-9.99794-.00066-19.99587.00063-29.9938.00007-.55923-.01376-1.1111-.29996-1.61859-.57573-1.02085-1.40848-1.72169-2.60485-1.71313-.96501.00691-1.7637-.2792-2.50127-.85074-.70526-.5465-1.34645-1.15197-1.84897-1.8968-.13498-.20005-.2521-.41234-.32197-.63418-.24637-.78232-.00918-1.15471.78037-1.36435.13549-.03598.28451-.02794.42732-.02837,2.12984-.00651,4.26234-.08085,6.38847.03432,1.31825.07141,2.53977.51083,3.52774,1.46419.67075.64724,1.07488,1.4422,1.35398,2.30951.30963.96219.38228,1.96411.38456,2.9641.01183,5.18174.0055,10.36351.00551,15.54527Z"/>
  <path class="cls-1" d="M64.32518,77.51597c0,5.34069-.00848,10.68142.00868,16.02205.00273.84968-.22291,1.27538-1.23375,1.23406-1.01562-.04152-2.03427-.00634-3.05157-.0102-.68379-.0026-.94492-.26367-.96477-.95232-.00504-.17471-.00169-.34967-.0017-.52451-.00006-9.93433-.00069-19.86866.00102-29.80299.00015-.86569-.17463-1.66923-.766-2.33873-.56964-.6449-1.27113-1.12837-2.13735-1.07878-1.18265.06771-2.0817-.43816-2.91972-1.15376-.73829-.63044-1.42461-1.30949-1.79958-2.23382-.19489-.48041-.09916-.93818.26247-1.14741.20141-.11653.41584-.23082.66879-.2282.30173.00312.60367-.01949.90549-.01865,1.89146.00525,3.78538-.04301,5.67356.03935,1.53117.06679,2.92159.58762,3.94316,1.81885.76132.91757,1.12979,1.9975,1.29041,3.16827.11721.85438.12172,1.70969.12149,2.5676-.00128,4.87973-.00062,9.75946-.00063,14.63919Z"/>
  <path class="cls-2" d="M119.68957,87.67254c-.21036.38755-.2219.75794-.30225,1.09997-.24642,1.04886-.45386,2.10704-.66642,3.16363-.16158.80326-.15428.79574-.97635.74946-.23892-.01345-.33527-.11821-.37938-.33375-.14934-.72991-.30855-1.45781-.46107-2.18708-.17163-.82065-.34008-1.64197-.51676-2.49613-.18118.10295-.14523.25476-.14282.37603.01651.82579.02574,1.65224.06846,2.47687.06663,1.28592.0524,2.57268.07057,3.85908.00502.3554-.00849.36799-.38474.36295-.31447-.0042-.69928.13182-.92566-.06292-.23737-.20419-.0933-.59897-.094-.9082-.00721-3.19373-.00446-6.38748-.00434-9.58123,0-.143.00682-.28624.00055-.42894-.00937-.21319.06458-.3246.29991-.31602.33323.01216.66783.01458,1.00074-.00156.22162-.01075.30932.08558.35091.28866.1208.58994.25812,1.1765.3815,1.76593.15906.75993.30802,1.52197.46676,2.28197.13286.63614.27269,1.27083.41171,1.90567.01896.08654-.00567.1944.10289.24488.11714-.03171.12084-.13338.14038-.2253.33933-1.59646.68536-3.19156,1.0133-4.79036.07957-.38796.15542-.77708.23102-1.16586.04646-.23899.15382-.31543.3848-.30538.33307.01449.66731.0094,1.00085.00269.19568-.00393.30062.06417.28743.27407-.00696.11076.00015.22236.00015.33358.00008,3.36854.0001,6.73708,0,10.10562,0,.11122-.00391.22251-.00127.33365.00436.18314-.09046.25431-.26458.25245-.28599-.00306-.5722-.00694-.85798.00137-.23295.00677-.30908-.11757-.30435-.32438.00254-.11113.00968-.22214.01226-.33327.04496-1.93701.09075-3.874.13209-5.81109.00367-.17166.03464-.3487-.07431-.60707Z"/>
  <path class="cls-2" d="M99.56837,89.13328c-.00008,1.22364-.00516,2.44732.00297,3.67091.00248.37401-.07456.73223-.21318,1.0676-.23709.57363-.72463.83366-1.31634.86068-.66597.03042-1.33603.03786-2.0013.00097-.95628-.05303-1.41989-.65304-1.47968-1.43475-.02786-.36433-.06169-.72677-.06119-1.09284.00284-2.09768.00564-4.19537-.00236-6.29302-.00153-.39948.03784-.79348.0896-1.18621.09503-.72104.65741-1.2448,1.38374-1.26736.69853-.02171,1.39859-.01894,2.09734-.00134.66575.01676,1.17029.43265,1.35834,1.06729.10006.3377.14827.67819.14558,1.03251-.00906,1.1918-.00344,2.3837-.00353,3.57556ZM95.97251,89.08367c0,.95332-.00019,1.90665.00012,2.85997.00009.2701-.00976.54082.00494.81017.02656.48634.23238.68574.71438.70777.17443.00798.35044-.00961.52412.00444.63918.05168.8658-.23678.89524-.88114.0029-.06344.00133-.12709.00133-.19065.00003-2.19265.0004-4.38529-.00091-6.57794-.00009-.1426.00016-.28738-.02276-.42737-.07046-.43045-.22305-.59084-.64758-.63001-.28313-.02611-.57339-.02579-.85595.00459-.43085.04632-.57601.21724-.60847.65-.00949.12646-.00426.25409-.00429.38118-.00024,1.09632-.00014,2.19265-.00016,3.28897Z"/>
  <path class="cls-2" d="M114.47322,75.65806c0,1.46162.00009,2.92324-.00016,4.38486-.00002.12708-.00378.25416-.00307.38123.00072.13057-.04899.2137-.19155.21386-.36536.0004-.73072.00033-1.09608.00012-.14169-.00008-.19385-.08106-.19302-.21239.0007-.11117-.00314-.22238-.00318-.33356-.00035-1.06444.0025-2.12888-.00184-3.1933-.0017-.4179-.01798-.43234-.42575-.43907-.36529-.00604-.73077.00199-1.09617.00122-.17514-.00037-.26457.08251-.26851.25778-.00321.14288-.00984.28575-.00997.42862-.00094.96911-.00003,1.93823-.0012,2.90734-.00015.12688-.00524.254-.01429.38057-.00927.12986-.08044.20257-.21461.20282-.33359.0006-.66718-.00005-1.00077.00027-.1394.00013-.19816-.07529-.19893-.20778-.00055-.0953-.00366-.1906-.00366-.28589-.0002-2.98678-.00036-5.97356.00062-8.96033.00005-.14278-.00305-.2877.01875-.42798.12397-.79721.62763-1.41134,1.57172-1.41571.50838-.00235,1.01681-.00475,1.52515.00035.94485.00947,1.46537.59608,1.59177,1.50387.02612.18747.0141.38069.01423.57126.00094,1.41395.00051,2.82791.00052,4.24186ZM112.98588,73.04933c0-.52324.00253-1.0465-.00064-1.56971-.00409-.67741-.17079-.84276-.84533-.8483-.07927-.00065-.15889-.00372-.23778.00209-.4516.03323-.66066.22488-.70295.67601-.02362.25174-.01494.50682-.01517.7604-.00083.88791-.00496,1.77589.0042,2.66371.00399.3871.02575.39997.40921.40738.33286.00643.6661.00752.99888-.00065.36175-.00887.38226-.02591.387-.37854.00769-.5707.00207-1.14158.00257-1.71238Z"/>
  <path class="cls-2" d="M80.00277,60.85372c0-1.66921-.00002-3.33842.00006-5.00763,0-.11128.00511-.22274.00041-.33379-.00934-.22116.08816-.31307.31342-.30789.429.00988.85871-.00822,1.28757.00427.56972.01658,1.13758-.03165,1.70981.07477.85548.15909,1.32619.826,1.39774,1.58173.02094.22114.02463.44454.02479.66692.00167,2.40049.00224,4.80097-.00051,7.20146-.00033.28454.01566.57321-.08072.84896-.21763.62263-.71947.90141-1.31793.92883-1.01536.04652-2.0343.01271-3.05169.01929-.20778.00134-.28428-.09477-.28199-.28775.00247-.20662-.00088-.41331-.0009-.61997-.00013-1.58972-.00007-3.17945-.00007-4.76917ZM83.31247,60.99284c0-1.1423.00069-2.28461-.00087-3.42691-.00019-.14243.00343-.28769-.02193-.42668-.06425-.35225-.3007-.59204-.62963-.61515-.29996-.02107-.60249-.00562-.90388-.00673-.17725-.00065-.25947.09669-.26707.26429-.00647.14254-.00832.28539-.00835.4281-.00048,2.39566-.00038,4.79132-.0003,7.18698,0,.14279-.00448.28584.00252.4283.01733.35258.04433.3823.38458.39469.22184.00808.44427.00564.6663.00127.62257-.01225.77661-.16909.77794-.80126.0024-1.1423.00068-2.28461.00069-3.42691Z"/>
  <path class="cls-2" d="M82.6507,89.69497c.0001-1.46248.00023-2.92496,0-4.38744-.00005-.33546.02506-.66217.17203-.97598.25305-.54035.67484-.84206,1.25956-.86997.60266-.02876,1.20828-.02326,1.81161-.00305.71085.0238,1.26349.52233,1.38063,1.21924.0552.32846.08915.65865.08845.99483-.00583,2.79778-.00414,5.59558-.00277,8.39336.00038.77698.00934.67534-.66003.68134-.17485.00157-.34999-.00657-.52453.00075-.20138.00845-.28741-.0754-.28264-.28037.00815-.34952.00118-.69938.00102-1.04911-.0004-.82662.00407-1.65328-.00299-2.47984-.00289-.3382-.02558-.35898-.34704-.36764-.36537-.00983-.73136-.00923-1.09678-.00049-.31893.00762-.33743.0258-.34996.36762-.01222.33341-.00544.66754-.00568,1.00135-.00052.73124.00092,1.46248-.00055,2.19372q-.00124.61361-.63805.61414c-.19075.00008-.3815-.00354-.57224-.00247-.15872.00088-.23121-.07624-.22803-.23339.00224-.1112-.00199-.22251-.002-.33377-.00017-1.49428-.00012-2.98855-.00001-4.48282ZM85.89311,87.2069h-.00229c0-.58737.01103-1.175-.00359-1.762-.01107-.44459-.19404-.63107-.62869-.68911-.10946-.01461-.22189-.0135-.33269-.01041-.62573.01744-.82445.2102-.83142.83163-.00802.71429-.00298,1.42873-.00285,2.1431.00008.39686-.00629.79396.00498,1.19053.00985.34634.02386.35843.3455.36545.36496.00798.73039.00818,1.09532-.00023.334-.0077.34889-.01985.35354-.3545.00794-.57139.00219-1.14297.00219-1.71447Z"/>
  <path class="cls-2" d="M79.84499,75.00222c-.00009,1.25583.0006,2.51166-.00078,3.7675-.00022.20615.00783.41358-.04914.61566-.23092.81894-.77482,1.24259-1.633,1.25475-.58807.00832-1.17734.02186-1.7643-.00532-.74249-.03437-1.40451-.43068-1.52567-1.2906-.03543-.25143-.08671-.50414-.08741-.75639-.00668-2.40037-.00495-4.80075-.00285-7.20114.00025-.28682.04649-.56951.11045-.8494.16271-.71198.62685-1.14959,1.35506-1.18494.71362-.03465,1.43145-.03366,2.14522-.00065.84311.03899,1.40681.67431,1.44247,1.5972.03312.85717.00919,1.71655.00996,2.57496.00045.4928.00008.98559-.00001,1.47838ZM78.37938,75.02137c0-.46092.00005-.92184,0-1.38276-.00009-.69933.00539-1.39871-.00196-2.09796-.00773-.73571-.178-.90229-.90001-.90935-.14304-.0014-.28624-.00391-.42913.0009-.56591.01903-.7417.18699-.77302.73622-.00543.09513-.00564.19064-.00565.28598-.00023,2.22513-.00059,4.45026.00101,6.67539.00012.15858.00339.31886.02592.47536.04335.3012.14795.40498.449.47134.29855.06581.60218.04218.9029.03309.56278-.01699.69184-.14967.72575-.71225.0086-.14259.00493-.28599.00498-.42901.00033-1.04899.00019-2.09798.00022-3.14697Z"/>
  <path class="cls-2" d="M69.20008,89.05743c-.0001-1.66834-.00013-3.33667-.00003-5.005,0-.11122.00769-.22289.00013-.33356-.01452-.21272.09471-.28096.28847-.27061.11088.00592.22238-.00026.33361-.00019.73091.00043,1.46198.01085,2.1927-.00092.8305-.01338,1.74476.5295,1.83489,1.62399.02604.31635.06062.63067.06033.94887-.00207,2.25622-.00171,4.51244-.00029,6.76866.00016.25474-.02681.50506-.05937.75792-.08031.62364-.50324,1.02422-1.1095,1.13577-.17109.03147-.3456.06059-.51875.06184-.87387.00633-1.74783.00607-2.62173.0019-.39109-.00187-.39843-.00845-.39907-.39767-.00289-1.76366-.00127-3.52733-.00137-5.29099ZM70.61944,89.11618c0,1.03153-.00036,2.06307.0002,3.09461.00017.31737.00183.63476.00478.95211.00172.18454.07397.302.28146.29907.33316-.0047.66784.01536.99921-.00996.34548-.02641.50015-.20889.52889-.55896.00777-.09464.00346-.19033.00346-.28554.00013-2.26938.00024-4.53876-.0003-6.80813-.00003-.12686.00449-.25492-.01046-.38036-.04717-.39594-.23688-.61041-.63081-.65401-.29796-.03297-.60186-.01471-.90311-.01451-.17635.00012-.25527.1062-.26383.2716-.00656.12668-.009.2537-.00906.38057-.00063,1.23784-.00038,2.47568-.00044,3.71353Z"/>
  <path class="cls-2" d="M110.97113,89.15464c-.00007,1.20746.00238,2.41493-.00178,3.62238-.00104.30066.01152.60498-.08222.89746-.2148.67028-.70103,1.01888-1.37842,1.05671-.68097.03803-1.36774.04272-2.04822.00092-.8449-.0519-1.32447-.52727-1.45648-1.36666-.03683-.23415-.05132-.47406-.05168-.71137-.00367-2.36725-.00222-4.73452-.00222-7.10178,0-.38227.02603-.75826.16051-1.12409.22925-.62357.69104-.93898,1.32905-.9678.68178-.03081,1.36637-.02206,2.04906-.00431.78343.02037,1.37658.58565,1.45384,1.36219.02352.2366.02692.47588.02744.71396.00259,1.20746.0012,2.41492.00113,3.62238ZM109.546,89.11682c0-.09518.00002-.19036,0-.28554-.00022-1.11043.00429-2.2209-.00293-3.33128-.00303-.46685-.18369-.6759-.63179-.73555-.31431-.04184-.63442-.04751-.9482.009-.34764.0626-.52069.26136-.5512.61029-.01103.12603-.00531.25364-.00532.38052-.00024,1.85601-.00023,3.71202-.00014,5.56804.00002.46003.0043.92012-.00097,1.38009-.00228.19999.04822.37728.18048.52587.26733.30031,1.4519.33216,1.74365.05422.19067-.18162.21828-.40865.2176-.65401-.00327-1.17388-.00146-2.34777-.00118-3.52165Z"/>
  <path class="cls-2" d="M102.34223,78.35927c-.00036.65153-.00643,1.30316.00278,1.95455.00342.24215-.0818.35549-.33171.3292-.35741-.03761-.80055.15433-1.05231-.09086-.21643-.21079-.07084-.63662-.07137-.96636-.00523-3.16232-.00314-6.32465-.00313-9.48699,0-.07946-.00034-.15891.00008-.23837.00277-.52092.00283-.52255.51978-.52324.82636-.00111,1.6528-.00593,2.47909.00206,1.03626.01001,1.60046.54648,1.61971,1.58055.02129,1.14368.00692,2.28806.00451,3.43212-.00127.60412-.18386,1.1294-.70989,1.47797-.15567.10316-.15036.22386-.11703.36932.23003,1.00395.45159,2.00997.69476,3.01073.09746.40106.12068.8175.26515,1.20816.0488.13192-.00047.2196-.15091.22065-.33368.00232-.6674-.00123-1.00108.00098-.18012.0012-.18716-.1353-.2148-.25766-.13623-.60289-.28451-1.20339-.40548-1.80933-.14277-.71502-.34488-1.41686-.45403-2.13961-.05305-.35137-.10398-.37189-.47769-.38184q-.59426-.01584-.59589.59171c-.0009.57208-.00019,1.14416-.00054,1.71624ZM102.34256,72.74689c0,.4128-.00001.82562,0,1.23842q.00003.89159.88156.8426c.62559-.03477.85716-.25355.86964-.88535.01595-.80941.00463-1.61938.00309-2.42911-.00015-.07894-.00894-.15875-.02246-.23665-.0719-.4146-.27893-.60979-.69945-.64057-.20537-.01502-.41273-.00861-.619-.0038-.39328.00915-.40646.01703-.41102.39973-.00681.5715-.00177,1.14313-.00235,1.71472Z"/>
  <path class="cls-2" d="M144.99932,89.11413c-.00001,1.19174.00218,2.38349-.00177,3.57522-.00084.25356-.00071.51083-.04127.75984-.1153.70797-.53065,1.14372-1.24385,1.24857-.78785.11582-1.58704.10715-2.37526.00962-.88739-.10979-1.20292-.65107-1.33921-1.43697-.02685-.15484-.01473-.31703-.01478-.47583-.00073-2.46294-.00034-4.92587-.0007-7.3888-.00005-.31808.01247-.62866.13097-.93575.2453-.63561.7144-1.00057,1.40011-1.01515.6512-.01385,1.30315-.01452,1.95434-.0008.77829.01639,1.35384.51302,1.4837,1.27763.04222.24871.04484.50606.04578.75953.00439,1.20761.00196,2.41526.00194,3.62289ZM143.5586,89.08498c0-.66726.0008-1.33452-.00026-2.00178-.00086-.54013.00773-1.08064-.00961-1.62028-.01502-.46736-.19689-.65372-.66293-.70507-.20429-.02251-.41274-.01857-.61878-.0117-.61565.02049-.82519.22596-.86141.83317-.00473.07921-.00327.15882-.00327.23824-.00016,2.19242-.00109,4.38485.00172,6.57727.00022.17364.00698.35175.04525.51992.07475.32841.30179.52379.63462.54206.30089.01651.60445.0178.90499-.00204.29552-.01952.49359-.21334.53842-.51103.02823-.18735.02941-.37989.02986-.57013.00254-1.09621.00125-2.19242.0014-3.28863Z"/>
  <path class="cls-2" d="M99.4499,75.63765c-.00002,1.44672.00013,2.89344-.00026,4.34016-.00003.12714-.00431.25429-.00523.38144-.00141.19298-.08671.29114-.29071.28396-.22229-.00783-.4451.00044-.66767-.00087-.47219-.00277-.47525-.00344-.47624-.4607-.0021-.96977-.00069-1.93956-.00073-2.90934,0-.11129.00123-.22259-.00036-.33385-.0067-.47213-.00699-.47405-.48338-.47979-.30203-.00364-.60426-.00567-.90618.00096-.38095.00837-.40466.02265-.40799.41166-.00859,1.0015-.00391,2.00312-.00476,3.00469-.00012.14307-.00462.28622-.00172.42922.00467.23051-.07818.35563-.33578.34022-.26931-.0161-.54075-.01308-.81047-.00094-.23215.01044-.31488-.09827-.3046-.31308.00379-.07926-.00158-.15893-.00158-.23841-.00009-2.90934.00016-5.81867-.00033-8.72801-.00005-.27094.02586-.53742.07606-.80496.14633-.77984.71693-1.17076,1.33986-1.20591.618-.03488,1.24117-.03741,1.859-.00136.79093.04616,1.29698.5779,1.38667,1.37385.04826.4282.03534.85733.03588,1.28632.00153,1.20825.00054,2.4165.00052,3.62475ZM98.00851,73.07292c0-.57131.00621-1.14271-.00193-1.7139-.00677-.47472-.22033-.69228-.69102-.72537-.11057-.00777-.22224-.00544-.33317-.00148-.55148.01971-.74584.19348-.76263.74185-.01991.65008-.01131,1.30107-.01287,1.95167-.00114.47608-.00672.95236.00473,1.42819.00862.35797.03361.37817.38232.3864.33309.00786.66662.00725.99975.00047.3891-.00791.4085-.02414.41314-.40153.00684-.55536.00176-1.11086.00167-1.6663Z"/>
  <path class="cls-2" d="M69.19997,60.84112c0-1.66911-.00002-3.33823.00005-5.00734,0-.11127.00627-.22286-.00007-.33375-.01104-.19306.05583-.29505.26824-.29374.95375.00587,1.90924-.03065,2.86084.01542.86545.04189,1.34682.54284,1.47123,1.4056.02033.14098.02513.28517.02544.4279.00217.98557.00367,1.97115.00045,2.95671-.0022.67448-.13389,1.29884-.73538,1.71561-.19346.13404-.12589.31576-.09075.47495.14691.66564.31362,1.32686.46674,1.99117.16019.69503.31247,1.39188.46965,2.0876.04422.19573-.04722.23959-.22741.25184-1.08766.07389-1.08562.07735-1.31253-.99655-.21634-1.02383-.43337-2.04756-.65895-3.06937-.03962-.17946-.04105-.42321-.23726-.49025-.23682-.08091-.50186-.05341-.7528-.00681-.09319.0173-.10945.11009-.11511.18812-.01033.14247-.01224.28576-.01237.42872-.00098,1.16043.00178,2.32087-.0021,3.48129-.00151.45374-.00825.46766-.44319.45688-.31102-.0077-.70233.14182-.91202-.08531-.18679-.20233-.05877-.57871-.05989-.87751-.00595-1.57371-.00279-3.14746-.00279-4.72119ZM70.62016,58.58123h-.00072c0,.41329-.00426.82664.00084,1.23987.01229.99564-.14788.90782.98017.90136.07821-.00045.16014-.01198.23377-.03739.31168-.10751.52571-.30971.52865-.65645.00796-.93773.01527-1.87578-.00165-2.81326-.00784-.43474-.29308-.6804-.74141-.69906-.19043-.00793-.38155-.00562-.5722-.00123-.40161.00924-.42011.02304-.42571.44478-.00718.54037-.00175,1.0809-.00175,1.62137Z"/>
  <path class="cls-2" d="M88.70704,74.96643c-.00021-1.63583-.00035-3.27166.00002-4.90749.00003-.1429.00369-.2858.00514-.42871.0019-.18702.07427-.29485.28283-.29317.92108.00744,1.84449-.03078,2.76265.02299.90257.05286,1.44892.64718,1.58469,1.44487.05877.34534.09838.69078.09821,1.04139-.00114,2.2711.00048,4.54221-.00236,6.81331-.00026.20558-.0224.41141-.03996.61665-.07287.85189-.63208,1.32141-1.54604,1.35658-.88813.03419-1.77855.01099-2.66796.0089-.46695-.00109-.47466-.00502-.47563-.48197-.00351-1.73112-.00138-3.46224-.00158-5.19336ZM90.14767,74.99072c0,1.14271-.00882,2.28551.0027,3.4281.00975.96801-.18266.89262.87612.89394.86102.00107.92196-.0609.92283-.91662.00221-2.17432.00141-4.34864-.00039-6.52296-.00017-.20605-.00462-.41331-.02685-.61786-.03921-.36097-.2044-.56294-.55933-.60381-.32886-.03786-.66517-.01399-.99815-.01154-.13057.00096-.20302.07787-.20891.20867-.00572.12675-.00762.25377-.00767.38067-.00052,1.2538-.00033,2.50761-.00035,3.76141Z"/>
  <path class="cls-2" d="M127.44681,88.32072c-.00006,1.42983.00497,2.85969-.00297,4.28947-.00256.4613-.0706.91218-.28243,1.33655-.20864.41803-.54155.66154-.98675.73793-.75627.12976-1.5197.09289-2.2774.01736-.59738-.05956-.96517-.43776-1.16938-.98371-.12915-.34533-.17932-.70573-.17926-1.07408.00049-2.90732-.0007-5.81465.00102-8.72197.00028-.46929.00572-.4703.47659-.47377.2383-.00175.4767.00528.7149.00029.18457-.00387.25661.088.25432.26134-.00169.12706.00155.25417.00155.38127.00013,2.74845.01134,5.49698-.007,8.24531-.00524.78707.15632,1.17585,1.14535,1.14008.53501-.01935.82583-.24827.84192-.79603.0042-.14288.00374-.28592.00375-.42889.0002-2.70079.00013-5.40159.0002-8.10238.00001-.12709.0065-.25447.00013-.38122-.01248-.24829.10392-.34606.34572-.32054.35772.03776.80447-.15587,1.05193.09313.20803.20932.0632.63677.06502.96701.00702,1.27092.00284,2.5419.00278,3.81286Z"/>
  <path class="cls-2" d="M133.68657,88.39337c0-1.44591-.00009-2.89182.00016-4.33773.00002-.12709.00587-.25427.00256-.38125-.0043-.16465.08172-.22498.23493-.22388.31774.00228.63549.00256.95324.00136.15889-.0006.23096.08669.23853.23384.00814.15853.01091.3175.01095.47627.00063,2.70115.00007,5.4023.00129,8.10344.00009.19041-.00686.38371.02202.57064.06153.39859.30811.60839.7128.62544.19032.00802.38179.0098.57185-.00097.38589-.02187.57383-.18542.63832-.57264.03106-.18642.03155-.37932.03167-.56929.00186-2.76471.00112-5.52941.00148-8.29411.00009-.64683-.00671-.57644.56224-.57371.28325.00136.63613-.11699.83263.05866.22519.20128.08578.57265.08661.8676.00763,2.68524.00342,5.37051.00493,8.05577.0003.54534-.06263,1.07333-.33408,1.56157-.22437.40356-.56042.64131-1.01281.70413-.72701.10096-1.45978.10232-2.18459.01065-.83725-.10588-1.26845-.66659-1.35567-1.69304-.05498-.647-.01755-1.30198-.0187-1.95338-.00156-.88979-.0004-1.77958-.00038-2.66937Z"/>
  <path class="cls-2" d="M88.77142,89.10885c0-1.66725-.00002-3.3345.00003-5.00175,0-.11115.00767-.22283-.00058-.33334-.01843-.24694.09194-.33347.33573-.32892.60319.01125,1.20675.00324,1.81015.00323.25407,0,.50847.00932.76214-.00052.90166-.03496,1.60815.65329,1.61882,1.61669.00651.58744.00333,1.17499.00362,1.76249.00034.69866.00763,1.39742-.00222,2.09595-.01657,1.17359-.68965,1.65919-1.67518,1.72783-.34769.02421-.69857-.00146-1.04771.00714-.32947.00812-.3492.02184-.35149.35786-.00698,1.03206-.00305,2.06419-.00376,3.0963-.00009.127-.00098.25405-.00422.38099-.00446.17498-.09444.25658-.27095.25413-.25401-.00353-.50818.00389-.76216-.00038-.39359-.0066-.40675-.0157-.4106-.39779-.00576-.57157-.00164-1.14324-.00165-1.71487-.00002-1.17502,0-2.35003,0-3.52504ZM90.22213,87.04604h-.00095c0,.49261-.00667.98534.00151,1.47781.01364.82175-.16971.81571.83074.80346.6356-.00777.8225-.19558.83301-.83352.01022-.61957.0028-1.23944.00279-1.85918,0-.36548.00794-.73123-.00307-1.09639-.01585-.52573-.22927-.74678-.75251-.78838-.17376-.01382-.34972-.01117-.52411-.00345-.34449.01524-.38051.04455-.38505.39279-.00829.63552-.00235,1.27122-.00235,1.90685Z"/>
  <path class="cls-2" d="M70.47398,72.29515c0,.302.01054.60448-.00306.90586-.01284.28476.09294.49178.33881.63042.45453.25631.90144.52768,1.3665.76318.29863.1512.5821.32426.86092.50466.34209.22134.51774.53822.51382.96005-.00901.96949.00854,1.93929-.00625,2.90865-.01557,1.02137-.66181,1.65499-1.68094,1.67272-.39726.00691-.79491.0081-1.19209-.00111-.78249-.01814-1.32018-.42873-1.54761-1.17084-.11842-.3864-.10422-.78481-.107-1.18214-.00123-.17516.06442-.26634.24973-.26363.30193.00442.60427.00868.90591-.00194.23652-.00833.30582.11386.30039.32246-.00331.12697-.00516.25501.00693.38116.03325.34644.18632.5064.53179.56793.04681.00834.09453.0146.14198.01585.74176.01966.92399-.09591.92847-.8443.00324-.5404-.00676-1.08096.00288-1.62121.00684-.38319-.11293-.65853-.47974-.84717-.60489-.31109-1.1795-.68061-1.78071-.9994-.5281-.28003-.81093-.68226-.80377-1.29149.01046-.88992.00256-1.78005.00453-2.67009.00056-.25655.06243-.49833.15304-.74032.21984-.58716.65321-.89818,1.25479-.93921.55371-.03776,1.11383-.03885,1.66772-.00316.81535.05253,1.31849.58248,1.42963,1.45626.04977.39133.00914.79366.01878,1.19077.00503.20743-.09672.28514-.28834.28312-.07943-.00084-.15923.00767-.2383.00285-.28332-.01728-.6204.10867-.83684-.0676-.23385-.19046-.07229-.53961-.10251-.81739-.03139-.28863-.04083-.58005-.38304-.69695-.34819-.11893-.68747-.12425-1.00159.08874-.17207.11668-.22247.302-.22281.50195-.00056.33378-.00015.66756-.00015,1.00134h-.00188Z"/>
  <path class="cls-2" d="M24.06872,66.00544c0-1.41256-.00007-2.82511.00013-4.23767.00002-.12696.00463-.25398.00224-.38087-.0034-.18094.08581-.25292.26237-.25157.76176.00585,1.5251-.02218,2.2849.01818.76789.0408,1.35393.44011,1.46857,1.39425.01886.157.03086.31588.03101.47391.002,2.14264.00122,4.28529.00153,6.42793.00004.30264-.01518.60332-.1572.87911-.23386.45412-.67143.58417-1.11804.60348-.82378.03561-1.65018.02021-2.47529.01033-.27825-.00333-.29692-.04041-.2983-.41372-.00422-1.14273-.00178-2.28548-.00191-3.42822-.00004-.36504,0-.73009,0-1.09513ZM25.28596,66.04667c0,1.12703-.00356,2.25407.00203,3.38107.00183.36979.01769.3782.3724.3893.20616.00646.41288.00661.61901-.0004.47293-.01607.58527-.12286.58624-.60491.00415-2.06356.00504-4.12714-.0018-6.19069-.00186-.56141-.18468-.73729-.73683-.76662-.11083-.00589-.22221-.0032-.3333-.00173-.49605.00657-.5061.01269-.50737.50815-.00281,1.09527-.00088,2.19056-.00037,3.28584Z"/>
  <path class="cls-2" d="M18.52589,70.90304c-.32227.07994-.62238.03904-.91991.04073-.18339.00104-.24187-.12447-.27739-.27038-.10114-.41546-.22162-.82778-.29405-1.24829-.12128-.70414-.2919-1.39653-.45346-2.09124-.02991-.12859.00058-.31317-.19572-.33834-.21951-.02815-.44975-.06282-.6571.03015-.11026.04943-.08112.19642-.08164.30553-.00242.50828-.00171,1.01658-.00192,1.52488-.00024.57183.00423,1.14372-.00206,1.71548-.00382.347-.01768.37069-.33629.37421-1.05873.01171-.88537.06794-.88782-.83583-.0076-2.79561-.00226-5.59125-.00309-8.38688-.0002-.68665.02758-.58324.60512-.58728.63536-.00444,1.27084-.00606,1.90616.00059.9827.01027,1.4661.47596,1.48238,1.45683.01581.95275.00156,1.90598.00367,2.859.00114.51859-.14048.97656-.57376,1.29539-.16579.12199-.14581.26135-.11096.41982.18717.85104.37672,1.70158.56068,2.55332.08328.38559.15554.77354.23718,1.18231ZM15.64596,64.07081h-.0013c0,.3654-.00242.73081.0005,1.09619.00612.76473-.0922.72448.71543.72149.62514-.00231.82149-.19638.83229-.83016.00947-.55588.00283-1.11204.00248-1.66808-.00064-1.00653-.22239-1.20841-1.2122-1.14014-.23728.01637-.3446.09761-.33997.3433.00928.49231.00276.98492.00276,1.47741Z"/>
  <path class="cls-2" d="M75.31288,89.10645c0-1.66909,0-3.33819.00002-5.00728,0-.09537-.00231-.19083.0008-.28611.01138-.34894.012-.36042.33868-.36233,1.00146-.00587,2.003-.00583,3.00446.00003.33083.00193.35238.01933.35302.3563.00214,1.12225.10818.91436-.88084.93536-.34958.00742-.69942.00602-1.04912.00378-.22051-.00141-.31141.10264-.31045.32145.00423.96963.00567,1.93932-.00086,2.90893-.00162.23932.12613.30032.32823.3006.4133.00058.82666-.00128,1.23988.00537.42874.00691.43376.01405.44251.42173.00409.19066-.00785.38194.00243.57213.01288.23799-.07191.34547-.32677.3366-.42868-.01493-.85835-.00822-1.28746-.0018-.38627.00578-.39431.01096-.39616.41014-.00472,1.01733-.00528,2.03472.00059,3.05204.0021.36396.02174.38187.37481.38776.50856.00849,1.01755.01174,1.52595.00006.24431-.00561.34997.08658.34093.33009-.00825.22223-.00496.44501-.00226.66749.00236.19464-.0798.28987-.28395.28916-1.04917-.00363-2.09836-.00437-3.14753.00003-.25649.00108-.26806-.15842-.26755-.34811.00228-.84249.0007-1.68499.00063-2.52749-.00008-.92198-.00001-1.84396-.00001-2.76593Z"/>
  <path class="cls-2" d="M75.16082,60.86255c0-1.63574-.00004-3.27149.00009-4.90723.00001-.12704-.0042-.2544.00303-.38107.01905-.33341.0364-.36242.35603-.36448,1.01637-.00656,2.03284.00139,3.04921-.00497.22578-.00141.31682.08746.30737.31021-.00942.22192-.0105.44501.00066.66679.01213.24089-.07936.34205-.32972.33526-.47609-.01293-.95281-.00612-1.42923-.00207-.44959.00383-.46056.0076-.46409.4478-.00712.88927-.00728,1.77869.00058,2.66795.00338.38217.02659.39928.41186.40793.39686.00891.79426-.00425,1.19099.00732.32182.00938.34062.03489.35096.36462.00697.2221-.00504.44479.00203.66688.00638.20048-.07722.28718-.28069.2842-.4287-.0063-.85764-.00539-1.28636.00081-.36679.00531-.38443.01245-.38734.37202-.00837,1.03218-.00875,2.06453-.00005,3.09671.0031.36831.03132.38438.42799.38925.47638.00585.95296-.00339,1.4293.00404.34476.00537.36158.01342.35866.34594-.01031,1.17301.15451.93761-.88819.95678-.76205.01401-1.52459.00397-2.2869.00224-.52845-.0012-.53391-.00302-.53495-.5215-.00299-1.49281-.00117-2.98563-.00124-4.47844-.00001-.22233,0-.44467,0-.667Z"/>
  <path class="cls-2" d="M102.73017,88.25831c.18201-.23136.1937-.5207.2499-.79102.25154-1.20962.49357-2.42121.7447-3.63091.07884-.37975.08696-.38673.46618-.38552.32909.00105.66141-.03635,1.02881.0406-.1505.61539-.29152,1.21291-.44323,1.80773-.25442.99758-.51624,1.99327-.77376,2.99006-.16221.62788-.31299,1.25891-.48787,1.88321-.06948.24804-.10995.4922-.10909.74893.00389,1.14345.0039,2.28694.00013,3.43039-.00128.38625-.00824.38871-.40189.39478-.25403.00392-.50821-.00333-.76228-.00069-.17932.00186-.26107-.09001-.26731-.26037-.00465-.12691-.00735-.25396-.00744-.38096-.00065-.84172-.01558-1.68381.00453-2.52504.01571-.65694-.06537-1.29098-.23907-1.92585-.46799-1.71067-.90951-3.4286-1.3601-5.14402-.08408-.32003-.12217-.65092-.2801-.98992.4627-.12791.88511-.05977,1.30184-.05879.13786.00033.16666.13466.19387.23903.09985.38294.19817.7665.28551,1.15244.2412,1.06598.47615,2.1334.71522,3.19986.01718.0767.04249.15367.14145.20605Z"/>
  <path class="cls-2" d="M81.24291,75.0017c0-1.68416-.00011-3.36833.00023-5.05249.00003-.12706.00088-.2542.00562-.38114.00567-.15157.08205-.23071.23935-.22971.31775.00203.63557.00352.95328-.00075.1848-.00249.25474.09343.25447.26429-.00023.14299.00263.28597.00264.42896.00017,2.84401.0001,5.68802.0002,8.53203,0,.1271-.00447.25452.00264.38125.01764.3146.0458.35353.36805.36364.44448.01395.88978.00001,1.33448.0095.35737.00763.3793.03301.39132.3784.00718.20629-.00664.4134.00285.61949.01115.2422-.08636.33585-.33473.33118-.65121-.01224-1.30281-.00364-1.95426-.00374-.33366-.00005-.66742-.00592-1.00095.00047-.18317.0035-.26051-.08243-.26228-.25529-.0013-.12709-.00278-.25418-.0028-.38127-.00018-1.66827-.00012-3.33655-.00012-5.00482Z"/>
  <path class="cls-2" d="M130.57842,83.44898c.60377,0,1.20768.00717,1.81127-.00353.24095-.00427.33348.08708.35347.32725.07888.94785.06853.96602-.86031.97078-.07944.00041-.15914-.00294-.23828.00222-.31077.02028-.346.0545-.36462.36927-.00749.1267-.00267.25414-.00267.38124-.00009,2.85989-.00003,5.71979-.00022,8.57968-.00001.14298-.00448.286-.00249.42894.00246.17782-.0802.23926-.25899.25494-1.17301.10285-1.17266.10684-1.17267-1.06704-.00002-2.76456.0005-5.52913-.00045-8.29369-.00022-.65322-.00257-.64919-.66297-.65662-.81343-.00915-.79278.13464-.78697-.80216.00303-.48793.00861-.48972.51758-.49169.5561-.00216,1.11222-.00049,1.66833-.00049v.0009Z"/>
  <path class="cls-2" d="M19.58927,65.99469c-.00015-1.413-.00019-2.82601-.00007-4.23902,0-.11113.00591-.22249.00067-.33334-.00921-.1949.06488-.28979.27427-.28846.88907.00566,1.77822.00568,2.6673-.00003.21019-.00135.27473.09512.27358.28918-.00589.99696.09102.80843-.78738.8284-.28565.00649-.57149.00433-.85725.00563-.19671.00089-.28385.09913-.28318.2955.00286.84142.00402,1.68287-.00021,2.52428-.00109.21693.11739.26448.30189.26241.36512-.00409.73073.01057,1.09535-.00328.25081-.00953.33356.0929.32906.33483-.01676.89992.09447.75584-.74396.78241-.31092.00985-.69681-.13782-.91313.10002-.19323.21245-.06275.58033-.06724.87889-.01002.66666-.00737,1.33362-.00083,2.00037.00364.37122.01172.37748.37147.38411.41267.00762.82573.00952,1.23831.00005.21399-.00491.32082.05739.31844.29292-.00981.97108.09122.82982-.78481.8396-.66675.00745-1.3337.00592-2.00047-.00082-.42178-.00425-.42933-.01181-.43029-.42887-.00348-1.50825-.00137-3.01652-.00152-4.52478Z"/>
  <path class="cls-2" d="M87.19622,74.99913c0,1.66738.00002,3.33475-.00005,5.00212,0,.11116-.00758.22279.00024.33336.01548.21849-.06571.32095-.29908.31037-.30112-.01364-.60341-.00858-.90498-.00196-.18122.00397-.26228-.07877-.26423-.25297-.00125-.11114-.0032-.22227-.00321-.33341-.00018-3.38238-.00015-6.76477-.00015-10.14715,0-.01588-.00008-.03176.00003-.04764q.00373-.52236.52273-.52471c.23818-.00077.47642.00495.71455.00159.16055-.00226.23166.07316.23054.22961-.0009.12699.00339.25402.00342.38103.00026,1.68325.00017,3.36651.00017,5.04976Z"/>
  <path class="cls-2" d="M108.30046,74.98734c0,1.66745.00021,3.33488-.00033,5.00233-.00005.14284-.00422.2857-.0078.42852-.00396.15693-.08613.22475-.24213.22286-.31754-.00387-.6352-.00424-.95274-.0006-.16822.00193-.22027-.09071-.21962-.23915.00049-.11114-.00271-.22229-.00272-.33344-.00015-3.38253-.00016-6.76506-.00002-10.14758.00001-.11115.00515-.22241.00184-.33344-.00545-.18261.08423-.25335.26123-.24996.30164.00578.60349.00638.90513.00109.18862-.00331.25139.0982.25263.26597.00095.12703.00432.25404.00434.38106.0003,1.66745.0002,3.33488.0002,5.00233Z"/>
</svg>