<?xml version="1.0" encoding="UTF-8"?>
<svg id="Capa_1" data-name="Capa 1" xmlns="http://www.w3.org/2000/svg" viewBox="0 0 150 150">
  <defs>
    <style>
      .cls-1 {
        fill: #bf2377;
      }
    </style>
  </defs>
  <path class="cls-1" d="M5.93683,123.07387L74.96908,25.61171l18.06372,25.57434c-3.63785-1.13726-7.49604-1.46799-11.29624-1.5529l-6.76746-9.49493c-3.31338,4.41203-6.41012,8.98118-9.62895,13.46245-4.99074,2.13032-9.8059,5.35835-13.63815,9.20701-3.59098,3.60636-6.58677,10.11158-6.21942,15.25746.0535.74937.62859,2.48881.4017,3.01085l-9.14989,12.82689c-.36049.37317-.92733.21213-1.42197.44041-1.77297.81823-2.43656,3.21382-2.43857,5.01094l-10.61891,14.9577-.11544.44331h6.27c.02015,0,.3104-.21429.3104.06208v8.25654H5.93683Z"/>
  <path class="cls-1" d="M85.46039,78.50221c.64803.61556,1.45033,1.06798,2.11241,1.67314,7.52339,6.87654,4.27121,19.52597-5.09479,22.84438-4.61646,1.63563-11.07521,1.25346-14.77389-2.23075-.75744-.71352-2.72268-3.46698-1.20677-4.19661.96237-.4632,1.9026,1.73733,2.51022,2.39653,3.41337,3.70309,8.85731,1.68877,12.04844-1.24009,5.01572-4.6035,8.14725-16.36593-.63333-18.61779-.999-.2562-4.34394-.34213-2.53599-2.05788.47209-.44802,1.77796-.33493,2.51185-.46796,5.70451-1.03398,10.3647-3.80093,12.35779-9.49411,2.32894-6.65253-2.1406-12.51645-8.9669-12.95037-10.83136-.68851-23.69281,5.41341-28.27317,15.56518-1.42875,3.16664-2.81225,9.96104,1.47722,11.47909,3.56846,1.26288,5.93665-1.89858,8.60944-3.25487,1.60464-.81426,1.93457.34382,1.16595,1.53838-.83525,1.29812-5.83463,4.34102-7.38389,4.90792-7.93917,2.9051-12.0947-3.40585-10.64416-10.76832,2.45615-12.4666,16.88163-19.79855,28.37213-21.53959,10.88994-1.65005,25.79316,3.11036,21.5716,16.97773-1.85672,6.09913-7.54257,8.15538-13.22414,9.43599Z"/>
  <path class="cls-1" d="M121.21801,114.63109c.38462.07396.77787.11977,1.17216.12758,1.43926.02849,3.62061.1615,4.97952.00241.19374-.02268.44121-.03508.42826-.31454l-28.54743-39.99737c-.03803-.21285,1.16667-1.12802,1.42105-1.40938,1.71691-1.89895,2.46913-4.30371,2.92011-6.7662.03706-.20239-.08289-.21599.24228-.18811l40.22922,56.9884h-22.84517v-8.44278Z"/>
  <path class="cls-1" d="M67.40548,94.21723c-4.89063,5.47114-10.5705,8.53545-17.90585,9.47108-3.20967.4094-9.09013.3832-10.99528-2.75264-1.43755-2.36618-1.76628-7.24817,1.424-8.3086,2.51922-.83738,4.49991,1.36169,4.4269,3.79534-.05519,1.83979-2.82794,2.67284-.92507,4.30546,2.0265,1.73869,6.48032.90327,8.75384-.06645,3.56949-1.52249,6.77165-5.32908,8.86818-8.51401,6.59687-10.02156,12.87223-27.76004,24.78324-32.20552,1.13107-.42214,3.42072-.99964,4.51326-.42127.73366.38838.35596,1.03233-.11856,1.46369-.37503.34091-1.02596.49337-1.45751.77734-4.68435,3.08249-8.8848,10.98553-11.55382,15.88521-3.02578,5.55462-5.58103,11.8357-9.81333,16.57037Z"/>
  <path class="cls-1" d="M67.89193,115.25189c.82796.12816,1.7001,1.03598,1.86897,1.85475.33267,1.61298-.88264,2.89062-2.42688,3.04871l2.48235,4.15885c-.17412-.00135-.36516.02907-.5345-.023-.4589-.14113-2.12685-3.62638-2.63153-4.19713h-2.79357v4.22139c-.6816.14996-.59919-.416-.62307-.92542-.10266-2.19027.04706-4.40475.13179-6.57972.01247-.32014-.13221-1.28862-.11604-1.36245.01207-.0551.14945-.19597.17277-.19597,1.26215,0,3.32281-.17753,4.46971,0ZM63.85677,119.47328h4.03515c.0362,0,.53277-.30343.62099-.37227.90613-.70714,1.09795-1.89027.25247-2.73605-.12183-.12187-.91949-.61643-.99763-.61643h-3.72476c-.01317,0-.18624.17307-.18624.18624v3.53852Z"/>
  <path class="cls-1" d="M79.35109,115.28848c6.55148-.65858,6.88597,8.67938.95528,9.02447-6.05835.35252-6.50645-8.46645-.95528-9.02447ZM82.80919,116.90979c-3.66802-3.61535-9.36569,1.83891-5.71758,5.6555,3.66163,3.83074,9.53033-1.89749,5.71758-5.6555Z"/>
  <path class="cls-1" d="M108.29332,115.26465l3.73633,9.05018c-.17341-.02395-.46561.06047-.5996-.02039-.11856-.07155-.87925-2.23401-1.02755-2.57196-1.48948.11491-3.32739-.20169-4.77339-.02135-.15243.01901-.24993-.00896-.36603.1306-.23324.28037-.85266,2.37627-.95366,2.46121-.12997.10929-.90261.21451-.66787-.23091l3.78179-8.73347.86997-.06392ZM110.04289,121.21107c.178-.20308-1.8871-4.33699-2.01247-5.0012l-.34485-.21266-2.11128,5.08869,4.4686.12517Z"/>
  <path class="cls-1" d="M53.91903,115.25729l3.72924,9.05753-.60632-.01382-.9944-2.51584c-.15872-.21073-4.37765.00311-5.02007-.08196-.27038.06553-.8208,2.21111-1.13691,2.48969-.2084.18366-.44134.12346-.68448.12131l3.83478-8.98903.87816-.06788ZM55.66231,121.08734l-2.17278-5.08801-2.17277,5.08801h4.34555Z"/>
  <path class="cls-1" d="M97.87537,122.82647c.19834.25358-.99257,1.0169-1.19264,1.10254-2.94121,1.25913-6.37901-.63396-6.50949-3.8908-.13136-3.27887,2.81419-5.52369,5.96491-4.60026.33327.09768,1.7916.77093,1.73014,1.10188-.14095.75903-.99218-.17519-1.27123-.3192-4.04999-2.09007-7.84282,3.06826-4.73367,6.34773,1.2937,1.36457,3.15211,1.49869,4.80356.72401.25535-.11978.9034-.85587,1.20842-.4659Z"/>
  <path class="cls-1" d="M37.16269,115.74852c-.01722-.01786-.01769-.47814-.00057-.49608.10497-.11001,2.55696.0783,2.93921.07676.47048-.0019,3.39671-.20406,3.51817-.07676.01712.01795.02423.49608-.00057.49608h-2.9798v8.56694c0,.02483-.49663.02483-.49663,0v-8.3807c0-.01317-.17307-.18624-.18624-.18624-.3917,0-2.69662.10056-2.79357,0Z"/>
</svg>