<?xml version="1.0" encoding="UTF-8"?>
<svg id="Capa_1" data-name="Capa 1" xmlns="http://www.w3.org/2000/svg" viewBox="0 0 150 150">
  <defs>
    <style>
      .cls-1 {
        fill: #65347e;
      }

      .cls-2 {
        fill: #63327c;
      }

      .cls-3 {
        fill: #d8cde2;
      }

      .cls-4 {
        fill: #fcc359;
      }

      .cls-5 {
        fill: #714387;
      }

      .cls-6 {
        fill: #1b1b1b;
      }

      .cls-7 {
        fill: #e83f78;
      }

      .cls-8 {
        fill: #63327d;
      }

      .cls-9 {
        fill: #64337d;
      }

      .cls-10 {
        fill: #64347e;
      }
    </style>
  </defs>
  <path class="cls-2" d="M51.84863,33.53088l4.21289,4.15845c.06592.37427-3.41748,3.40833-3.83252,4.04126-.06201.35205,2.729,2.76611,3.11084,3.28723l4.13379-3.95227c.20898.29443.91455.74463.99121,1.04492.09082.35583-1.38379,2.31079-1.66602,2.86877-.22461.44324-.33594.95325-.51953,1.41028h5.87988c4.95947-7.96521,16.72266-7.96582,21.68213,0h5.87988c-.18311-.45703-.29443-.96704-.51904-1.41028-.28223-.55798-1.75732-2.51294-1.66602-2.86877l8.61621-8.57959v8.08252h4.77734v-16.53235h-16.7207v4.59241h8.08496l-8.57129,8.78979c-5.36914-3.47314-11.73633-4.38843-17.75293-1.94971-.68945.27954-3.36279,1.93188-3.56641,1.95166-.25586.0249-1.19238-.896-1.14941-1.14331.08105-.46558,3.39111-3.06934,3.76465-3.79248.13721-.26562.04102-.26978-.0918-.46338-.67285-.97827-2.27734-2.01782-3.04297-3.02197-.25977,0-3.05664,3.27161-3.6665,3.6814-.18555.12463-.26709.22046-.52295.15332-.25195-.06628-3.39795-3.24207-3.71289-3.65308-.1416-.18506-.35449-.23169-.27441-.55225h3.12402v-4.59241h-11.75977v11.57263h4.77734v-3.1228Z"/>
  <path class="cls-6" d="M113.91699,122.20056c-.25-.45911-.69727-2.65747-.69727-3.1604v-20.66553h-5.97168c-.38037,0-2.10352.56299-2.54541.76172-.74365.33447-1.2417.72974-1.76953,1.35071-.00098.16992,2.01855,1.1571,1.79785,2.70691l-6.58057,19.24475c-.47021.07312-.28516-.04138-.38281-.25781-.38672-.85413-.75781-2.0387-1.08838-2.95361-2.48682-6.88025-4.54053-13.93848-7.00439-20.82703-2.97461.08899-7.22998-.71045-9.16211,2.07983.04346.17896,1.98633,1.12415,2.20508,2.21143v21.40015h1.47021v-16.34863c.2666-.0415.2417.30847.31934.50513,1.65527,4.17603,3.33496,13.36182,7.15918,15.62305,2.01172,1.1897,5.69287,1.46777,7.67334.21338l5.42773-15.97412v11.11328c0,.54663.37793,2.14343.59277,2.71387,1.42773,3.79468,7.19434,3.72888,9.6958,1.14282-.51807-.25623-.84131-.33386-1.13916-.87988Z"/>
  <path class="cls-6" d="M25.30127,99.28869c-3.59033-1.30298-11.66895-1.20007-15.63086-.92236-1.77783.12476-4.01367.65454-5.04492,2.20923.76465.24634,1.70117,1.32056,1.82568,2.12769.2998,5.21448-.36133,10.79785.01367,15.96765.36133,4.97473,3.33594,5.72827,7.7998,5.97949,4.82715.27173,10.10498-.30554,14.12207-3.16431,8.38428-5.96667,6.5332-18.70703-3.08545-22.19739ZM21.83301,121.82287c-1.31738,1.28125-4.54297,2.73633-5.91602.99219-.76465-.97095-.94238-3.43176-1.00928-4.68579-.23291-4.37769-.37988-11.33521.01074-15.61853.30566-3.34973,2.15576-3.64612,5.00879-2.44153,6.89648,2.91174,6.75439,17.03784,1.90576,21.75366Z"/>
  <path class="cls-4" d="M78.4917,65.67724c-.82568.23083-1.19092.26709-2.021.36731-.11963.01453-.24707-.0105-.36768,0-1.75293.15466-1.77588.17163-3.49121-.18359-4.58203-.9491-8.5127-4.02783-9.92236-8.63354h-5.32861c1.56104,7.41174,7.65869,13.1416,15.25098,13.96069v6.06177h-7.53369v4.77612h7.53369v7.34766h4.77734v-7.34766h7.53369v-4.77612h-7.53369v-6.06177c7.59229-.81909,13.68994-6.54895,15.25098-13.96069h-5.32861c-1.22314,3.99609-4.83838,7.33667-8.81982,8.44983Z"/>
  <path class="cls-6" d="M69.18066,112.48742c-.4834.25012-1.00732.62158-1.33301,1.0675-.06348.38257,1.82422,1.66174,1.82422,2.54614v7.07214c-11.62891,2.5625-14.29688-13.60791-8.45654-20.66968,2.64893-3.20312,9.31543-4.97485,9.38916.73975.01709,1.31494-1.24512,2.39404-.10547,3.58093,1.36328,1.42041,7.1084,1.15417,7.4458-1.55554.79834-6.41199-9.17773-7.19006-13.50781-6.89209-8.72021.59998-16.39307,6.96179-14.33936,16.35193,2.64014,12.07166,20.53076,12.74805,28.02637,5.04639v-8.17432h-5.97168c-.55713,0-2.41309.59839-2.97168.88684Z"/>
  <path class="cls-6" d="M141.72656,118.64685l-7.94824-20.25024c-2.19678.08813-8.04883-.64502-9.32275,1.56836-.65381,1.13599,1.5542.93311,1.375,1.90491l-8.75146,22.2207c.44629-.09155,1.70166.14807,1.99023-.02979.29297-.18042,2.11572-5.64319,2.50977-6.39929l.54199-.19312,10.4541.03992c1.2627,2.17395,1.99609,4.54065,4.21387,6.07434,2.25293,1.55786,6.875,2.02747,8.58545-.5022-2.10498-.45776-2.7085-2.78345-3.64795-4.43359ZM122.03955,116.37658l5.32666-12.8584,4.96289,12.8584h-10.28955Z"/>
  <path class="cls-6" d="M46.84521,122.3883c-.72754-1.06348-.8291-4.35864-.88428-5.72852-.24268-6.03418.19678-12.2356.00781-18.28516h-5.97217c-.35938,0-2.12891.56445-2.54932.75781-.32861.15149-1.521.8938-1.57129,1.19653.78076,1.10327,1.65674,1.60547,1.82471,3.09668.58447,5.19263-.50781,11.45532.00098,16.71509.37109,3.84106,3.08447,5.0907,6.68506,4.66602.71582-.08447,3.12402-.92725,3.41846-1.5437.12793-.26794-.66602-.44495-.95996-.87476Z"/>
  <path class="cls-7" d="M64.15918,46.38952h-5.87988c-1.54102,3.84485-1.77246,6.78333-.91846,10.83789h5.32861c-1.13525-3.70898-.56152-7.5752,1.46973-10.83789Z"/>
  <path class="cls-7" d="M87.31152,57.22741h5.32861c.854-4.05457.62256-6.99304-.91895-10.83789h-5.87988c2.03174,3.2627,2.60547,7.12891,1.47021,10.83789Z"/>
  <path class="cls-2" d="M76.29541,56.39196c-.03369-.92017-.10156-2.21436-.1958-3.11084-.12207-1.16968-.18555-1.76465-1.28271-2.29932-.14697-.07153-.76367-.3186-.91895-.36743-.51025-.1604-1.39893.00598-1.83643-.46021.36719-.16223.771-.13745,1.15186-.31641.68164-.32031,1.40771-1.55688.50098-1.61133-.06104-.00366-.12256.00122-.18408,0-.55127-.01196-1.54785-.09351-2.021,0-.86572.17114-1.59033,2.26831-1.56689,3.03296.0332,1.05981,2.60645,2.72998,2.84131,4.23462.18555,1.18921-.1626,2.37622-.17969,3.47095-.03564,2.29688.04248,4.60083.00781,6.896,1.71533.35522,1.73828.33826,3.49121.18359-.13965-3.22144.31055-6.43018.19238-9.65259Z"/>
  <path class="cls-8" d="M78.88477,55.32434c.20898-1.5614.90137-3.16016.70996-4.80127-.03125-.24841-.17432.09033-.18457.09131-.09863.29663-.34082.38574-.55078.55103-.79395.62451-.53223.17163-1.19482.21997-.4458.03247-.89648.23828-1.37793.14929-.05176.03479.36768,1.03235.36768,1.19226v11.38892c0,.40625-.37744,1.32837-.18359,1.92871.83008-.10022,1.19531-.13647,2.021-.36731-.01562-3.45752-.06543-6.92126.39307-10.35291Z"/>
  <path class="cls-10" d="M75.96631,50.93811c.1084.09521.55225.16846.70996.13159,1.01611-.23706.67822-2.11621,1.23877-2.9104-1.52539-2.26978-2.54932,2.25-1.94873,2.77881Z"/>
  <path class="cls-9" d="M73.89795,50.43078l1.28613.18359c.40381-.62158,1.1875-3.17163.23926-3.45215-.979-.28979-.99365-.0752-1.3418.51306,1.43164.95837-.25391,1.62488-.18359,2.75549Z"/>
  <path class="cls-1" d="M79.39551,48.24182c-1.65625-.7041-2.40918,2.97278-.72021,2.92358.06201-.25342.49561-.58252.55127-.73462.11133-.30432.39062-1.9978.16895-2.18896Z"/>
  <path class="cls-5" d="M73.34668,48.04272c.47559-1.3468-1.10645-1.49316-1.65381-.18372.37598.36621,1.12695.13513,1.65381.18372Z"/>
  <path class="cls-3" d="M79.41016,50.61438c-.08252.0083-.21777-.07202-.18359-.18359-.05566.1521-.48926.4812-.55127.73462h.18408c.20996-.16528.45215-.25439.55078-.55103Z"/>
</svg>