<?xml version="1.0" encoding="UTF-8"?>
<svg id="Capa_1" data-name="Capa 1" xmlns="http://www.w3.org/2000/svg" viewBox="0 0 150 150">
  <defs>
    <style>
      .cls-1 {
        fill: #8771b1;
      }

      .cls-2 {
        fill: #2b2c4f;
      }
    </style>
  </defs>
  <path class="cls-2" d="M78.16911,5c.77546.29828,1.60127.18506,2.40088.27103,2.30834.24818,4.60289.56519,6.86284,1.09955,2.32707.55024,4.60449,1.24919,6.8724,2.02568,8.23177,2.81839,15.29285,7.46264,21.3843,13.5949,7.08499,7.13245,11.93706,15.60691,14.61592,25.29203,1.82931,6.61367,2.34397,13.36912,1.75281,20.20141-.38571,4.4579-1.3042,8.81464-2.74755,13.05016-2.25402,6.61445-5.53859,12.66988-10.01738,18.04688-3.17543,3.81226-6.72734,7.23548-10.76288,10.14374-7.17144,5.1682-15.10664,8.54737-23.80424,10.08311-5.41599.95629-10.86618,1.04466-16.33921.41974-6.72948-.76839-13.10264-2.69337-19.1408-5.72974-6.26275-3.14931-11.7461-7.33762-16.47944-12.51375-5.66613-6.19619-9.78322-13.29193-12.36913-21.27309-1.19372-3.68431-1.97355-7.45932-2.36581-11.31789-.60347-5.9362-.38174-11.83615.83207-17.67546,1.87982-9.04327,5.72474-17.17079,11.55394-24.35036,5.4651-6.73112,12.08946-11.98739,19.90331-15.75221,4.00844-1.93132,8.16359-3.38866,12.53316-4.27716,2.01489-.4097,4.00918-.81511,6.07195-.93132.68524-.03861,1.4425-.11629,2.11756-.40725h7.1253ZM74.7869,113.42883c3.50372.15024,6.78305-.01036,10.04156-.66176,5.94385-1.18823,11.52339-3.32,16.69327-6.46016,4.99186-3.03204,9.38215-6.78977,13.09334-11.32657,3.05165-3.73052,5.59304-7.76721,7.50789-12.19346,1.99618-4.61425,3.41355-9.41388,3.87315-14.41096.39375-4.28107.41619-8.59891-.10506-12.89281-.64478-5.31148-2.17532-10.36336-4.45774-15.19216-1.91272-4.04662-4.32044-7.77902-7.21997-11.18813-4.49238-5.28189-9.8136-9.52071-15.99183-12.68175-6.04282-3.09175-12.47663-4.87045-19.21638-5.32533-4.41431-.29794-8.84796-.19837-13.24586.66819-4.0636.80069-8.00465,1.93007-11.77226,3.63378-5.22549,2.36298-9.93727,5.50761-14.1197,9.44146-5.22837,4.91761-9.29486,10.6501-12.127,17.25001-2.38921,5.56772-3.76734,11.38816-4.06372,17.43001-.29226,5.95786.33398,11.82451,2.08639,17.56331,1.56947,5.13975,3.85477,9.91971,6.89512,14.33564,2.67387,3.88366,5.81895,7.3476,9.45877,10.35858,4.32126,3.57469,9.07075,6.41005,14.29554,8.46087,2.5942,1.01825,5.25796,1.81007,7.97007,2.39388,3.48602.7504,7.02917,1.05545,10.40442.79737Z"/>
  <path class="cls-1" d="M34.1881,138.67287c0-1.77837.02282-3.55719-.01346-5.33482-.01136-.55647.16518-.69897.69706-.68584,1.46794.03625,2.93726.03119,4.40588.02105,1.45551-.01003,3.00809,1.2356,3.37138,2.46601.44473,1.50625.02671,3.07889-1.1843,4.0409-.62158.49378-1.35728.72978-2.14821.74813-.92717.02152-1.85845.06176-2.78156-.00064-.71308-.04821-.87226.21859-.83707.87548.05369,1.00232.00699,2.00968.01907,3.01471.00637.5299.08104.95469-.74874.96639-.88088.01242-.79271-.45095-.78938-1.00825.01018-1.70099.0037-3.40208.0037-5.10312h.00563ZM35.71518,136.24351h-.00463c0,.56725.01659,1.13515-.00533,1.70155-.01706.44094.10425.66664.60276.64848.92692-.03377,1.8573.015,2.78322-.03112,1.32784-.06615,2.22837-1.04403,2.19507-2.31585-.03191-1.21895-.96315-2.15601-2.24222-2.2036-.92683-.03449-1.85653.00945-2.78349-.02326-.46937-.01658-.56745.19305-.55083.59961.0221.54057.00545,1.08272.00545,1.6242Z"/>
  <path class="cls-2" d="M86.98668,132.65894c-.88526,2.15418-1.73016,4.17819-2.54915,6.21263-.71954,1.78738-1.41569,3.58428-2.10839,5.38229-.1308.33953-.28098.60535-.69581.49469-.50001-.13337-1.20963.38357-1.50185-.32625-1.59601-3.87699-3.15013-7.77122-4.72363-11.67191.36975-.17051.70938-.03486,1.02729-.09572.5461-.10457.76433.17393.94426.64471,1.13097,2.95905,2.28428,5.90958,3.43953,8.85927.09871.25205.1432.54319.40571.76977.89174-2.28702,1.76913-4.54316,2.65145-6.7974.40193-1.02689.82462-2.04581,1.21359-3.07752.10611-.28144.2301-.42255.5499-.40117.40838.02731.81998.00663,1.3471.00663Z"/>
  <path class="cls-2" d="M93.88596,137.23076c.55648-.47209.97525-.91151,1.54216-1.09627,2.56702-.8366,4.56487.22497,5.16942,2.95581.27551,1.24454.11701,2.53815-.3732,3.70336-.9582,2.27764-3.87905,2.87745-5.76486,1.26025-.15079-.1293-.23463-.3493-.47332-.36606-.15414.1136-.10514.28879-.09506.42367.05363.71742-.41478.63092-.89115.65491-.65768.03314-.44841-.43162-.44928-.7269-.01057-3.58534.00548-7.17076-.01284-10.75604-.00253-.49578.11466-.67075.63268-.64149.44868.02533.76129-.01356.73251.62437-.05754,1.27539-.01706,2.5552-.01706,3.9644ZM93.88783,140.43561h.00577c0,.3097-.0035.61944.00061.92908.01654,1.24689.30746,1.67519,1.45158,2.14435,1.51534.6214,2.82018.1917,3.53484-1.23431.62715-1.25139.61038-2.55557.00215-3.80655-.55556-1.14265-1.80818-1.69756-2.98033-1.41488-1.44832.34925-2.0145,1.08217-2.01463,2.608-.00002.25811,0,.51622,0,.77433Z"/>
  <path class="cls-2" d="M107.33963,140.83653c-.95434-.00064-1.90933.02028-2.86275-.0093-.49065-.01522-.62544.10028-.49656.6119.57096,2.26664,3.13878,3.13032,5.20079,1.71531.32187-.22089.52486-.51116.89672.01126.35801.50294.08327.67863-.24996.90308-1.5826,1.06608-3.27164,1.21953-4.9785.40705-1.75241-.83418-2.42901-2.3597-2.38182-4.2361.04678-1.86035.86912-3.29038,2.57078-4.07516,1.43183-.66036,2.89231-.55459,4.17157.41037,1.29174.97437,1.76172,2.34499,1.67903,3.94887-.02182.42328-.2591.30641-.45424.3084-1.03161.01058-2.06336.00496-3.09507.00432ZM106.72317,139.81079v-.00602c.77163,0,1.54485-.03007,2.31433.01064.50872.02691.6285-.13497.5157-.61484-.3294-1.40141-1.47511-2.31907-2.89036-2.28121-1.36208.03642-2.51805,1.09354-2.73707,2.46618-.06004.37635.0857.43556.40548.4299.79709-.01409,1.59459-.00464,2.39193-.00464Z"/>
  <path class="cls-1" d="M74.31755,140.4175c-.01311,1.9247-.78303,3.46062-2.5891,4.20294-1.59229.65446-3.19917.49198-4.55071-.72605-1.50115-1.35285-1.89043-3.66938-.99037-5.70587.73163-1.6554,2.41782-2.57842,4.36617-2.39004,2.2505.21759,3.77237,2.08635,3.76401,4.61902ZM72.90309,140.42392c.00465-1.60369-.6902-2.80023-1.90963-3.23403-1.03022-.36651-1.99307-.2247-2.80345.53309-1.12694,1.05379-1.23757,2.38651-.89359,3.7825.27036,1.09726.92321,1.88708,2.08437,2.15235.02503.00571.05117.00636.07665.01033,2.00431.31137,3.43927-1.03967,3.44566-3.24423Z"/>
  <path class="cls-2" d="M115.86495,144.94844c-1.14518.02263-2.17285-.28988-3.10135-.98223-.52788-.39361-.20208-.64452.02672-1.00311.33753-.52901.51312-.08495.72655.07681,1.11532.84541,2.34171,1.0052,3.64874.57726.54524-.17852.80957-.59756.82456-1.17959.01486-.57753-.31544-.8739-.79565-1.09984-1.04211-.49033-2.22281-.5391-3.25716-1.05478-1.2627-.62951-1.65914-1.87237-1.00592-3.11533.32637-.62101.86845-.96666,1.48111-1.14896,1.47951-.44022,2.90168-.29273,4.2025.61117.35937.24971.51701.45053.20003.91385-.33623.49151-.51215.23818-.82382.02991-1.01964-.6814-2.10937-.92888-3.29479-.42936-.45029.18975-.70073.51354-.72968.99275-.03052.50513.25234.81004.68994,1.01071.80247.368,1.68678.46126,2.50914.75649.86301.30982,1.73502.61839,2.05834,1.62708.51062,1.59298-.58428,3.12278-2.43217,3.37021-.30565.04094-.6179.03255-.9271.04696Z"/>
  <path class="cls-1" d="M47.6612,144.95049c-1.1517.005-2.24792-.18366-3.19901-.91595-.36705-.28261-.47365-.51341-.15694-.9391.30776-.41367.49614-.33091.8546-.07165.86125.62295,1.83358.92339,2.91567.7949.82869-.09839,1.47746-.62232,1.55067-1.27958.06451-.57918-.40118-1.11547-1.23251-1.37716-.86025-.27081-1.7405-.48276-2.58895-.78519-.9131-.32546-1.53953-.92028-1.5597-1.9833-.02067-1.08925.51097-1.82438,1.46901-2.23938,1.60254-.69418,3.12139-.43524,4.55945.49868.37912.24621.43208.49781.16632.88708-.26637.39016-.46619.30995-.78916.0731-.92432-.6779-1.95804-.90278-3.07206-.56808-.51814.15568-.93104.44775-.98129,1.05958-.05279.64267.35823.9504.87239,1.11845.85615.27986,1.74352.46686,2.59321.76329,1.8153.63334,2.47199,2.29065,1.47247,3.72665-.68555.9849-1.74675,1.20901-2.87417,1.23766Z"/>
  <path class="cls-1" d="M56.78217,140.49554c-.00715-3.44793,2.94222-5.5647,5.9653-4.41629.46562.17688.86225.44982,1.21577.8024.26667.26594.36122.49.00261.74998-.26542.19241-.40042.56978-.86974.1772-1.92987-1.61433-4.33778-.71021-4.84297,1.78153-.48284,2.38142,1.07387,4.3249,3.28311,4.10766.5929-.05831,1.1027-.29126,1.49724-.72343.41651-.45624.66669-.08814.95952.14016.36938.28798.16829.49788-.06719.75226-1.96356,2.12106-5.92793,1.11156-6.87339-1.76087-.18569-.56413-.33966-1.13855-.27026-1.61059Z"/>
  <path class="cls-1" d="M54.49478,140.44507c.00035,1.21181-.02603,2.42443.01208,3.63504.01764.56025-.19252.67834-.71158.68579-.56463.00811-.68881-.20499-.68358-.72344.02395-2.37187.01211-4.74408.0168-7.11616.00092-.46344-.06581-.90793.67857-.91934.73535-.01124.6958.38883.69107.88-.01143,1.18593-.00371,2.37206-.00336,3.55811Z"/>
  <path class="cls-2" d="M88.48404,140.48518c.00067-1.31417.04131-2.63013-.01626-3.94177-.02936-.66872.37326-.5089.73516-.55024.43507-.04971.63365.0337.62791.5548-.02834,2.57648-.03222,5.15371.00137,7.73006.0094.72138-.46478.43612-.77802.46596-.31211.02974-.62563.11275-.59263-.47259.07095-1.25848.02179-2.52374.02246-3.78622Z"/>
  <path class="cls-2" d="M89.33384,134.51327c-.89505.02405-1.08296-.40999-1.09369-.98066-.01137-.60474.43417-.77181.90214-.79733.56373-.03074.91824.29861.90678.86994-.01134.56498-.35578.87982-.71523.90805Z"/>
  <path class="cls-1" d="M53.80232,134.53046c-.54922-.08701-.88388-.39491-.85511-.97443.02684-.54069.35983-.85735.89902-.84018.52936.01689.88748.34544.88142.87585-.0062.54326-.32578.89726-.92533.93876Z"/>
  <path class="cls-1" d="M74.7869,113.42883c-3.37525.25808-6.9184-.04697-10.40442-.79737-2.71211-.58381-5.37587-1.37563-7.97007-2.39388-5.22479-2.05082-9.97429-4.88617-14.29554-8.46087-3.63982-3.01098-6.78489-6.47492-9.45877-10.35858-3.04036-4.41593-5.32565-9.1959-6.89512-14.33564-1.7524-5.73881-2.37865-11.60545-2.08639-17.56331.29638-6.04185,1.67451-11.86229,4.06372-17.43001,2.83214-6.59991,6.89863-12.3324,12.127-17.25001,4.18243-3.93384,8.89421-7.07848,14.1197-9.44146,3.76761-1.70372,7.70865-2.83309,11.77226-3.63378,4.39789-.86656,8.83155-.96613,13.24586-.66819,6.73975.45489,13.17356,2.23358,19.21638,5.32533,6.17823,3.16103,11.49945,7.39985,15.99183,12.68175,2.89953,3.40912,5.30725,7.14152,7.21997,11.18813,2.28242,4.82879,3.81296,9.88068,4.45774,15.19216.52126,4.2939.49881,8.61174.10506,12.89281-.4596,4.99708-1.87696,9.79671-3.87315,14.41096-1.91485,4.42625-4.45624,8.46295-7.50789,12.19346-3.71119,4.5368-8.10148,8.29452-13.09334,11.32657-5.16988,3.14016-10.74942,5.27193-16.69327,6.46016-3.25851.6514-6.53784.812-10.04156.66176ZM74.93288,109.15981c25.84297.17965,47.13407-21.10769,46.93058-47.20512-.20057-25.72158-21.38201-46.70246-47.11507-46.55001-25.93539.15365-46.90307,21.35598-46.63762,47.46741.26127,25.69938,21.49706,46.50061,46.8221,46.28772Z"/>
  <path class="cls-2" d="M77.39186,37.59412c-.29469-.34798-.59907-.72129-.91813-1.08158-.99699-1.12585-1.12358-2.2059-.38633-3.52212.35248-.62929.6958-1.26789,1.10408-1.86036.30436-.44169.26994-.80073.04291-1.26126-.78034-1.58293-.58119-3.20656.01924-4.77151.43149-1.12462,1.56026-1.56513,2.56399-1.95328,1.61798-.62568,3.24952-.6114,4.72741.52279.41851.32118.983.17137,1.47521.31859,1.21995.36489,2.41572.74507,3.28592,1.74028.31189.35669.51569.23172.88507.04384,1.96888-1.00145,4.04277-1.65456,6.11508-.42463,1.36195.80832,2.37932,2.0992,3.00112,3.54002.36231.83957.14146,1.88103-.15995,2.80716-.19094.58669-.04352,1.00154.63644.98925,2.54808-.04604,2.82757,1.1911,3.33534,3.15133.19142.73894.22206,1.52941.2488,2.29906.05295,1.52471,1.05903,2.38416,2.13989,3.20256,1.64079,1.24238,2.46531,2.9323,2.57519,4.94409.09,1.64776.03096,3.30508-.51363,4.89265-.12561.36619-.03426.59192.25223.78229,1.4031.93236,1.81433,2.32378,1.81543,3.90666.00008.10325.00431.20745-.00735.30961-.07974.69854.04649,1.24765.60407,1.81239,1.31584,1.3327,1.79728,3.05716,1.86565,4.89907.03514.94681-.24963,1.71686-1.229,2.0879-.43488.16476-.4995.42001-.16047.80359.93542,1.05836,1.34599,2.38341,1.50781,3.72348.15134,1.25336-.13381,2.49982-.96934,3.54509-.7122.89099-1.58681,1.62049-2.38618,2.42415-.25005.25139-.38002.46263-.22891.8005.16608.37135.18191.81682.05341,1.1398-.55121,1.38546.09502,2.64972.26823,3.96769.18198,1.38492.10724,2.75965-.68883,3.99719-.52848.82155-1.00392,1.67877-1.55911,2.48127-.85266,1.23249-2.02096,2.06331-3.50423,2.32418-.58224.1024-.74191.41875-.76036.87399-.05253,1.29725-.61905,2.42085-1.15354,3.55387-.37136.78722-.99578,1.24968-1.77384,1.70489-1.85924,1.08775-3.84167,1.44913-5.78679.81997-1.82137-.58914-2.76658.3199-3.78461,1.41031-.29337.31424-.45192.78181-.78419,1.02792-2.36753,1.75369-4.99755,2.57913-7.96188,2.10872-.02542-.00403-.05669-.00178-.07499-.01582-1.05228-.8079-2.42206-1.02739-3.47211-1.7944-1.44872-1.05821-1.84274-2.67681-1.41785-4.29458.54181-2.063.14884-3.9498-.4165-5.89676-.44251-1.52396-.44544-3.06196.52956-4.44086.41542-.5875.4522-1.1115.08125-1.77397-.55804-.99662-.80448-2.0891-.75587-3.26534.07319-1.771-.07633-3.55734.55422-5.26959.23919-.64953.44364-1.31179.67223-1.96534.0794-.227.12997-.41397-.06723-.63309-.98935-1.09934-.77342-2.33203-.32282-3.5602.17519-.47748.36316-1.00563.70516-1.35349.50522-.51389.38871-.80029-.02884-1.29789-.59784-.71246-.94148-1.54892-.88519-2.55599.09213-1.64808.13077-3.30492.07428-4.95404-.06564-1.91629.51695-3.64723,1.28453-5.34406.23179-.5124.30945-1.09631.70553-1.53435.17508-.19364.03759-.27558-.11632-.41622-1.46771-1.34108-2.03985-2.9893-1.92831-4.99211.09908-1.77917.20323-3.54188.6548-5.27037.04297-.16451.21046-.38982-.01117-.47918-.46455-.1873-.72003-.4382-.64162-.98292.09709-.67446.17842-1.33631.83555-1.73661.08462-.05155.14094-.14959.23588-.25421ZM98.1606,32.314c.09696-.85959.73858-1.70108.45414-2.63705-.45084-1.48354-1.32647-2.74808-2.58874-3.63889-1.67291-1.1806-3.81397-.51335-5.43854.47143-.15231.09233-.6226.17514-.35096.60989.19958.31942.16864.79711.76456.79001.48238-.00575,1.01339-.13028,1.47659.20906-.50603.48215-.50705.49794-1.48584.43469-.40209-.02599-.5658.02908-.60741.50601-.08071.92506-.17305,1.84647-.14689,2.77576.00721.2563-.00073.47331-.35454.43193-.28586-.03343-.60168-.01822-.55562-.4504.02732-.2563.06796-.51116.09752-.76725.19784-1.71382.70574-3.46499-.82852-4.90532-.94668-.88873-2.03678-1.40313-3.33187-1.62383.19646.58643.38105,1.09376.53542,1.61013.16338.54652.16309,1.1138.80386,1.47054.48137.268.56843,1.72072.21194,2.33115-.32786.56141-.85457.84696-1.548.83888-.67316-.00785-1.33266-.07384-1.98919-.20893-.14049-.02891-.35082.04094-.35893-.17905-.00763-.20665.1672-.33128.35246-.35265.30826-.03556.60802.04129.90567.1349.50053.15743.91705-.0604,1.23264-.40862.29989-.3309.59287-.89908.29838-1.18846-.60288-.59241-.44539-1.30864-.60454-1.97711-.43714-1.83614-1.08705-2.79479-2.93667-3.10387-1.16784-.19516-3.21825.59918-3.88848,1.71939-.90499,1.51256-.82959,3.09734-.12462,4.75747.8714-.80843,1.851-1.38364,2.74242-2.07972.14274-.11146.29377-.27137.47088-.14249.16606.12086.08639.33911.06099.51095-.06017.40715-.37831.59953-.70611.75547-1.86556.88745-3.00695,2.45514-3.92883,4.21297-.5639,1.07522-.09231,1.98799.55918,2.85009.74838.99031.87803,1.09057,1.95685.51134,1.70939-.91779,3.46888-1.01301,5.3026-.58293.92324.21653,1.82924.49564,2.70013.8737.14745.06401.37667.15877.29834.38494-.07549.21798-.32406.1533-.46927.12447-.49991-.09928-1.01344-.13416-1.49067-.35274-2.76596-1.26685-5.25835-.53291-7.62682,1.06616-.41634.28109-.56547.64481-.36589,1.13243.34774.84962.38629,1.78004.04917,2.57131-.63887,1.49954-.61948,3.04918-.68271,4.60961-.04986,1.23069.29128,2.33944.9942,3.33823.52697.7488.77784.78542,1.50944.27394.04221-.02951.08741-.05472.1297-.08412.14858-.10327.31674-.24185.48435-.10419.19059.15652.02423.32826-.06277.47541-.3017.51026-.64831.99764-.90971,1.52736-.81675,1.65515-1.70574,3.29803-1.94944,5.15796-.2753,2.10127-.24819,4.223-.21499,6.33833.01011.64388.25186,1.25579.589,1.8171.9012,1.50039,2.33603,2.27773,3.89816,2.88142.66867.25841,1.38051.41685,1.96404.86862.21163.16383.6236.275.41272.61211-.16959.27111-.50843.08515-.76911-.03129-1.42631-.63715-2.97201-.99804-4.3015-1.85895-.18482-.11968-.34196-.16964-.55726-.01953-1.12906.78721-1.48792,2.91477-.64078,3.9824.28726-.50007.56663-1.02612,1.26209-.94888.16138.01792.39676-.01441.47526.18852.08283.2141-.09644.31866-.24989.42106-.42002.28031-.68712.69277-.94006,1.11349-.69516,1.15627-1.10554,2.41787-1.40057,3.72776-.51171,2.27191-.66533,4.51973.25007,6.74139.47016,1.14106.89466,2.30127,1.3215,3.45958.08425.2286.20998.54925-.08776.69462-.318.15527-.52077-.09388-.66569-.36015-.1346-.24731-.26797-.49531-.40551-.74973-.40483.18808-.60939.51848-.72256.9412-.35115,1.31158.6667,2.98009,2.08582,3.40669,1.40959.42374,2.79972.32161,4.18063-.13368,1.61828-.53358,2.5279-1.61775,2.58521-3.34959.01241-.37488.13658-.57106.53729-.59088.53897-.02668,1.07643-.08905,1.61359-.14522.57151-.05977,1.01543-.26938,1.23816-.87125.45869-1.23949.36991-2.41478-.28602-3.55696-.16709-.29096-.60876-.62596-.20553-.92472.38466-.28499.62329.21594.85419.45467.55672.5756,1.12608,1.11251,1.8329,1.52035,2.42061,1.39672,4.90041,1.03885,7.40326.32571,1.29806-.36986,2.29897-1.09921,2.93404-2.32622.61855-1.19512,1.12689-2.43279,1.51536-3.71591.27436-.90623.2664-1.86699-.09839-2.72224-.25068-.5877-.19033-.7638.40146-.88362.37346-.07561.72038-.27339,1.08947-.38125,1.15538-.33768,1.87843-1.12432,2.31723-2.20523.114-.28079.3231-.67377.1428-.87412-.63816-.70917-.71855-1.58961-.86116-2.56003-.8303.79287-1.31714,1.70854-1.9594,2.49933-1.09529,1.3486-2.53211,1.87987-4.22404,1.84361-.18602-.00399-.39158-.01591-.43671-.23126-.05258-.25096.1152-.36589.34601-.41832.40118-.09116.79812-.20096,1.19941-.2916,1.82194-.41153,4.12973-2.62029,4.30002-4.23864.07199-.6842.34587-.8499.9373-.74111,1.54279.28379,2.8472-.35498,4.04291-1.17396.77745-.53249,1.55405-1.24973,1.3628-2.34119-.22696-1.29527-.63034-2.54639-1.63147-3.50664-.3152-.30233-.50474-.43139-.79413.0595-.31132.52811-.74173.99552-1.31127,1.27507-.16586.08141-.22874.15693-.24194.33095-.11079,1.46111-1.05347,2.46506-1.9395,3.49714-.24849.28945-.64132.30113-.96506.44309-.12792.05609-.29735-.04368-.39087-.18928-.10643-.1657-.0365-.29677.08506-.40842.28412-.26094.57007-.5201.86191-.77233,1.38166-1.19414,1.83811-3.04219,1.28281-4.76253-.42216-1.30787-1.1058-2.40664-2.22957-3.25854.82041-.32947.8905-.31447,1.39592.21788.81498.8584,1.37864,1.848,1.62444,3.01625.05068.24091.05552.59675.31712.66049.24424.05952.44449-.21907.61681-.40229,1.35072-1.4361,1.01583-4.6474-.58942-5.77405-.29668-.20823-.51063-.1577-.70738.12907-.22342.32565-.53964.55158-.87836.73809-.16261.08954-.36235.09803-.48886-.07963-.12787-.17955-.06228-.37256.09703-.47635.89265-.58159,1.19125-1.54009,1.47992-2.45777.57009-1.8123.70707-3.63169.1779-5.52556-.55145-1.97356-2.04479-3.08428-3.46168-4.30335-.2154-.18533-.45226-.23183-.67745.01571-.30505.33532-.75774.28851-1.14144.41908-.14106.048-.3216.07088-.43239-.06917-.11834-.14963-.02856-.31367.07495-.41776.4229-.42523.12617-1.40207,1.08546-1.42401.0275-.00063.0767-.18726.07215-.28513-.06793-1.4586.01568-2.94531-.63631-4.31058-.18689-.39133-.51399-.73193-.93603-.87589-.70145-.23926-1.42642-.40197-2.27951-.36234.53825.93454.54235,1.91013.5094,2.88779-.00944.2799.1268.71591-.34588.7042-.41621-.01031-.29364-.41536-.28843-.67505.01312-.65354-.1361-1.27686-.31667-1.89421-.07357-.25151-.13115-.45028-.52766-.25236-.56316.2811-1.0658-.04536-1.02005-.62014.09585-1.20365-.79541-1.40365-1.55873-1.76315-.23001-.10833-.49694-.13552-.74121-.21711-.21101-.07048-.52962-.10205-.47534-.40324.06241-.34619.38152-.26911.63469-.23396,1.30346.18092,2.34658.97574,3.56539,1.45415ZM89.44257,94.63204c.14866.11465.2265.18279.31197.23943,2.14983,1.42506,4.51857,1.98233,7.05234,1.57422,1.23771-.19935,2.46822-.60031,3.29482-1.67858.91246-1.19028,1.42993-2.54181,1.60462-4.03227.04155-.35456-.06116-.45764-.41008-.4259-.67041.061-1.33203.02874-1.97733-.21714-.41201-.15698-.54661.04075-.50024.45964.10645.96136-.388,1.67358-1.13655,2.13572-1.09342.67503-2.28864.86428-3.53075.34046-.1986-.08376-.42795-.14173-.43392-.37494-.00752-.29355.26953-.37456.48907-.39174.56521-.04424,1.13463-.03128,1.70116-.06275,1.01572-.05642,1.86881-.73211,2.10744-1.64294.08233-.31422.10014-.59776-.18874-.83548-.5354-.44061-1.07165-.88192-1.58171-1.35104-.33933-.3121-.65501-.65637-.93891-1.01939-.12893-.16487-.28116-.4239-.04888-.62481.21843-.18893.43266-.06709.6099.11221.25381.25677.50944.51187.75805.77362,2.22047,2.33787,5.69159,2.46655,8.02229,1.05461,1.83648-1.11256,2.67901-3.00358,3.35872-4.94536.37995-1.08547.26006-2.17942-.09584-3.26217-.14352-.43665-.30827-.55152-.77502-.35572-.76743.32194-1.60329.37876-2.42798.30478-.3473-.03115-.78594-.04406-.93517-.63185.4338,0,.81809.01548,1.20081-.0026,2.03554-.09616,3.10013-1.54367,2.60228-3.52797-.26953-1.07431-.2318-1.14263.80052-1.56085.16542-.06702.32713-.15596.47105-.26141,3.12306-2.28813,3.14726-5.47459,1.17182-8.33221-.17505-.25321-.31786-.27941-.61956-.19874-.76425.20436-1.48184.64888-2.30728.55654-.58713-.06568-.95641.15098-1.17684.70635.6827-.07061.84947.47768,1.09546.89585.54313.92329,1.1023,1.09076,2.04762.60778.23819-.1217.53922-.51348.78222-.10217.20174.34149.31146.79124-.01753,1.15884-.18763.20966-.41896.36646-.73649.36202-.38645-.00541-.77348.04092-1.16021.0404-.35444-.00047-.53135.09454-.61687.50052-.38625,1.83328-1.64242,2.85457-3.35842,3.35892-.35949.10567-.41717.16385-.36777.5416.11265.86154.25646,1.73195-.04489,2.60121-.54938,1.58474-1.22691,3.11105-2.08521,4.54877-.35141.58866-.76048,1.13508-1.41727,1.48725-1.62433.87092-3.39393.99565-5.16755,1.11421-1.13277.07571-2.26525.10227-3.35248-.35204-.60561-.25306-1.04601-.80165-1.75775-.98111.1419,1.21005.02258,2.32499-.62863,3.31953-.37409.57131-.84893,1.18618-1.59511.98696-1.17083-.31262-1.41362.44199-1.70222,1.23275-.0177.0485-.03012.0998-.05397.14507-.59902,1.13667-1.44262,2.07388-2.71009,2.35417-2.05204.45377-4.12296.52765-6.12622-.42057-.00483.55845.09037.94862.52669,1.37079.83605.80893,1.81851,1.33883,2.80439,1.8935.28456.1601.70208.34544.49923.73368-.19872.38036-.52467.03311-.8028-.04519-.93991-.26463-1.69506-.87349-2.42839-1.37536-.64591,2.5204-1.40154,5.04876,1.67871,6.56048.09046-.4113.04116-.82749.40301-1.0769.24675.07401.31567.29211.36975.47811.23287.80082.80574,1.23207,1.55057,1.48635,2.36249.80655,4.50953.0928,6.44189-1.17257,1.12865-.73909,2.00133-1.86924,3.00934-2.84294-1.24169-.45284-2.04936-1.54466-3.22877-2.09698-.41728-.1954-.54621-.17606-.86203.14442-.75529.76646-1.70933,1.20961-2.79057,1.33964-.23637.02843-.51577.03192-.60153-.22707-.09544-.28824.18122-.38083.38801-.48262.09264-.04558.18135-.10583.27918-.13322,1.96145-.54927,3.01841-1.85717,3.25409-3.86158.01794-.15255.05526-.30725.11167-.44983.08719-.22039.06582-.61016.38825-.55724.24976.04098.24915.40211.29615.65173.12652.67205-.26436,1.24714-.34503,1.88065-.04939.38789.61854,1.18449.97377,1.1352.97413-.13514,2.07079-1.46059,2.18093-2.44526.10884-.97305-.21943-1.74876-.76254-2.49378-.22269-.30549-.61039-.68244-.28889-1.01972.38996-.40912.78721.05926,1.06021.30097.57935.51292,1.22415.83856,1.96579,1.01772.63905.15438,1.29097.00518,1.97119.03214-.50394.97985-.51283,1.07222-1.82823.94564-.82054-.07897-1.01833.28329-1.14173.90763-.03492.17672-.06253.3549-.0988.53131-.28294,1.37619-.99386,2.40675-2.47218,2.94861Z"/>
  <path class="cls-2" d="M73.0626,27.35906c.18784.94468.03859,1.87225-.47275,2.72316-.18826.31328-.14169.55293.04033.84739.43287.70029.83397,1.42036,1.2425,2.13553.67388,1.17969.58027,2.23116-.28954,3.26739-.14882.1773-.31073.34363-.46685.51478-.40744.44666-.75105.84793-.00539,1.35169.39221.26498.41396.79409.45089,1.26744.0393.50383-.02091.87063-.57459,1.10489-.27867.11791-.09075.54423-.0061.78035.63326,1.76649.49567,3.60333.591,5.42674.09362,1.79068-.56558,3.21213-1.79547,4.42344-.23409.23056-.28763.34515-.13219.68649,1.05388,2.31439,2.11546,4.61965,1.91355,7.28789-.1087,1.4366-.06826,2.89341.02389,4.33349.0756,1.18151-.38094,2.10013-1.10456,2.93546-.20896.24123-.24533.35244-.03948.63186.75667,1.02712,1.30026,2.14394,1.30839,3.46894.00296.48304-.01835.96169-.35054,1.30948-.58666.61422-.3804,1.21744-.13145,1.88266.4668,1.24728.87192,2.51543.89686,3.8689.0114.61899-.01099,1.24292.05968,1.85564.17457,1.51359-.12232,2.92595-.8488,4.24682-.24161.43928-.25241.82738.02704,1.22413,1.33187,1.89089,1.06055,3.84409.36118,5.88595-.32862.95944-.54961,2.04369-.44769,3.03308.07305.70909.30006,1.45649.43572,2.19569.3812,2.07727-1.12076,4.37155-3.32349,4.56371-.07366.00643-.16018.0256-.21452.07051-2.41941,2.00024-4.89351,1.096-7.35394.11995-.83488-.33119-1.75216-.65637-2.2576-1.4184-.48235-.72725-1.16941-1.22196-1.69579-1.87415-.58863-.72932-1.25706-.68997-2.04918-.48802-1.43223.36513-2.92353.61437-4.34416.15786-1.87657-.60303-3.71706-1.28612-4.33808-3.57964-.23715-.87582-.63665-1.70476-.70444-2.64133-.02534-.35008-.15335-.66518-.67578-.75843-1.84303-.32897-3.11595-1.46352-4.04367-3.05418-.56565-.96987-1.27543-1.86572-1.65929-2.92772-.36873-1.02015-.27129-2.09707-.05008-3.13107.15313-.71574.06379-1.50476.55042-2.14155.04376-.05726.00817-.20542-.03213-.29202-.3815-.81962-.54092-1.65433-.25078-2.54317.09109-.27906-.09639-.46242-.28072-.66173-.69981-.75662-1.52165-1.38698-2.18051-2.18843-1.31174-1.59563-1.38758-3.38112-.80438-5.23892.26622-.84805.56795-1.71844,1.23726-2.36658.33638-.32574.12699-.51984-.14887-.62879-1.24835-.49303-1.49448-1.52014-1.31194-2.65394.29926-1.85867.7694-3.67163,2.38886-4.90316.29324-.223.15165-.53518.11484-.78261-.16391-1.10179-.04504-2.14088.42663-3.16406.27831-.60372.62604-1.11135,1.19464-1.44635.43497-.25627.55936-.58763.39371-1.06603-.50513-1.45883-.61535-2.97561-.54173-4.49882.10276-2.12617.87052-3.97624,2.68451-5.18999,1.65565-1.10781,2.22715-2.66788,2.1962-4.53337-.01689-1.01862.35737-1.92934.72169-2.82259.27791-.68139.91797-1.10573,1.68847-1.20856.38227-.05101.77451-.02535,1.1577-.07181.49767-.06034.75827-.38356.57172-.84776-.34114-.84892-.22132-1.73006-.29582-2.59743-.03111-.36224.16243-.63953.36159-.911.91069-1.24136,1.71487-2.63948,3.20982-3.24169,1.46869-.59164,3.00488-.5498,4.45262.18591.49604.25208,1.0994.24291,1.51694.69943.20619.22544.3744-.08685.49133-.2101,1.13938-1.20088,2.61353-1.66771,4.17928-1.93257.35441-.05995.65479-.13934.93384-.41747.35127-.3501.86141-.44226,1.34288-.5428,2.00153-.41796,3.71663.25673,5.18823,1.52771.85119.73515.97118,1.83563.8681,2.96188ZM69.61449,49.83626c.39209-.10967.55547.10389.76652.17142.29385.09404.3396.67364.76228.43167.30544-.17484.59227-.41156.77807-.7362.15295-.26726.3516-.51415.46776-.79574.79307-1.92261.62689-3.9031.18996-5.84987-.27341-1.21821-.8344-2.38714-.35076-3.65559.24737-.6488.05372-1.06911-.49671-1.42487-2.35497-1.52206-4.8011-2.1831-7.51355-.94527-.60089.27422-1.26886.47362-1.96695.2769.04111-.34685.28322-.45753.48139-.52101,1.24236-.39793,2.47075-.83872,3.7798-1.00756,1.63361-.2107,3.10366.26021,4.51854.98399.54753.28009.93922.13856,1.25967-.3207.29435-.42185.59185-.8462.83488-1.29801.33851-.6293.34333-1.29552-.0014-1.92537-.95117-1.73786-2.04745-3.34571-3.94228-4.20215-.31408-.14196-.59457-.34381-.67004-.69908-.03839-.1807-.19167-.40072.02196-.57288.24424-.19683.37511.06961.51703.17046.91342.6491,1.81355,1.31692,2.72628,1.98462.5196-1.17963.64328-2.34527.34412-3.57431-.43202-1.77488-2.64675-3.08375-4.4514-2.82917-2.02712.28596-2.73194,2.03442-2.93769,3.55786-.07004.51858.09995,1.09788-.52106,1.41898-.14291.0739-.11483.27628-.10123.43081.07812.88743.87964,1.43044,1.76009,1.21879.26737-.06427.54566-.21704.82404-.08586.12697.05983.28579.19696.30158.31608.02805.21161-.19367.17172-.33506.20562-.67952.1629-1.36751.20495-2.06543.20797-.72966.00316-1.36671-.31834-1.52422-.95162-.1821-.73213-.44945-1.67907.27754-2.25052.48754-.38323.60143-.79885.72746-1.3157.13885-.5694.36827-1.1167.58133-1.74133-1.19928.16639-2.28259.62704-3.1215,1.41917-.9981.94244-1.60542,2.1034-1.21782,3.60315.19111.73946.17059,1.53383.24335,2.30359.03435.36329-.20746.39431-.48586.43264-.36893.0508-.36994-.16902-.35426-.41482.05612-.87991-.1072-1.74291-.17487-2.61367-.04382-.56383-.20587-.7776-.78233-.67737-.50509.08781-1.01281.07763-1.38589-.51837.57705-.19086,1.11989-.14275,1.64151-.16062.57926-.01984.45764-.54054.67195-.81396.26102-.333-.15241-.36739-.28374-.48985-.52118-.48599-1.21222-.65431-1.85857-.87712-1.21326-.41824-2.45588-.45934-3.55905.27142-1.28029.84809-2.06708,2.11667-2.64926,3.51846-.42872,1.03229.35252,1.84832.40701,2.84216.67622-.33207,1.25713-.65476,1.86731-.90646.61167-.25231,1.19473-.6159,1.89817-.59361.19609.00621.38133.02626.44083.2289.06843.23306-.1299.31257-.29893.3735-.21783.07852-.45601.10854-.66369.20587-.83367.39069-1.93285.48068-1.81344,1.87188.04631.53949-.4766.85015-.97617.6012-.49666-.24749-.52284.05557-.60993.33969-.17495.57076-.24313,1.15734-.22771,1.75684.0075.2915.09601.70074-.36586.70601-.45913.00526-.28209-.40967-.30073-.65118-.07715-.99934-.00926-1.98498.48819-2.97807-.48494.04718-.86628.07078-1.24355.12352-1.13811.15912-1.84527.70062-2.23666,1.8861-.39763,1.2044-.26371,2.39505-.35907,3.59193-.01247.15654.01619.37677.19207.36985.65332-.0257.64203.45205.70661.87414.04818.31491.58951.58073.26631.86876-.32656.29103-.77193-.06933-1.16441-.13709-.13802-.02383-.27078-.14846-.38-.25394-.21705-.20962-.46357-.16138-.62895-.00252-.90567.86996-2.01596,1.52758-2.70471,2.62379-1.07026,1.70343-1.29421,3.56973-1.00166,5.50566.23543,1.55791.57538,3.09698,1.88547,4.18759.12802.10657.26894.25.09529.45664-.14657.17441-.32813.17278-.48821.09353-.32367-.16028-.62537-.37451-.82928-.67506-.3097-.45647-.56605-.34372-.9299-.03749-.92312.77694-1.26171,1.84195-1.26666,2.94212-.00552,1.22714.21558,2.47024,1.54426,3.19146.08748-.31888.1596-.58713.23469-.85454.3186-1.13462.84666-2.14654,1.68542-2.99345.3914-.39519.77746-.52247,1.26512-.19507-.06667.28501-.32111.34926-.47721.50765-1.4165,1.43727-2.17159,3.12973-1.8106,5.1652.2264,1.2766,1.0506,2.20462,2.07196,2.96797.18582.13888.49229.31423.26752.61695-.1782.23999-.4419.19639-.69684.05447-1.44067-.80201-2.17235-2.11011-2.59937-3.63366-.05188-.18508.03449-.39046-.22635-.51557-.60018-.2879-1.01716-.79843-1.34988-1.34823-.25743-.42539-.40955-.27847-.68856-.04308-.63931.53937-.89678,1.2868-1.25005,2.00415-.95148,1.93207-.33094,3.22864,1.50394,4.26706,1.09271.6184,2.23548,1.04234,3.53547.80373.30764-.05647.71521-.12849.79097.36284.21601,1.4009,1.16958,2.37176,2.0052,3.39779.3301.40532.82008.6316,1.33768.84622.71247.29542,1.46336.39164,2.17462.64734.20068.07215.41974.1165.38852.39155-.03221.28374-.26393.27705-.47164.27359-.88056-.01465-1.72809-.11361-2.54779-.51803-1.1229-.55401-1.7973-1.50561-2.47882-2.48003-.34098-.48754-.65038-1.01739-1.23301-1.38014.09454.87362-.01041,1.64963-.52446,2.26963-.3086.3722-.26666.69886-.13261,1.06549.47667,1.30366,1.36753,2.1469,2.74115,2.46938.3948.09268.82015.19964,1.142.42686.57027.40259-.11208.76537-.17989,1.1304-.35207,1.89501.44079,3.48954,1.14733,5.11546.42253.97235.87042,1.98561,1.82994,2.52551,2.18586,1.22991,4.5635,1.60844,7.01601,1.13257,1.61096-.31258,2.91738-1.24506,3.9809-2.50105.18317-.21632.39483-.48141.69963-.19762.26858.25008.02881.483-.12067.67418-.68511.87621-.76891,1.89188-.68004,2.93701.09148,1.07587.56228,1.6083,1.45109,1.71269.48557.05702.97426.16265,1.45759.14399.56387-.02177.69837.21738.71868.72805.0459,1.15417.54134,2.15558,1.52631,2.72168,1.67665.96364,3.50981,1.18145,5.37309.5811,1.21638-.39193,2.1355-1.95567,2.00103-3.20068-.04864-.45037-.25592-.88366-.61601-1.00457-.40054-.13449-.374.42967-.55578.66791-.18142.23776-.34902.49943-.67315.34507-.31439-.14972-.18087-.43309-.08765-.67758.41157-1.07945.80635-2.16564,1.23772-3.2371.48609-1.20737.71593-2.43485.73199-3.75319.02083-1.71092-.34392-3.33464-.85502-4.92106-.36668-1.13818-.84258-2.27842-1.80638-3.10009-.1457-.12422-.43557-.18236-.32585-.44919.10246-.24917.39291-.22116.60249-.22179.64485-.00194.8699.56052,1.19572.98821.74451-1.31005.4544-2.9818-.63721-3.95119-.258-.22911-.43863-.15805-.67226-.00773-1.32641.85349-2.87084,1.2026-4.28902,1.84471-.25566.11577-.589.28764-.75348-.02493-.15024-.28551.19747-.40517.40145-.5522.99874-.71996,2.24543-.87081,3.3043-1.45724,1.95325-1.08178,3.31572-2.51431,3.1774-4.94829-.05705-1.00383-.05046-2.01467-.01112-3.0199.09009-2.30242-.5992-4.40333-1.52235-6.4693-.4913-1.09951-1.25249-2.04705-1.75208-3.19066ZM46.13241,79.87387c-.15046.4323-.4957.48044-.82063.51628-.88056.09715-1.7454.00082-2.58248-.29389-.2703-.09517-.52157-.26272-.64995.18394-.28452.98991-.54688,1.94445-.29803,3.02218.27443,1.18845.85028,2.20076,1.45784,3.21284,1.81855,3.02934,5.68934,3.95933,8.7261,2.12986.74133-.4466,1.33101-1.04764,1.92148-1.65944.21042-.21803.46562-.53873.77542-.25426.30637.28133.00889.598-.18758.79256-.73003.72297-1.46534,1.44778-2.26393,2.09083-.3254.26203-.39382.5163-.33777.8492.09483.56315.42586.97594.89259,1.30038.63396.44069,1.34688.43243,2.07447.45957.4664.01742,1.23659-.22116,1.29293.41614.04845.548-.74697.50397-1.17936.60396-1.58176.36578-4.12096-.74772-3.87864-2.82502.05145-.44108-.22463-.41896-.46972-.32341-.64571.25171-1.30597.27097-1.97821.2059-.36667-.03549-.54453.05264-.39522.46712.06837.18978.04779.40961.09454.60949.73612,3.14696,1.80479,4.44937,4.73799,5.07304,2.18794.46519,4.23571-.17858,6.22687-.99639.39491-.16219.82223-.40824,1.08095-.84648-1.38425-.562-2.12636-1.56531-2.37869-3.01156-.23144-1.32657-.28388-1.34743-1.65013-1.30422-.75146.02377-1.18402-.26455-1.40035-1.00921.21196,0,.36651-.01789.51571.00283,1.20777.16768,2.27389-.11954,3.23567-.89086.34187-.27416.73687-.90498,1.22421-.42712.39576.38806-.17572.7606-.37693,1.11936-.12595.22457-.24552.45297-.37866.67318-.57281.94731-.39966,2.43422.37805,3.21315.87335.87472,1.63805.99596,2.27172.43318.32916-.29235.26784-.57488.16267-.89699-.1931-.59145-.36591-1.18575-.23831-1.81536.03755-.18526.03341-.45698.29353-.46336.20625-.00506.26155.24161.3061.39886.12604.44496.22188.89927.3127,1.35328.26782,1.3388.99026,2.29507,2.2911,2.78531.36108.13608.71241.30004,1.06131.46576.20249.09617.48062.17947.39079.48337-.08478.28677-.36241.25791-.58916.23005-1.10452-.13568-2.07659-.57961-2.8372-1.39074-.30041-.32036-.44538-.2536-.81148-.08459-1.2048.55621-2.03128,1.6613-3.29428,2.13676.80457.58809,1.45302,1.2854,2.13537,1.94595,2.07782,2.01146,4.50349,2.78392,7.34071,2.02426.63863-.17099,1.15891-.52512,1.46916-1.15324.13797-.27931.1086-.82653.48364-.76904.39513.06058.29298.58234.34489.92602.00567.03753.05896.06786.1018.11408,1.41636-.73155,2.26332-1.83359,2.26758-3.47291.00274-1.05511-.58219-2.00168-.48288-3.21793-.89924.70157-1.68465,1.22975-2.60468,1.50786-.26721.08076-.59046.44003-.79365.00913-.17257-.36596.21084-.52986.4721-.67695,1.00682-.56684,2.01432-1.1012,2.86261-1.93703.44588-.43933.46852-.85226.53651-1.39827-1.44351.76079-2.91712.77992-4.42239.73683-2.57923-.07383-4.16513-1.37942-4.89669-3.79191-.12275-.4048-.31789-.27068-.57297-.22885-1.20851.19823-1.88052-.11591-2.42884-1.14182-.35687-.66771-.58883-1.37076-.52659-2.14891.02706-.33832.00455-.68062.00455-1.11829-1.16423.79511-2.24332,1.49039-3.60421,1.49179-1.4218.00146-2.83661-.07922-4.23728-.32736-1.82936-.32409-3.34249-1.05434-4.19185-2.88211-.43296-.9317-.80774-1.89455-1.29584-2.79884-.64504-1.19505-.70847-2.46355-.49844-3.74957.0682-.41759.02648-.48183-.37614-.59146-1.67532-.45617-2.90078-1.4643-3.31962-3.20039-.13671-.56668-.37028-.6541-.85569-.65906-.50536-.00517-1.03727.08464-1.50352-.23021-.53904-.364-.43192-.86311-.20025-1.30194.23811-.45101.53005-.03774.7588.08044.9847.50875,1.47885.34934,2.07233-.6476.25111-.42183.48675-.90263,1.12272-.90762-.26276-.38-.48702-.71748-.95114-.64506-.64299.10034-1.21477-.12828-1.80342-.32287-1.1388-.37649-1.11408-.34613-1.81493.65624-.49072.70184-.66212,1.50978-.84019,2.29765-.5293,2.34186,1.12094,4.87656,3.25083,5.68492.43401.16472.66196.3526.54617.83747-.06526.27326-.07045.56114-.13884.83335-.37431,1.48982.47951,2.87001,1.95696,3.2479.62329.15942,1.2716-.01107,1.90527.18988Z"/>
  <path class="cls-2" d="M100.87658,63.62497c-.44131.34092-.93213.24711-1.37989.33503-1.2316.24183-2.01932.96005-2.40314,2.14294-.0393.12113-.07861.24361-.13312.35823-.38226.80383-.49908.81359-1.24032.2924-1.43778-1.01092-2.98223-1.44774-4.72746-.85902-.3571.12046-.43302.30129-.40724.61381.06294.76307-.21,1.47322-.35704,2.20231-.0343.17008-.14613.32644-.23193.48385-.22743.41728-.62302.40929-.93411.22136-.36186-.21859-.02607-.49463.09073-.72037,1.14828-2.21961.9801-4.58778-.71334-6.35379-.64066-.66811-1.42548-1.00108-2.31038-1.14133-.62415-.09892-1.09991.20471-1.48189.65338-.19799.23254-.32614.52321-.49945.77838-.53097.78177-.77187.82624-1.5499.30177-1.40104-.94444-2.26013-.76196-3.29624.62664-.23754.31835-.56803.89649-1.01421.59909-.376-.25063-.11983-.80989.09082-1.19402.6795-1.23907,2.33186-1.7247,3.87766-1.12101.55849.2181.95567.40988,1.34618-.34699.3542-.68652,1.04088-1.13307,1.92337-1.04018.16788.01767.35062.05007.37853-.23702.11578-1.19106.08359-2.32549-.97433-3.15311-.18181-.14222-.34595-.31022-.50211-.48107-.13014-.14238-.35723-.29216-.13771-.51284.15971-.16056.38014-.15103.57754-.05236.58408.29196,1.13098.63484,1.40959,1.26289.18364.41398.4912.56826.92502.51593,1-.12062,2.01095-.22505,2.76248-1.00942.76887-.80247.81925-1.77502.13206-2.64319-.39152-.49462-.46008-.94109.00043-1.4397,1.10824-1.19992,1.19493-3.68018-.43208-4.84885-1.04617-.75147-1.52994-2.00143-2.03196-3.13982-1.18208-2.68055-3.3155-3.48454-6.02435-3.31321-.23176.01466-.46437.03476-.69586.02791-.16407-.00485-.38959.06573-.43846-.18976-.05327-.27852.1847-.37519.36734-.40996.325-.06187.66928-.10126.9951-.06255.56976.06769.61997-.23981.47753-.63123-.13939-.38307-.37503-.73007-.54818-1.10233-.08277-.17795-.20971-.41161.01476-.55316.17743-.11188.39893-.06633.57011.09515.4969.46872.95344,1.02693,1.03599,1.677.06403.5042.32791.61372.64508.6385,1.9228.15027,3.02421,1.37443,3.90961,2.90539.73321,1.2678,1.37557,2.5922,2.46116,3.62733,1.79426,1.71085,3.86885,1.20424,5.40196-.27856.13612-.13166.20234-.44066.44731-.30912.1546.08302.28395.31806.31715.5041.13988.7839-.39022,1.18912-.97641,1.48136-.99431.4957-2.09988.50176-3.17557.54759-.52612.02242-.6796.13331-.62235.67093.12019,1.12871-.25568,2.12112-.98674,2.98373-.07666.09046-.26914.12858-.04535.32747,1.91598,1.70283.45597,4.54946-1.84175,5.04004-.58887.12573-1.179.13541-1.76954.09345-.32875-.02335-.44861.04533-.45476.40128-.00836.48392.08198.97103-.07416,1.45714-.11353.35341.24456.24549.39958.29837,2.03491.69417,3.18826,2.1462,3.60467,4.21281.06374.3163.1448.39199.44223.29825,1.55643-.49052,3.00017-.03319,4.41374.56876.42464.18083.63101.29422.86855-.3052.61114-1.54219,2.7728-2.4799,4.33862-1.99032.06107.0191.10171.10362.18644.19491Z"/>
  <path class="cls-2" d="M98.99939,46.30911c.88737-.98877,1.26332-2.09546,1.13815-3.37926-.1214-1.24523-.49862-2.35472-1.73234-3.11724.46608-.22853.74171-.19125.95888-.01533.87114.70566,1.74889,1.42867,1.56576,2.73179-.10589.75345.18577.94831.92198.90863.91146-.04912,1.73277.43319,2.59285.68101.27172.07829.43725.36415.19206.68067-.23588.30453-.48304.45364-.83513.14128-.72161-.64019-1.55718-.82749-2.50112-.62738-.22656.04803-.33613.07056-.38885.34227-.15544.80081-.58383,1.48543-1.11794,2.08237-.24066.26897-.27669.41431-.03202.68655.9045,1.00646,1.5423,2.167,1.88325,3.5562,1.20416-1.21952,2.47205-2.03518,4.24375-1.31638-.23639.31654-.5056.49663-.89618.47323-1.39171-.08339-2.11158.98213-2.99462,1.76356-.13564.12003-.03104.28896-.01599.43905.18758,1.87123.13535,3.71113-.81946,5.40472-.23612.41882.04582.4479.31108.57154.99352.4631,1.92124.99685,2.17657,2.2014.05281.24914.21489.53596-.06774.68574-.28907.15319-.45197-.14242-.61766-.33457-.58896-.683-.93045-1.57484-1.91039-1.92174-.46435-.16438-.6883-.2134-1.0176.20401-.78739.99802-1.69878,1.87938-2.9202,2.33748-.48468.18178-1.24019.56821-1.45943.06965-.24088-.54781.61642-.607,1.01423-.77264,2.11732-.88162,3.4577-2.51084,4.25992-4.55737.73306-1.87013.56444-3.83195-.20307-5.65081-.98201-2.32723-2.28008-4.45969-4.75364-5.53862-.42205-.18409-.29195-.45715-.18267-.76387.29044-.81531.76525-1.57671.66628-2.50522-.05199-.4877-.05717-.9706-.28077-1.42912-.10975-.22506-.15092-.49573-.17017-.74977-.0247-.32602.10611-.72422.38578-.7738.34244-.0607.33545.36943.39334.62569.20945.92709.6495,1.88619.41038,2.80317-.49339,1.89207.63688,2.94993,1.80274,4.0631Z"/>
  <path class="cls-2" d="M84.30096,78.98734c.02484.51413.06504.89493.05767,1.2748-.02697,1.39122-1.23965,2.32127-2.59234,2.00153-.15399-.0364-.30754-.08103-.34212-.26271-.03424-.17988.0869-.29338.21647-.37646.41201-.26414.82024-.53762,1.25094-.76824.49144-.26313.74876-.69404.66335-1.19519-.09164-.53776.0285-1.19303-.77187-1.46395-.66371-.22466-1.34594-.56668-1.71122-1.24337-.12526-.23205-.48631-.51056-.10917-.7959.30914-.2339.53601.05299.72191.24846.83573.87882,1.8376,1.48598,2.99604,1.8141,2.83688.80351,5.43839.43679,7.68194-1.61254.21224-.19386.33535-.28028.69506-.07486,1.01079.57724,2.1057.98592,3.2891.41464,1.09484-.52851,1.4343-1.36993,1.08645-2.72366-.21698-.84442-.46194-1.68192-.66367-2.52983-.0601-.25268-.22978-.62846.09789-.76002.29118-.11692.42162.25918.5063.46897.64926,1.60847,1.14572,3.28618.90596,5.01646-.149,1.07531-1.16856,1.50807-2.1569,1.72227-.99634.21594-2.00059.2277-2.92067-.32512-.17603-.10577-.29039-.12805-.47839-.00821-2.20346,1.40463-4.65486,1.67728-7.19042,1.54521-.41141-.02142-.79429-.17414-1.23231-.36639Z"/>
  <path class="cls-2" d="M83.49329,53.30601c-.57606-.61703-.64325-1.23371-.61915-1.89987.04581-1.26627.04131-2.53622.93087-3.57801.16467-.19285.15684-.37233-.02145-.54255-.56794-.54223-.91455-1.30912-1.69053-1.64311-.22016-.09475-.56605-.19148-.40171-.52613.13904-.28314.44899-.16967.69581-.09649.71369.21159,1.20766.77135,1.81226,1.15614.59746.38025,1.19661.68561,1.95038.53739.20439-.04019.62888-.30109.64507.19545.01237.37937.07336.88538-.49935.991-.27615.05093-.5736.08018-.84692.03382-.65738-.11149-.99725.24301-1.22713.76829-.49683,1.13522-.78152,2.28998-.28429,3.51135.09632.2366.17225.49275.19486.74549.03439.38463.21903.53891.59218.54606.23059.00441.4704.04655.64775.21379.06532.0616.10674.17671.11032.26929.00585.15124-.13791.13461-.22848.12902-.28126-.01734-.57065-.01697-.84044-.08694-1.39829-.36268-2.65214-.13065-3.75307.83695-.25091.22052-.53104.40932-.80719.59892-.14958.10269-.33034.19523-.49377.03807-.20833-.20033-.05226-.40404.07459-.54469.84871-.94105,1.79897-1.70096,3.16748-1.65449.25063.00851.50179.00122.89191.00122Z"/>
  <path class="cls-2" d="M86.81803,73.70987c1.90754-.1848,3.72335-.23115,4.98027-1.85351.12961-.16728.32995-.49475.62006-.30875.24624.15789.12505.47389.08672.71803-.02281.14522-.08843.32564-.1971.40885-.90543.69325-1.72148,1.5572-2.97373,1.61722-.8741.04189-1.74754.09721-2.62159.14027-.61977.03053-1.22812.0313-1.7833-.33673-.40188-.26641-.82073-.19334-1.23324.03989-.8163.46155-1.70862.70022-2.63021.83131-.22004.0313-.52272.09553-.59533-.19557-.0919-.36847.26062-.39438.4923-.44841.86833-.20256,1.7373-.32056,2.35597-1.12811.31137-.40643.91879-.17149,1.3993-.1889.41665-.01511.89808.40728,1.23613-.20949.34712-.63331.58621-1.27714.27701-1.97709-.09231-.20895-.18891-.40707-.24166-.63144-.05331-.22675-.02379-.42505.18206-.53538.22938-.12294.46281-.07445.61407.14566.17345.2524.37201.50659.46578.79097.2401.72818.02738,2.31001-.43351,3.12118Z"/>
  <path class="cls-2" d="M89.6389,33.34574c1.32706.07602,2.58785,1.3233,2.63153,2.53613.01112.30898.0115.61833.01978.92743.03127,1.16827.12323,1.2417,1.28179,1.0039.1502-.03083.29128-.1043.44078-.14082.27745-.06779.68216-.4066.808-.09484.15745.39009-.04687.84796-.50675,1.08346-.63229.3238-1.30574.24379-1.97039.20734-.23556-.01292-.43061-.07022-.60805.16537-.62566.83076-1.53325,1.0849-2.50876,1.1165-.47232.0153-.58964.08521-.35623.5554.14109.28424.12617.65218.15195.9848.01276.1647.06487.39104-.16652.45973-.24371.07234-.37892-.09502-.47499-.29231-.11239-.23078-.24178-.45611-.3267-.69689-.22426-.63586-.49295-1.24156-1.00254-1.70735-.2598-.23748-.37157-.59755-.16916-.8216.21113-.2337.43537.11125.62772.24788.29067.20649.62706.66913.83531.61378.7616-.20243,1.5448-.41492,2.22482-.84762.78059-.49668,1.01634-1.30942.79704-2.37477-.19191-.93234-.4496-1.79735-1.36003-2.29815-.21154-.11636-.26884-.35776-.36862-.62736Z"/>
  <path class="cls-2" d="M49.0257,63.58475c1.63893-.70921,3.89661.23653,4.55814,1.89746.18471.46375.31606.47143.7362.28679,1.55468-.68321,3.15141-1.14871,4.85536-.52266.22469-1.80709,1.16072-3.11914,2.60167-4.10681.16834-.11538.34874-.21405.52792-.3125.30981-.17022.88883-.04898.94959-.35677.1114-.56437.02861-1.17964-.04739-1.76404-.0504-.38757-.42073-.2077-.63981-.19523-1.26509.072-2.39195-.22367-3.34775-1.10138-1.12999-1.03765-1.26269-2.826-.21475-3.92847.25026-.26329.19254-.33856.00797-.56971-.68168-.85378-1.05589-1.83803-.90716-2.93331.07204-.53051-.11479-.58377-.54896-.60532-.7455-.03702-1.49072-.11771-2.23057-.21988-.70639-.09755-1.32771-.3733-1.7837-.96765-.25085-.32695-.28694-.65719-.12871-1.00987.14411-.32121.31271-.55125.63547-.11336.73229.99348,1.84216,1.37527,2.96867,1.43604,1.46078.07882,2.4659-.8812,3.29732-1.97109.73611-.96495,1.2582-2.06753,1.88595-3.10252.82301-1.35693,1.89854-2.36097,3.58498-2.50992.3769-.03329.71626-.08731.76292-.69705.0476-.62208.52256-1.15656.98495-1.6182.18651-.1862.42599-.24175.63012-.09488.22499.16188.04069.3698-.03343.55103-.1548.37851-.43159.6873-.5377,1.10458-.11613.45666-.10078.67577.4529.60633.30298-.03799.62319-.02323.92369.03236.21065.03897.51283.11613.48887.40422-.02887.34712-.35586.23655-.55701.22491-1.00807-.05831-2.01058-.05047-3.0065.13689-1.63502.3076-2.65818,1.35325-3.40461,2.76732-.51381.9734-.97442,1.97486-1.61463,2.88386-.37949.53882-.95641.85242-1.3429,1.37191-.84828,1.14019-.61456,3.1579.19425,4.00894.51814.5452.51542,1.0293.04336,1.61557-.76495.95001-.48962,2.261.57694,2.91846.76695.47277,1.62563.61962,2.51236.67278.41038.0246.61118-.19974.77142-.51197.26885-.52386.66515-.90472,1.20236-1.1557.26249-.12264.53959-.31604.77028-.05697.3002.33713-.10635.51887-.28043.67096-.55023.48076-1.05976.96702-1.25536,1.71028-.0862.32755-.1469.64358-.13303.98568.02529.62396.05265,1.08182.94528,1.05905.70871-.01807,1.29887.56984,1.59379,1.20428.22499.48401.40328.45914.79293.28551,1.08287-.48255,2.18438-.61646,3.26932-.00703.68207.38314,1.18242.90974,1.18601,1.75937.00074.17324.07352.39453-.15235.46854-.17537.05746-.36097-.01399-.49223-.15374-.19302-.2055-.40533-.40234-.55497-.63753-.72012-1.13174-1.73095-1.38814-2.88496-.71025-.0889.05223-.17738.10544-.26354.16203-.8997.59083-1.19108.57374-1.67503-.37524-.87582-1.71736-2.23581-1.64373-3.67218-.60383-2.20825,1.59873-2.53037,4.28844-1.31741,6.71769.13347.2673.5397.57319.0748.82135-.42433.22651-.82139.03534-.97811-.44296-.27235-.83118-.50261-1.67673-.51534-2.5596-.00486-.33731-.13042-.43811-.46588-.54961-1.76067-.5852-3.29207-.11654-4.70115.93917-.51252.38399-.85967.37906-1.11406-.24436-.06804-.16673-.16342-.32427-.21494-.49546-.42786-1.4215-1.4484-2.06266-2.8631-2.1794-.3088-.02548-.6056-.05738-.90611-.31906Z"/>
  <path class="cls-2" d="M48.23624,51.03141c.39106-1.37758.97861-2.56491,1.88926-3.57905.22017-.24519.26047-.4233-.01802-.738-.52172-.58954-1.00693-1.24386-1.08627-2.07725-.02341-.24593-.15301-.27329-.34531-.31483-.90259-.195-1.73321-.08724-2.46186.52491-.19237.16162-.37578.39723-.66993.20511-.19672-.12847-.37443-.29269-.36113-.55582.01967-.38916.34996-.36732.61132-.46234.8954-.32552,1.78166-.69164,2.76117-.61572.31735.0246.40449-.10394.40927-.38675.00521-.30914.04475-.61756.05639-.92677.03283-.87189.96213-2.16077,1.76628-2.41677.16205-.05159.34984-.1188.5276.03856-.00133.28513-.24792.42522-.41358.59768-1.44778,1.50719-1.55577,3.98468-.26787,5.64502.24091.31057.36231.37973.61282.04468.19968-.26705.44908-.49645.66994-.74823.55617-.63404,1.01941-1.2123.84446-2.22557-.22322-1.293.02675-2.61884.44695-3.88406.0488-.14693.06333-.33771.23678-.36519.22976-.03639.29196.19268.35185.34289.13849.34737.11917.71989-.01357,1.05981-.49679,1.27228-.46614,2.49761.21165,3.70676.33354.59502.25991.91699-.47361,1.34141-2.66245,1.54053-4.13684,3.99871-4.78109,6.96384-.73111,3.36488.86474,6.33804,3.54326,8.0871.51095.33365,1.11245.52853,1.67206.78768.19193.08888.41141.19549.37131.43556-.05587.33457-.37116.24361-.56898.22026-1.09164-.12886-1.98652-.68-2.77574-1.40562-.43482-.39977-.86074-.82263-1.21486-1.29227-.25342-.33609-.44765-.29797-.77411-.15229-.75084.33506-1.35798.79867-1.71959,1.56015-.09718.20463-.2656.37979-.42024.55144-.13736.15247-.31172.32993-.52957.20474-.26203-.15058-.11962-.39046-.0791-.61797.21661-1.21634,1.1332-1.76089,2.11721-2.24478.1822-.0896.3738-.16009.56397-.24063-.9783-1.75617-1.32947-3.59253-1.00556-5.5417.07052-.42437-.03709-.67695-.35479-.99321-.79896-.79537-1.58227-1.5228-2.82597-1.43197-.28111.02052-.51775-.1928-.68948-.43632,1.39628-.80357,3.22334.06322,4.18665,1.33551Z"/>
  <path class="cls-2" d="M65.58852,79.11685c-2.93927.58803-5.73274.25014-8.33908-1.26144-.30279-.1756-.43261-.06471-.66833.04798-1.57512.75298-3.6787.32548-4.66153-.8792-.59144-.72494-.4159-1.52143-.26-2.28633.21877-1.07334.3186-2.18208.78647-3.19539.05365-.11619.1207-.22756.19269-.33359.1005-.14803.21389-.35243.4102-.28722.24348.08089.21558.32749.16533.53188-.19028.77402-.36394,1.55353-.59261,2.31634-.28747.95894-.59826,1.92734.28602,2.72495.88613.79927,1.92115.91927,3.01951.44855.34637-.14844.74096-.16981,1.02797-.4776.22586-.2422.42604-.03131.58021.14192,2.12298,2.38547,7.53382,2.91312,10.39801.06522.26287-.26138.63053-.91768,1.0328-.44712.361.42228-.16068.90656-.52819,1.20013-.41834.33417-.88582.67551-1.38775.82064-.80737.23343-.57959.86931-.65456,1.37073-.07054.47183.04828.91548.53681,1.18092.42982.23354.84351.49892,1.25116.77002.15979.10626.40071.22471.30166.47043-.08358.20732-.30943.22821-.52755.23946-1.62485.08381-2.38289-.64451-2.36959-2.28836.00244-.30233.00035-.60471.00035-.87293Z"/>
  <path class="cls-2" d="M66.51138,53.34973c1.43385-.20101,2.60637.1843,3.55766,1.17974.10673.11169.22877.20989.32719.3281.14742.17708.34716.39996.17416.60839-.16915.20378-.42425.08938-.62109-.05985-.20508-.15548-.41946-.3008-.61111-.47154-1.10576-.98513-2.36916-1.28573-3.80294-.91616-.373.09614-.98337.30267-1.06749-.06592-.09648-.4227.52334-.4089.88907-.47618.14894-.0274.32254-.033.37335-.21627.39276-1.4163.76624-2.81786.12038-4.28311-.36373-.82518-.89005-1.18098-1.78394-1.05272-.69979.10041-.98809-.25806-.95819-.94724.01153-.26584.06119-.40145.34771-.31716,1.14076.3356,1.98365-.26546,2.81945-.89237.45181-.33889.88791-.71228,1.47113-.80458.20578-.03256.44928-.0292.51902.21627.05978.21039-.13682.33651-.29954.39524-.77569.27995-1.14041,1.00161-1.68928,1.52557-.31458.3003-.35847.53697-.07161.90402,1.02508,1.31167.85527,2.85358.77383,4.37107-.01832.34148-.31812.56667-.46777.97468Z"/>
  <path class="cls-2" d="M63.03906,73.66762c-.57214-1.23413-.62449-2.39676-.13138-3.56043.14075-.33214.40853-.69892.83197-.43785.38538.23759.24141.68418.05073.9597-.33329.48158-.28312.96155-.16125,1.46056.20968.85856.51268,1.04109,1.40011.94256.77206-.08572,1.52803-.18164,2.05452.65289.2545.40342.82842.36048,1.26377.50148.1944.06297.40581.07318.60059.13528.23267.07418.60265.09755.51526.44042-.07614.29878-.43019.24633-.67318.20342-.73427-.12962-1.4862-.24825-2.13839-.62217-.73279-.42013-1.35997-.43572-2.16176-.05164-.81051.38826-1.77627.09561-2.67418.10761-1.38646.01854-2.60979-.38472-3.71098-1.24537-.5794-.45284-.76315-.76005-.63071-1.737.94434.46515,1.41768,1.51741,2.48193,1.78478,1.00201.25174,1.99343.46088,3.08295.46575Z"/>
  <path class="cls-2" d="M60.24518,33.27294c-.02926.43575-.2096.66209-.44852.81439-1.25387.79928-1.34996,2.04662-1.26976,3.33443.04425.7104.54308,1.15293,1.1608,1.42536.54106.23862,1.10579.42424,1.66281.62568.52674.1905.63774-.41075,1.0022-.5388.24036-.08446.40371-.57217.67353-.30333.26359.26263.05126.64559-.20938.87058-.6645.5736-.79307,1.42493-1.16556,2.14897-.12894.25061-.24758.6092-.58114.49618-.27566-.09341-.13455-.44735-.1459-.69465-.01922-.41886.11502-.80466.28676-1.23459-.69647-.08654-1.36956-.06754-1.97336-.37288-.13789-.06973-.3334-.0964-.4092-.20687-.62052-.90435-1.54299-.73702-2.44052-.76407-.60627-.01827-1.17361-.22149-1.31175-.96229-.0748-.40113.03022-.5672.4328-.38827.50106.2227,1.01406.32399,1.566.33896.39888.01082.50609-.07231.51081-.48703.01044-.91669-.10399-1.86521.47409-2.69195.52296-.7479,1.21627-1.2079,2.18529-1.40982Z"/>
</svg>