<?xml version="1.0" encoding="UTF-8"?>
<svg id="Capa_1" data-name="Capa 1" xmlns="http://www.w3.org/2000/svg" viewBox="0 0 150 150">
  <defs>
    <style>
      .cls-1 {
        fill: #67c6e1;
      }
    </style>
  </defs>
  <path class="cls-1" d="M11.64942,65.19269c-.48498-1.45868-.21594-2.32254-.16294-2.59532.32588-1.62162.48877-2.11036,1.13664-3.08409.46602-.61378,1.04192-1.13664,1.70117-1.54204,2.06488-1.1859,4.28895-1.26168,6.56602-.82975,2.07246.39405,4.03883,1.12529,5.93702,2.02323.92449.4357,1.79589.97752,2.70521,1.43215.42814.21596.87519.37888,1.33746.48877.45848.10987.64412.31445.73505-.10989.03029-.14775-.11368-.82975-.16294-.97372-.78426-2.18991-.73505-4.41015-.85248-6.70995-.0758-1.07603.03788-2.15583.32962-3.19396.34854-1.16316.81456-2.29224,1.55719-3.27353.5494-.76535,1.36775-1.29576,2.2922-1.4852,1.59132-.32206,3.11443-.18188,4.47839.77291.8411.58726,1.38671,1.42839,1.81485,2.34148,1.27682,2.75067,2.04592,5.71352,2.25811,8.73697.19703,2.76582.09472,5.54681-.30312,8.2899-.44705,3.14091-.9737,6.26667-1.46243,9.4038-.0493.32204-.1061.64031-.16294,1.00781-.26904-.01515-.53044-.00756-.78047-.04926-1.34125-.21594-2.6825-.44328-4.02375-.67439-2.28845-.39403-4.58823-.76155-6.8653-1.21242-1.26545-.25005-2.50439-.62893-3.74334-.99646-2.05729-.61378-4.11842-1.21242-6.14542-1.92092-2.24673-.78049-4.32678-1.98154-6.13025-3.53493-1.27308-1.09118-1.72772-1.33746-2.05355-2.31118Z"/>
  <path class="cls-1" d="M73.48267,80.97305c-1.12906,0-2.66733,1.04192-4.61103,3.12576-1.739,1.8944-2.87564,3.51223-3.41371,4.84966,1.78081-.89794,3.47439-1.9626,5.05429-3.17881,2.36421-1.75422,3.54247-3.1447,3.54636-4.17147,0-.41676-.19333-.62514-.57591-.62514ZM104.10369,64.52965c-.67433,0-3.35683,2.65216-8.04362,7.95648-4.45943,5.077-7.29723,8.5627-8.50963,10.4571,11.34744-9.2333,17.02305-15.23098,17.02305-17.9968,0-.2766-.15531-.41678-.46981-.41678ZM104.10369,64.52965c-.67433,0-3.35683,2.65216-8.04362,7.95648-4.45943,5.077-7.29723,8.5627-8.50963,10.4571,11.34744-9.2333,17.02305-15.23098,17.02305-17.9968,0-.2766-.15531-.41678-.46981-.41678ZM73.48267,80.97305c-1.12906,0-2.66733,1.04192-4.61103,3.12576-1.739,1.8944-2.87564,3.51223-3.41371,4.84966,1.78081-.89794,3.47439-1.9626,5.05429-3.17881,2.36421-1.75422,3.54247-3.1447,3.54636-4.17147,0-.41676-.19333-.62514-.57591-.62514ZM73.48267,80.97305c-1.12906,0-2.66733,1.04192-4.61103,3.12576-1.739,1.8944-2.87564,3.51223-3.41371,4.84966,1.78081-.89794,3.47439-1.9626,5.05429-3.17881,2.36421-1.75422,3.54247-3.1447,3.54636-4.17147,0-.41676-.19333-.62514-.57591-.62514ZM104.10369,64.52965c-.67433,0-3.35683,2.65216-8.04362,7.95648-4.45943,5.077-7.29723,8.5627-8.50963,10.4571,11.34744-9.2333,17.02305-15.23098,17.02305-17.9968,0-.2766-.15531-.41678-.46981-.41678ZM105.72151,81.49591c-1.02675,0-3.14463,1.53067-6.36141,4.59582-3.2129,3.06513-4.81934,5.11109-4.81934,6.13784,0,.46983.22357.70473.67821.70473.98892,0,3.11438-1.50037,6.369-4.50489,3.25831-3.00452,4.88752-5.02775,4.88752-6.07346,0-.57588-.25003-.86004-.75397-.86004ZM105.72151,81.49591c-1.02675,0-3.14463,1.53067-6.36141,4.59582-3.2129,3.06513-4.81934,5.11109-4.81934,6.13784,0,.46983.22357.70473.67821.70473.98892,0,3.11438-1.50037,6.369-4.50489,3.25831-3.00452,4.88752-5.02775,4.88752-6.07346,0-.57588-.25003-.86004-.75397-.86004ZM104.10369,64.52965c-.67433,0-3.35683,2.65216-8.04362,7.95648-4.45943,5.077-7.29723,8.5627-8.50963,10.4571,11.34744-9.2333,17.02305-15.23098,17.02305-17.9968,0-.2766-.15531-.41678-.46981-.41678ZM73.48267,80.97305c-1.12906,0-2.66733,1.04192-4.61103,3.12576-1.739,1.8944-2.87564,3.51223-3.41371,4.84966,1.78081-.89794,3.47439-1.9626,5.05429-3.17881,2.36421-1.75422,3.54247-3.1447,3.54636-4.17147,0-.41676-.19333-.62514-.57591-.62514ZM73.48267,80.97305c-1.12906,0-2.66733,1.04192-4.61103,3.12576-1.739,1.8944-2.87564,3.51223-3.41371,4.84966,1.78081-.89794,3.47439-1.9626,5.05429-3.17881,2.36421-1.75422,3.54247-3.1447,3.54636-4.17147,0-.41676-.19333-.62514-.57591-.62514ZM104.10369,64.52965c-.67433,0-3.35683,2.65216-8.04362,7.95648-4.45943,5.077-7.29723,8.5627-8.50963,10.4571,11.34744-9.2333,17.02305-15.23098,17.02305-17.9968,0-.2766-.15531-.41678-.46981-.41678ZM105.72151,81.49591c-1.02675,0-3.14463,1.53067-6.36141,4.59582-3.2129,3.06513-4.81934,5.11109-4.81934,6.13784,0,.46983.22357.70473.67821.70473.98892,0,3.11438-1.50037,6.369-4.50489,3.25831-3.00452,4.88752-5.02775,4.88752-6.07346,0-.57588-.25003-.86004-.75397-.86004ZM129.18932,116.6105c-6.17567.75397-12.43478,1.28818-18.72801,1.71631-3.87594.26522-7.77463.45845-11.67711.62137-4.30023.17809-8.60056.30689-12.90838.38267-.14782.00379-.29554-.00379-.44326-.00379l-.0531.01517-.0531-.01517c-.4243.0379-.85248.04926-1.27678.02652-.26141.03411-.5266.03788-.7881.01138-5.96357.12881-11.92334.09472-17.88312-.01517-3.56523-.0644-7.13429-.14777-10.69578-.26522-3.48568-.11745-6.96002-.29172-10.43816-.48116-4.57306-.25764-9.12341-.58349-13.6548-.98131-4.07296-.35615-8.10804-.78049-12.09766-1.29956,12.73799,17.38681,33.30356,28.67743,56.50622,28.67743,23.2064,0,43.77581-11.29441,56.50992-28.68501-.76914.10231-1.54207.20082-2.31879.29554ZM133.01225,110.1127c-5.43317,1.29199-11.17696,2.09901-17.03443,2.73932-4.2624.46222-8.55514.82216-12.87813,1.11012-4.54277.29931-9.1045.49633-13.67761.6441-6.1075.19321-12.21888.24626-18.33396.20079-4.38367-.03032-8.76729-.11745-13.14333-.28416-6.36141-.24249-12.69627-.6062-18.97434-1.17452-5.67182-.51529-11.28306-1.1556-16.71239-2.13689-2.87569-.52286-5.70591-1.09876-8.2861-1.90199.81076,1.44353,1.67083,2.85298,2.5802,4.22831.35613.05303.71225.10607,1.06838.16292,7.55868,1.12906,15.29922,1.84135,23.11168,2.38315,5.86131.39782,11.74528.68198,17.64826.85627,9.25981.27658,18.5234.32204,27.79468.1326,5.46721-.11366,10.92305-.29551,16.36381-.57588,4.45563-.2349,8.8961-.5418,13.3138-.92068,5.9484-.5115,11.83621-1.14043,17.59526-2.04596.90928-1.37154,1.76555-2.7772,2.57631-4.21694-.96996.29175-1.98154.55317-3.01208.79943ZM105.72151,81.49591c-1.02675,0-3.14463,1.53067-6.36141,4.59582-3.2129,3.06513-4.81934,5.11109-4.81934,6.13784,0,.46983.22357.70473.67821.70473.98892,0,3.11438-1.50037,6.369-4.50489,3.25831-3.00452,4.88752-5.02775,4.88752-6.07346,0-.57588-.25003-.86004-.75397-.86004ZM104.10369,64.52965c-.67433,0-3.35683,2.65216-8.04362,7.95648-4.45943,5.077-7.29723,8.5627-8.50963,10.4571,11.34744-9.2333,17.02305-15.23098,17.02305-17.9968,0-.2766-.15531-.41678-.46981-.41678ZM73.48267,80.97305c-1.12906,0-2.66733,1.04192-4.61103,3.12576-1.739,1.8944-2.87564,3.51223-3.41371,4.84966,1.78081-.89794,3.47439-1.9626,5.05429-3.17881,2.36421-1.75422,3.54247-3.1447,3.54636-4.17147,0-.41676-.19333-.62514-.57591-.62514ZM73.48267,80.97305c-1.12906,0-2.66733,1.04192-4.61103,3.12576-1.739,1.8944-2.87564,3.51223-3.41371,4.84966,1.78081-.89794,3.47439-1.9626,5.05429-3.17881,2.36421-1.75422,3.54247-3.1447,3.54636-4.17147,0-.41676-.19333-.62514-.57591-.62514ZM104.10369,64.52965c-.67433,0-3.35683,2.65216-8.04362,7.95648-4.45943,5.077-7.29723,8.5627-8.50963,10.4571,11.34744-9.2333,17.02305-15.23098,17.02305-17.9968,0-.2766-.15531-.41678-.46981-.41678ZM105.72151,81.49591c-1.02675,0-3.14463,1.53067-6.36141,4.59582-3.2129,3.06513-4.81934,5.11109-4.81934,6.13784,0,.46983.22357.70473.67821.70473.98892,0,3.11438-1.50037,6.369-4.50489,3.25831-3.00452,4.88752-5.02775,4.88752-6.07346,0-.57588-.25003-.86004-.75397-.86004ZM105.72151,81.49591c-1.02675,0-3.14463,1.53067-6.36141,4.59582-3.2129,3.06513-4.81934,5.11109-4.81934,6.13784,0,.46983.22357.70473.67821.70473.98892,0,3.11438-1.50037,6.369-4.50489,3.25831-3.00452,4.88752-5.02775,4.88752-6.07346,0-.57588-.25003-.86004-.75397-.86004ZM104.10369,64.52965c-.67433,0-3.35683,2.65216-8.04362,7.95648-4.45943,5.077-7.29723,8.5627-8.50963,10.4571,11.34744-9.2333,17.02305-15.23098,17.02305-17.9968,0-.2766-.15531-.41678-.46981-.41678ZM73.48267,80.97305c-1.12906,0-2.66733,1.04192-4.61103,3.12576-1.739,1.8944-2.87564,3.51223-3.41371,4.84966,1.78081-.89794,3.47439-1.9626,5.05429-3.17881,2.36421-1.75422,3.54247-3.1447,3.54636-4.17147,0-.41676-.19333-.62514-.57591-.62514ZM73.48267,80.97305c-1.12906,0-2.66733,1.04192-4.61103,3.12576-1.739,1.8944-2.87564,3.51223-3.41371,4.84966,1.78081-.89794,3.47439-1.9626,5.05429-3.17881,2.36421-1.75422,3.54247-3.1447,3.54636-4.17147,0-.41676-.19333-.62514-.57591-.62514ZM104.10369,64.52965c-.67433,0-3.35683,2.65216-8.04362,7.95648-4.45943,5.077-7.29723,8.5627-8.50963,10.4571,11.34744-9.2333,17.02305-15.23098,17.02305-17.9968,0-.2766-.15531-.41678-.46981-.41678ZM105.72151,81.49591c-1.02675,0-3.14463,1.53067-6.36141,4.59582-3.2129,3.06513-4.81934,5.11109-4.81934,6.13784,0,.46983.22357.70473.67821.70473.98892,0,3.11438-1.50037,6.369-4.50489,3.25831-3.00452,4.88752-5.02775,4.88752-6.07346,0-.57588-.25003-.86004-.75397-.86004ZM105.72151,81.49591c-1.02675,0-3.14463,1.53067-6.36141,4.59582-3.2129,3.06513-4.81934,5.11109-4.81934,6.13784,0,.46983.22357.70473.67821.70473.98892,0,3.11438-1.50037,6.369-4.50489,3.25831-3.00452,4.88752-5.02775,4.88752-6.07346,0-.57588-.25003-.86004-.75397-.86004ZM104.10369,64.52965c-.67433,0-3.35683,2.65216-8.04362,7.95648-4.45943,5.077-7.29723,8.5627-8.50963,10.4571,11.34744-9.2333,17.02305-15.23098,17.02305-17.9968,0-.2766-.15531-.41678-.46981-.41678ZM73.48267,80.97305c-1.12906,0-2.66733,1.04192-4.61103,3.12576-1.739,1.8944-2.87564,3.51223-3.41371,4.84966,1.78081-.89794,3.47439-1.9626,5.05429-3.17881,2.36421-1.75422,3.54247-3.1447,3.54636-4.17147,0-.41676-.19333-.62514-.57591-.62514ZM73.48267,80.97305c-1.12906,0-2.66733,1.04192-4.61103,3.12576-1.739,1.8944-2.87564,3.51223-3.41371,4.84966,1.78081-.89794,3.47439-1.9626,5.05429-3.17881,2.36421-1.75422,3.54247-3.1447,3.54636-4.17147,0-.41676-.19333-.62514-.57591-.62514ZM104.10369,64.52965c-.67433,0-3.35683,2.65216-8.04362,7.95648-4.45943,5.077-7.29723,8.5627-8.50963,10.4571,11.34744-9.2333,17.02305-15.23098,17.02305-17.9968,0-.2766-.15531-.41678-.46981-.41678ZM105.72151,81.49591c-1.02675,0-3.14463,1.53067-6.36141,4.59582-3.2129,3.06513-4.81934,5.11109-4.81934,6.13784,0,.46983.22357.70473.67821.70473.98892,0,3.11438-1.50037,6.369-4.50489,3.25831-3.00452,4.88752-5.02775,4.88752-6.07346,0-.57588-.25003-.86004-.75397-.86004ZM105.72151,81.49591c-1.02675,0-3.14463,1.53067-6.36141,4.59582-3.2129,3.06513-4.81934,5.11109-4.81934,6.13784,0,.46983.22357.70473.67821.70473.98892,0,3.11438-1.50037,6.369-4.50489,3.25831-3.00452,4.88752-5.02775,4.88752-6.07346,0-.57588-.25003-.86004-.75397-.86004ZM104.10369,64.52965c-.67433,0-3.35683,2.65216-8.04362,7.95648-4.45943,5.077-7.29723,8.5627-8.50963,10.4571,11.34744-9.2333,17.02305-15.23098,17.02305-17.9968,0-.2766-.15531-.41678-.46981-.41678ZM73.48267,80.97305c-1.12906,0-2.66733,1.04192-4.61103,3.12576-1.739,1.8944-2.87564,3.51223-3.41371,4.84966,1.78081-.89794,3.47439-1.9626,5.05429-3.17881,2.36421-1.75422,3.54247-3.1447,3.54636-4.17147,0-.41676-.19333-.62514-.57591-.62514ZM73.48267,80.97305c-1.12906,0-2.66733,1.04192-4.61103,3.12576-1.739,1.8944-2.87564,3.51223-3.41371,4.84966,1.78081-.89794,3.47439-1.9626,5.05429-3.17881,2.36421-1.75422,3.54247-3.1447,3.54636-4.17147,0-.41676-.19333-.62514-.57591-.62514ZM104.10369,64.52965c-.67433,0-3.35683,2.65216-8.04362,7.95648-4.45943,5.077-7.29723,8.5627-8.50963,10.4571,11.34744-9.2333,17.02305-15.23098,17.02305-17.9968,0-.2766-.15531-.41678-.46981-.41678ZM105.72151,81.49591c-1.02675,0-3.14463,1.53067-6.36141,4.59582-3.2129,3.06513-4.81934,5.11109-4.81934,6.13784,0,.46983.22357.70473.67821.70473.98892,0,3.11438-1.50037,6.369-4.50489,3.25831-3.00452,4.88752-5.02775,4.88752-6.07346,0-.57588-.25003-.86004-.75397-.86004ZM105.72151,81.49591c-1.02675,0-3.14463,1.53067-6.36141,4.59582-3.2129,3.06513-4.81934,5.11109-4.81934,6.13784,0,.46983.22357.70473.67821.70473.98892,0,3.11438-1.50037,6.369-4.50489,3.25831-3.00452,4.88752-5.02775,4.88752-6.07346,0-.57588-.25003-.86004-.75397-.86004ZM104.10369,64.52965c-.67433,0-3.35683,2.65216-8.04362,7.95648-4.45943,5.077-7.29723,8.5627-8.50963,10.4571,11.34744-9.2333,17.02305-15.23098,17.02305-17.9968,0-.2766-.15531-.41678-.46981-.41678ZM73.48267,80.97305c-1.12906,0-2.66733,1.04192-4.61103,3.12576-1.739,1.8944-2.87564,3.51223-3.41371,4.84966,1.78081-.89794,3.47439-1.9626,5.05429-3.17881,2.36421-1.75422,3.54247-3.1447,3.54636-4.17147,0-.41676-.19333-.62514-.57591-.62514ZM73.48267,80.97305c-1.12906,0-2.66733,1.04192-4.61103,3.12576-1.739,1.8944-2.87564,3.51223-3.41371,4.84966,1.78081-.89794,3.47439-1.9626,5.05429-3.17881,2.36421-1.75422,3.54247-3.1447,3.54636-4.17147,0-.41676-.19333-.62514-.57591-.62514ZM104.10369,64.52965c-.67433,0-3.35683,2.65216-8.04362,7.95648-4.45943,5.077-7.29723,8.5627-8.50963,10.4571,11.34744-9.2333,17.02305-15.23098,17.02305-17.9968,0-.2766-.15531-.41678-.46981-.41678ZM105.72151,81.49591c-1.02675,0-3.14463,1.53067-6.36141,4.59582-3.2129,3.06513-4.81934,5.11109-4.81934,6.13784,0,.46983.22357.70473.67821.70473.98892,0,3.11438-1.50037,6.369-4.50489,3.25831-3.00452,4.88752-5.02775,4.88752-6.07346,0-.57588-.25003-.86004-.75397-.86004ZM105.72151,81.49591c-1.02675,0-3.14463,1.53067-6.36141,4.59582-3.2129,3.06513-4.81934,5.11109-4.81934,6.13784,0,.46983.22357.70473.67821.70473.98892,0,3.11438-1.50037,6.369-4.50489,3.25831-3.00452,4.88752-5.02775,4.88752-6.07346,0-.57588-.25003-.86004-.75397-.86004ZM104.57349,64.94643c0-.2766-.15531-.41678-.46981-.41678-.67433,0-3.35683,2.65216-8.04362,7.95648-4.45943,5.077-7.29723,8.5627-8.50963,10.4571,11.34744-9.2333,17.02305-15.23098,17.02305-17.9968ZM73.48267,80.97305c-1.12906,0-2.66733,1.04192-4.61103,3.12576-1.739,1.8944-2.87564,3.51223-3.41371,4.84966,1.78081-.89794,3.47439-1.9626,5.05429-3.17881,2.36421-1.75422,3.54247-3.1447,3.54636-4.17147,0-.41676-.19333-.62514-.57591-.62514ZM140.29811,100.26182c3.11818-8.05876,4.70945-16.62146,4.70187-25.26372,0-38.65712-31.34085-69.99808-70.00178-69.99808C36.34105,5.00002,5.00006,36.34099,5.00006,74.9981c-.01133,8.63846,1.58374,17.20495,4.69812,25.26372.1591-.01894.32204-.03029.49256-.03409-.15535.03029-.3145.06061-.46981.09472.29928.76911.60995,1.53067.93582,2.28463,2.48548-1.19346,5.54297-1.95122,8.71803-2.6067.78047-.16292,1.53069-.38267,2.40967-.41676-2.04975.52665-4.15635,1.00781-5.97495,1.73148-1.32987.53042-2.59532,1.09118-3.25077,1.90955-.79189.98131-.50773,1.89061.71984,2.74309,1.24653.86765,2.94391,1.47764,4.75117,2.00808,4.10709,1.20861,8.58918,1.94743,13.16229,2.565,5.68699.76155,11.4725,1.27682,17.3148,1.65191,6.13788.39784,12.29468.62516,18.47799.74261,4.59586.08337,9.18784.09472,13.7837.03788.6327-.00756,1.2654-.01515,1.89819-.0265.83731-.01517,1.67462-.03032,2.50814-.04926,7.33516-.15915,14.63618-.50012,21.88411-1.10255,5.14901-.42434,10.24493-.97372,15.22717-1.76178,3.73959-.58728,7.39195-1.29956,10.69957-2.36044,1.78451-.57211,3.41751-1.25409,4.3685-2.25811.86007-.91311.65546-1.76939-.34475-2.59155-1.23515-1.0154-3.13335-1.67844-5.13384-2.27707-1.32987-.39782-2.7393-.72365-4.12976-1.06465,1.39425.19323,2.73171.46604,4.04641.76155,2.72792.62137,5.37629,1.31093,7.55485,2.34906.32588-.75018.6327-1.50417.92833-2.26949-.18574-.04169-.37888-.07957-.56462-.12124.09851.00759.19703.01894.29554.02652.09851.01135.19703.02273.29175.03409ZM72.94839,50.78768c.3675-.39784.45085-.80325.31071-1.38292-.25382-1.02298-.46981-2.09522-.44705-3.14091.04163-1.90957,1.14793-3.32279,2.6332-4.38364,1.64807-1.17833,3.37579-2.24299,5.11867-3.32279-.8449,1.1859-.92445,2.55365-1.06468,3.91004-.06438.6062-.12127,1.21621-.22348,1.82241-.21599,1.29197-.86007,2.2998-2.01946,2.9742-.85627.49633-1.70875,1.02298-2.51582,1.59509-.48877.34477-.7918.86763-.91686,1.5913.39026-.21596.70097-.38647,1.01537-.56076,1.62162-.88657,3.19023-1.87923,4.97474-2.44755,1.04571-.33342,1.72383-1.09118,2.07626-2.14068.41292-1.22378.7918-2.46272,1.60645-3.5122,1.32608-1.75045,3.22807-2.97801,5.37249-3.46297-1.04571,1.09118-1.04192,2.26949-.81456,3.54252.12118.70471.12118,1.42839.00379,2.1331-.22357,1.36019-1.13285,2.20888-2.41351,2.57259-1.01917.28416-2.08763.38647-3.13335.59484-2.78092.56076-5.2626,1.84514-7.6837,3.26594-.54936.32585-1.09872.65927-1.64428.98889,1.19723-.43951,2.4248-.62137,3.6827-.72747.88273-.0682,1.75038-.3031,2.61803-.48495.40922-.08714.80706-.22355,1.20861-.34479,2.07256-.61378,3.63349.61381,4.32687,1.84517,1.14043,2.03079.99641,4.08052-.02655,6.23256-.06059-.12881-.1061-.26143-.14023-.39782-.08714-.89794-.66674-1.67085-1.50035-2.00806-.81456-.35236-1.68221-.57211-2.52331-.86007-.75776-.25764-1.54207-.46981-2.2619-.81837-.45843-.21596-.84869-.55697-1.11768-.9851-.7881-1.40184-2.08384-1.77316-3.55015-1.37911-2.36421.63272-4.23206,2.03079-5.79309,3.87594-.14772.17429-.24624.52665-.60236.20079.50015-1.03813,1.32229-1.78451,2.24294-2.4324.8411-.59484,1.70496-1.15558,2.54986-1.75042.23874-.17806.45843-.37888.65166-.60241ZM17.5827,73.4068c-1.72772-.76153-3.391-1.64433-4.87623-2.83022-.3978-.31827-.76155-.67442-1.14043-1.0154l-.7388-.95479c-.03029-.0682-.06059-.13639-.09851-.20079-.54177-.85248-1.04951-1.88305-1.18585-2.88709-.16299-1.23892-.16299-2.49301,0-3.73196.1591-1.45868.65166-2.35662,1.62157-3.56904.64792-.81081,1.21624-1.19727,1.45868-1.4587.35992-.28037.77672-.53421,1.13664-.81079.11368-.06443,1.17457-.60622,1.29579-.65169,2.27328-.81081,3.62586-1.08738,6.081-.74638,2.39834.32962,4.18285.7767,6.24773,2.04594.12506.07578.72747.44708.86386.49633.01138-.15154-.04921-.17427-.21215-.98508-.41676-2.09522-.13639-3.65999.32204-5.74004.70471-3.17879,2.40213-5.67182,5.25886-7.29723,1.57995-.93582,3.45159-1.23892,5.24748-.85625,1.50414.31445,2.76205,1.09118,3.87973,2.11793.36371.33342.70855.68956,1.06088,1.03436l.98508,1.27303c.01892.05305.04167.10607.07201.15912.82973,1.2503,1.45489,2.62564,1.85268,4.07675.56074,1.98154.66304,4.00097.55315,6.0545-.17427,3.18639-.42051,6.36141-1.01917,9.50232-.46602,2.44757-.8449,4.91029-1.3147,7.35784-.25382,1.31093-.51527,3.08409-.67821,4.37985-2.10655-.15912-1.76176-.15154-2.10655-.15912-1.66708-.04167-3.12201-.09472-4.78526-.21217-2.70521-.18944-5.37629-.66304-8.05499-1.06844-4.054-.60999-7.97544-1.66329-11.72632-3.32279ZM122.69535,103.721c-.00379.03032-.00759.06063-.01517.09093-.00379.03411-.01517.0682-.02655.10231-.00759.03032-.01887.06061-.03025.09093-.08714.21596-.24633.43572-.47739.64789-.03793.03788-.08334.07578-.12885.10987-.27278.22355-.62512.44328-1.05709.64789-1.80717.86383-3.97824,1.42839-6.25531,1.90955-4.53139.95858-9.29015,1.51173-14.10949,1.9588-5.5278.5115-11.1087.78808-16.71614.94343-.6327.01894-1.26549.03409-1.89819.04546-.13265.00379-.2652.00756-.40164.00756-1.10251.01896-2.20511.0379-3.30762.04926-.27278.00379-.54177.00759-.81076.00759s-.53807,0-.81086.00379c-3.17118.01515-6.34245-.01138-9.50993-.08714-.87135-.01896-1.74279-.04549-2.61424-.07199-1.47001-.04549-2.93632-.10231-4.40254-.1705-.21599-.01138-.43198-.01894-.64412-.03032-2.22782-.10607-4.44805-.2387-6.6569-.4054-1.55345-.11745-3.09926-.25005-4.64128-.40161-.76914-.07578-1.53828-.15533-2.30741-.2387-1.14043-.12504-2.28087-.25764-3.40992-.4054-.54557-.07199-1.09118-.14398-1.633-.22353h-.00379c-.51523-.07199-1.02675-.15156-1.53444-.23111-.03788-.00759-.07955-.01138-.11743-.01896-.21599-.03409-.43198-.0682-.64412-.10607-.11743-.01894-.22732-.0379-.33721-.05684-.34096-.05682-.67821-.11745-1.01537-.18186-.15156-.02652-.29933-.05305-.4471-.08337-.26899-.04926-.53803-.10228-.80702-.15912-1.06468-.21976-2.11793-.46602-3.14852-.73882-.14393-.03788-.28791-.07576-.42809-.11366-.1061-.03032-.2122-.06061-.3145-.09093-.16669-.04546-.32958-.09093-.49252-.14398-.14777-.04167-.29554-.09093-.43951-.13639-.17806-.06063-.35613-.12124-.5304-.18188-.08718-.03029-.17432-.06061-.25771-.09472-.08714-.03029-.17048-.0644-.25382-.09849-.35233-.13641-.6858-.28795-.99646-.45087-.13639-.07199-.26899-.14398-.394-.21976-.28795-.1705-.53049-.34477-.72747-.51527-.03788-.0379-.0758-.07199-.11368-.1061-.04926-.04546-.09093-.08714-.12501-.12881-.07955-.08337-.14777-.1705-.20461-.25387-.02655-.04546-.053-.08714-.07576-.12881s-.04172-.08716-.05684-.12883c-.01892-.04167-.03029-.08334-.04167-.12501-.01138-.04169-.02276-.08716-.02655-.12883-.00379-.02273-.00759-.04167-.00379-.06061-.00759-.05684-.00379-.10989,0-.16294.00379-.03409.00759-.0644.01517-.09849.00379-.01896.00379-.03411.01138-.05305.01138-.05305.03034-.1061.05305-.15535.00754-.02273.01892-.04926.03409-.07199.03413-.0682.07576-.13639.12506-.20459.03783-.05305.07955-.10607.12876-.15533.0493-.05684.1061-.11368.16299-.1705.07955-.07199.17048-.14398.26899-.21596.24244-.18186.54177-.35994.8979-.53423.37134-.18186.75776-.35236,1.1594-.51148.15535-.06061.3145-.12124.4736-.17806.19703-.07578.40164-.14777.61004-.21596.07955-.02652.16289-.05305.24624-.07957.82593-.26522,1.69358-.49254,2.59157-.69713.31066-.07199.62512-.13641.94341-.20082.15531-.03411.31445-.0682.4736-.09851.1591-.03032.3182-.06061.48119-.09093.00375,0,.00754-.00379.01133-.00379.0758.00759.15535.01138.23111.01517-.20461.06061-.40917.11745-.61758.17806-.17048.04926-.341.09851-.51527.14777-.1326.03788-.2652.07578-.39784.11366-.12501.03411-.25003.07199-.37509.10987-.50769.15156-1.0002.31448-1.46622.50012-.05689.02273-.11748.04546-.17432.07199-.12881.05305-.25387.10989-.37888.16671-2.65216,1.2503-2.59153,2.5385.18944,3.71681,2.11793.89415,4.62616,1.43218,7.20251,1.8944,1.33367.2387,2.69762.44328,4.04646.66683l.01512.00759c.03409,0,.07201.00756.09851.03029.03409-.01135.07201-.01894.10989-.01894.0265,0,.05305.00379.07955.01138.0265.00756.05684.01515.0796.03029.01133.00759.01892.01138.03029.01896.03788,0,.07955-.00379.12122-.00379.2084,0,.41681.01135.62516.04167.05305.00379.10231.01138.15156.02273.06817.01138.14018.02273.20461.03788.01512,0,.0265.00379.03783.00759.0758.01517.14782.03411.21978.05305.21978-.02273.43951,0,.64787.06061,2.12556.19703,4.23969.42814,6.37658.59864,1.23895.10231,2.48168.19323,3.72437.27281,1.24653.07955,2.48922.15533,3.73954.21594.61004.03032,1.21619.05684,1.82623.08337.60995.02652,1.21619.04926,1.82623.07199,1.3715.05305,2.7393.09472,4.11079.12124.45843.01135.91307.01894,1.37159.03029.60995.01138,1.21998.02276,1.82993.02652,1.15181.01517,2.30741.02273,3.46302.02273h.85248c.76914,0,1.53828-.00377,2.30732-.01135.16678,0,.32967-.00379.49636-.00379,1.63679-.01515,3.27358-.04167,4.91027-.08334.83731-.01896,1.67471-.04549,2.51202-.07199,1.70117-.05684,3.40234-.12504,5.09971-.21596.02276,0,.04542,0,.06817-.00379.82603-.04167,1.65196-.08714,2.4741-.14018.57211-.03411,1.14043-.07199,1.71255-.11366.27658-.01896.54936-.0379.82593-.05684.45473-.03411.90937-.0682,1.36021-.1061.40922-.03029.81835-.0644,1.22378-.09849.12506-.00759.25003-.01896.37509-.03411.47739-.04167.95099-.08334,1.42839-.12881.55315-.04926,1.1063-.10231,1.65575-.16294.32199-.03029.64029-.0644.95849-.10228.41301-.04546.82603-.09093,1.23895-.14018.40164-.04546.79948-.09472,1.19732-.14777.39775-.05305.79559-.1061,1.18964-.15912.63279-.08716,1.26549-.17809,1.8944-.2766.62521-.09851,1.25032-.20459,1.87544-.31068.31071-.05303.62142-.10987.93203-.16671.60245-.10987,1.19732-.22732,1.78081-.35236.29545-.0644.58349-.1326.87135-.197.24254-.05684.48498-.11368.72372-.17809.25382-.0644.50006-.1326.74259-.20459.2084-.05684.42051-.12124.62512-.18565.17427-.05305.34863-.10989.51911-.1705.16289-.05305.32579-.11366.48498-.17429.10231-.03409.20082-.07199.29933-.11366.2084-.07957.41292-.16671.61374-.25384,2.315-1.02677,2.77722-2.21646.5304-3.41751-1.29953-.69336-2.9514-1.12526-4.61853-1.54963-.18186-.04167-.35992-.09472-.5304-.16669.37888.07197.75776.14395,1.13664.21594.19323.0379.38267.07578.57591.11368.15152.03029.30692.06061.45843.09472.22737.04546.45464.09472.67821.14775.37509.08337.74638.1705,1.11389.26143.13644.03411.27278.0682.40543.1061.13635.03409.26899.07199.40154.10987.13265.0379.26529.07578.39784.11745.20461.05684.40543.12124.60245.18944.19703.06443.39026.13262.58349.20461.10989.03788.21978.07955.32579.12501.24254.09093.47739.19323.70855.29933.09093.04167.17806.08334.2652.12501.0493.01896.09851.04546.14772.07199.08723.04169.17436.08716.25771.13262.10989.05682.2159.11745.3182.17806.07964.04926.1554.09472.22737.14018s.14023.09093.2084.14018c.13255.09472.24624.19323.34854.29175.0493.04926.09472.09851.13644.14777.12876.14777.21978.29551.28037.44328.01138.03032.02266.06063.03025.09093.01138.02652.01896.05684.02276.08337.00759.03029.01138.05682.01517.08334,0,.00379.00379.01138.00379.01894.00379.04169.00759.08337.00759.12504,0,.0379-.00379.07957-.00759.11745ZM133.97083,70.52353l-15.40144,18.13698c6.28935-5.59227,10.49117-8.39218,12.61293-8.39218.93573,0,1.40563.49633,1.40563,1.4852,0,1.06086-1.48907,3.0765-4.4708,6.04693-2.97804,2.97041-4.46701,4.71704-4.46701,5.23989,0,.48498.47739.72747,1.43218.72747.24244,0,.36371.14018.36371.41676,0,.32962-.42439.49633-1.27687.49633-1.50794,0-2.2657-.63272-2.2657-1.90199,0-1.45868,1.16319-3.3796,3.49336-5.75898,2.84919-2.92115,4.38358-4.58065,4.61094-4.97847.01896-.20838-.08714-.31448-.31071-.31448-.95858,0-3.39096,1.6595-7.29723,4.97849-2.92115,2.46651-5.2664,4.58823-7.03574,6.36139-.54566.56074-1.12915,1.08359-1.74668,1.56098-.26141,0-.50773-.16292-.74259-.49254-.2084-.26143-.33346-.5797-.35233-.91309,0-.40161,1.18964-2.11036,3.56902-5.13384l4.14493-5.21337c-1.686,1.57992-3.7888,3.36066-6.30832,5.3422l-5.00129,3.83047c-2.51952,1.72013-4.45554,2.58017-5.81196,2.58017-.0531.00759-.10231,0-.14782-.02273h-.00379c-.29165.0682-.69329.10231-1.20481.10231-1.16319,0-1.74659-.51527-1.74659-1.54204,0-.81837.46972-1.98154,1.40942-3.49706l-3.23186,2.74309c-1.5799,1.1821-2.8416,1.77316-3.78122,1.77316-1.49277,0-2.23924-.75776-2.23924-2.26949.02276-.95099.22737-1.89061.59866-2.76961-4.63749,3.65618-7.83521,5.48238-9.58948,5.48238-.02646,0-.04921,0-.07197-.00379-.21978.05684-.51153.08337-.87524.08337-1.43597,0-2.15581-.73124-2.15581-2.18994,0-1.42459.67821-3.52737,2.03463-6.30455l-6.43726,4.84587c-3.4743,2.37935-6.02036,3.56904-7.6344,3.56904-.053.00759-.1061,0-.15152-.01894-.5229.15156-1.40563.22732-2.65216.22732-2.2657,0-3.39859-.98129-3.39859-2.94388.00379-.50012.06443-1.00025.1819-1.48523-.87144.2084-2.50444,1.00783-4.89899,2.39832-2.07246,1.18969-3.65616,1.79589-4.74733,1.81862-.74643.27281-1.51931.5115-2.31874.7085-1.89819.46604-3.84564.70094-5.80068.70094-2.368.00759-4.72083-.35236-6.97894-1.06465-7.37299-2.368-9.5781-7.83144-9.72587-15.55302v-.10989c.16673,8.65742,7.11917,11.58616,10.66548,12.72659,7.25552,2.3301,15.91675.15533,19.72072-4.94817,3.22427-4.32303,2.46272-10.19188-1.99671-16.70104-9.24468-17.66718-6.66074-25.93813-4.30412-29.29121,2.07626-2.9477,5.39146-4.23208,9.17272-3.96309,4.86481.34479,8.9226,3.0803,9.57047,13.3025-.89411-2.67489-1.70496-5.15278-3.13335-6.98278-1.43209-1.82997-3.48189-3.01966-6.85767-3.12576-2.59537-.07955-4.8421.57211-6.22877,2.54229-1.56862,2.23161-4.26999,9.2333,4.49726,26.01392,6.92973,10.18427,4.07675,16.93215,1.75426,20.04653-.5494.73882-1.18594,1.43595-1.8944,2.07626,1.50794-.78049,2.77713-1.29197,3.81526-1.53446.79948-1.92849,2.45134-3.95172,4.95199-6.06967,2.65975-2.27705,4.92544-3.41369,6.80088-3.41369,1.39055,0,2.08763.59105,2.08763,1.76936,0,1.54961-1.47001,3.23183-4.40633,5.05804-2.07246,1.31473-4.29274,2.38317-6.61902,3.17881-.24254.54559-.3675,1.13664-.3638,1.73148,0,.89794.3145,1.4852.9435,1.7618.31441.12122.90928.197,1.78451.23111.28416.00756.50764.04546.66304.10987.14014-.05682.31441-.10231.51902-.1326.72751-.1061,1.57241-.42057,2.52719-.93964,1.14423-.60999,3.09921-1.93986,5.86126-3.99339,2.01558-1.45868,4.14493-3.0765,6.38787-4.84966,2.58778-3.87594,6.14922-8.08531,10.6844-12.62428,5.03533-5.04289,8.41491-7.56245,10.13504-7.56245.79948,0,1.20111.42434,1.20111,1.27682,0,2.18615-2.56882,5.68699-7.70645,10.50257-3.36441,3.12197-6.90318,6.0545-10.59347,8.78244-.88661.65925-1.98912,2.06111-3.30762,4.20556-1.37159,2.19373-2.05739,3.74713-2.05739,4.65266,0,.42055.44715.63652,1.34504.64789.08723-.04549.19703-.07957.32209-.09851,1.63679-.26143,3.8949-1.52311,6.77812-3.78124l3.36071-2.62943,5.39525-4.30028c2.46651-1.70496,4.5769-2.55365,6.33107-2.55365,1.30333,0,2.03463.65166,2.18994,1.95501.67821-.64408,1.14802-.96614,1.40942-.96614.57211,0,.86007.2349.86007.7085,0,.60622-1.33367,2.47031-4.001,5.58469-2.66724,3.1182-4.0009,4.92923-4.0009,5.4445,0,.35615.28786.54559.86007.56455.17048.00377.3182.02273.43947.05303.06059-.03409.13255-.06061.2121-.07955,1.34125-.32206,2.62191-.84869,3.80397-1.56098,2.03463-1.25032,5.08084-3.5918,9.14622-7.02445l5.2664-4.44805c1.11019-.93582,4.19423-4.36847,9.25222-10.29037,4.55045-5.33464,7.04341-8.00194,7.47918-8.00194.62512,0,.93582.39023.93582,1.17073,0,.5418-1.74668,2.86812-5.23615,6.98655ZM106.47548,82.35595c0-.57588-.25003-.86004-.75397-.86004-1.02675,0-3.14463,1.53067-6.36141,4.59582-3.2129,3.06513-4.81934,5.11109-4.81934,6.13784,0,.46983.22357.70473.67821.70473.98892,0,3.11438-1.50037,6.369-4.50489,3.25831-3.00452,4.88752-5.02775,4.88752-6.07346ZM104.57349,64.94643c0-.2766-.15531-.41678-.46981-.41678-.67433,0-3.35683,2.65216-8.04362,7.95648-4.45943,5.077-7.29723,8.5627-8.50963,10.4571,11.34744-9.2333,17.02305-15.23098,17.02305-17.9968ZM74.05857,81.59819c0-.41676-.19333-.62514-.57591-.62514-1.12906,0-2.66733,1.04192-4.61103,3.12576-1.739,1.8944-2.87564,3.51223-3.41371,4.84966,1.78081-.89794,3.47439-1.9626,5.05429-3.17881,2.36421-1.75422,3.54247-3.1447,3.54636-4.17147ZM73.48267,80.97305c-1.12906,0-2.66733,1.04192-4.61103,3.12576-1.739,1.8944-2.87564,3.51223-3.41371,4.84966,1.78081-.89794,3.47439-1.9626,5.05429-3.17881,2.36421-1.75422,3.54247-3.1447,3.54636-4.17147,0-.41676-.19333-.62514-.57591-.62514ZM104.10369,64.52965c-.67433,0-3.35683,2.65216-8.04362,7.95648-4.45943,5.077-7.29723,8.5627-8.50963,10.4571,11.34744-9.2333,17.02305-15.23098,17.02305-17.9968,0-.2766-.15531-.41678-.46981-.41678ZM105.72151,81.49591c-1.02675,0-3.14463,1.53067-6.36141,4.59582-3.2129,3.06513-4.81934,5.11109-4.81934,6.13784,0,.46983.22357.70473.67821.70473.98892,0,3.11438-1.50037,6.369-4.50489,3.25831-3.00452,4.88752-5.02775,4.88752-6.07346,0-.57588-.25003-.86004-.75397-.86004ZM105.72151,81.49591c-1.02675,0-3.14463,1.53067-6.36141,4.59582-3.2129,3.06513-4.81934,5.11109-4.81934,6.13784,0,.46983.22357.70473.67821.70473.98892,0,3.11438-1.50037,6.369-4.50489,3.25831-3.00452,4.88752-5.02775,4.88752-6.07346,0-.57588-.25003-.86004-.75397-.86004ZM104.10369,64.52965c-.67433,0-3.35683,2.65216-8.04362,7.95648-4.45943,5.077-7.29723,8.5627-8.50963,10.4571,11.34744-9.2333,17.02305-15.23098,17.02305-17.9968,0-.2766-.15531-.41678-.46981-.41678ZM73.48267,80.97305c-1.12906,0-2.66733,1.04192-4.61103,3.12576-1.739,1.8944-2.87564,3.51223-3.41371,4.84966,1.78081-.89794,3.47439-1.9626,5.05429-3.17881,2.36421-1.75422,3.54247-3.1447,3.54636-4.17147,0-.41676-.19333-.62514-.57591-.62514ZM73.48267,80.97305c-1.12906,0-2.66733,1.04192-4.61103,3.12576-1.739,1.8944-2.87564,3.51223-3.41371,4.84966,1.78081-.89794,3.47439-1.9626,5.05429-3.17881,2.36421-1.75422,3.54247-3.1447,3.54636-4.17147,0-.41676-.19333-.62514-.57591-.62514ZM104.10369,64.52965c-.67433,0-3.35683,2.65216-8.04362,7.95648-4.45943,5.077-7.29723,8.5627-8.50963,10.4571,11.34744-9.2333,17.02305-15.23098,17.02305-17.9968,0-.2766-.15531-.41678-.46981-.41678ZM105.72151,81.49591c-1.02675,0-3.14463,1.53067-6.36141,4.59582-3.2129,3.06513-4.81934,5.11109-4.81934,6.13784,0,.46983.22357.70473.67821.70473.98892,0,3.11438-1.50037,6.369-4.50489,3.25831-3.00452,4.88752-5.02775,4.88752-6.07346,0-.57588-.25003-.86004-.75397-.86004ZM105.72151,81.49591c-1.02675,0-3.14463,1.53067-6.36141,4.59582-3.2129,3.06513-4.81934,5.11109-4.81934,6.13784,0,.46983.22357.70473.67821.70473.98892,0,3.11438-1.50037,6.369-4.50489,3.25831-3.00452,4.88752-5.02775,4.88752-6.07346,0-.57588-.25003-.86004-.75397-.86004ZM104.10369,64.52965c-.67433,0-3.35683,2.65216-8.04362,7.95648-4.45943,5.077-7.29723,8.5627-8.50963,10.4571,11.34744-9.2333,17.02305-15.23098,17.02305-17.9968,0-.2766-.15531-.41678-.46981-.41678ZM73.48267,80.97305c-1.12906,0-2.66733,1.04192-4.61103,3.12576-1.739,1.8944-2.87564,3.51223-3.41371,4.84966,1.78081-.89794,3.47439-1.9626,5.05429-3.17881,2.36421-1.75422,3.54247-3.1447,3.54636-4.17147,0-.41676-.19333-.62514-.57591-.62514ZM73.48267,80.97305c-1.12906,0-2.66733,1.04192-4.61103,3.12576-1.739,1.8944-2.87564,3.51223-3.41371,4.84966,1.78081-.89794,3.47439-1.9626,5.05429-3.17881,2.36421-1.75422,3.54247-3.1447,3.54636-4.17147,0-.41676-.19333-.62514-.57591-.62514ZM104.10369,64.52965c-.67433,0-3.35683,2.65216-8.04362,7.95648-4.45943,5.077-7.29723,8.5627-8.50963,10.4571,11.34744-9.2333,17.02305-15.23098,17.02305-17.9968,0-.2766-.15531-.41678-.46981-.41678ZM105.72151,81.49591c-1.02675,0-3.14463,1.53067-6.36141,4.59582-3.2129,3.06513-4.81934,5.11109-4.81934,6.13784,0,.46983.22357.70473.67821.70473.98892,0,3.11438-1.50037,6.369-4.50489,3.25831-3.00452,4.88752-5.02775,4.88752-6.07346,0-.57588-.25003-.86004-.75397-.86004ZM105.72151,81.49591c-1.02675,0-3.14463,1.53067-6.36141,4.59582-3.2129,3.06513-4.81934,5.11109-4.81934,6.13784,0,.46983.22357.70473.67821.70473.98892,0,3.11438-1.50037,6.369-4.50489,3.25831-3.00452,4.88752-5.02775,4.88752-6.07346,0-.57588-.25003-.86004-.75397-.86004ZM104.10369,64.52965c-.67433,0-3.35683,2.65216-8.04362,7.95648-4.45943,5.077-7.29723,8.5627-8.50963,10.4571,11.34744-9.2333,17.02305-15.23098,17.02305-17.9968,0-.2766-.15531-.41678-.46981-.41678ZM73.48267,80.97305c-1.12906,0-2.66733,1.04192-4.61103,3.12576-1.739,1.8944-2.87564,3.51223-3.41371,4.84966,1.78081-.89794,3.47439-1.9626,5.05429-3.17881,2.36421-1.75422,3.54247-3.1447,3.54636-4.17147,0-.41676-.19333-.62514-.57591-.62514ZM73.48267,80.97305c-1.12906,0-2.66733,1.04192-4.61103,3.12576-1.739,1.8944-2.87564,3.51223-3.41371,4.84966,1.78081-.89794,3.47439-1.9626,5.05429-3.17881,2.36421-1.75422,3.54247-3.1447,3.54636-4.17147,0-.41676-.19333-.62514-.57591-.62514ZM104.10369,64.52965c-.67433,0-3.35683,2.65216-8.04362,7.95648-4.45943,5.077-7.29723,8.5627-8.50963,10.4571,11.34744-9.2333,17.02305-15.23098,17.02305-17.9968,0-.2766-.15531-.41678-.46981-.41678ZM105.72151,81.49591c-1.02675,0-3.14463,1.53067-6.36141,4.59582-3.2129,3.06513-4.81934,5.11109-4.81934,6.13784,0,.46983.22357.70473.67821.70473.98892,0,3.11438-1.50037,6.369-4.50489,3.25831-3.00452,4.88752-5.02775,4.88752-6.07346,0-.57588-.25003-.86004-.75397-.86004ZM105.72151,81.49591c-1.02675,0-3.14463,1.53067-6.36141,4.59582-3.2129,3.06513-4.81934,5.11109-4.81934,6.13784,0,.46983.22357.70473.67821.70473.98892,0,3.11438-1.50037,6.369-4.50489,3.25831-3.00452,4.88752-5.02775,4.88752-6.07346,0-.57588-.25003-.86004-.75397-.86004ZM104.10369,64.52965c-.67433,0-3.35683,2.65216-8.04362,7.95648-4.45943,5.077-7.29723,8.5627-8.50963,10.4571,11.34744-9.2333,17.02305-15.23098,17.02305-17.9968,0-.2766-.15531-.41678-.46981-.41678ZM73.48267,80.97305c-1.12906,0-2.66733,1.04192-4.61103,3.12576-1.739,1.8944-2.87564,3.51223-3.41371,4.84966,1.78081-.89794,3.47439-1.9626,5.05429-3.17881,2.36421-1.75422,3.54247-3.1447,3.54636-4.17147,0-.41676-.19333-.62514-.57591-.62514ZM73.48267,80.97305c-1.12906,0-2.66733,1.04192-4.61103,3.12576-1.739,1.8944-2.87564,3.51223-3.41371,4.84966,1.78081-.89794,3.47439-1.9626,5.05429-3.17881,2.36421-1.75422,3.54247-3.1447,3.54636-4.17147,0-.41676-.19333-.62514-.57591-.62514ZM104.10369,64.52965c-.67433,0-3.35683,2.65216-8.04362,7.95648-4.45943,5.077-7.29723,8.5627-8.50963,10.4571,11.34744-9.2333,17.02305-15.23098,17.02305-17.9968,0-.2766-.15531-.41678-.46981-.41678ZM105.72151,81.49591c-1.02675,0-3.14463,1.53067-6.36141,4.59582-3.2129,3.06513-4.81934,5.11109-4.81934,6.13784,0,.46983.22357.70473.67821.70473.98892,0,3.11438-1.50037,6.369-4.50489,3.25831-3.00452,4.88752-5.02775,4.88752-6.07346,0-.57588-.25003-.86004-.75397-.86004ZM105.72151,81.49591c-1.02675,0-3.14463,1.53067-6.36141,4.59582-3.2129,3.06513-4.81934,5.11109-4.81934,6.13784,0,.46983.22357.70473.67821.70473.98892,0,3.11438-1.50037,6.369-4.50489,3.25831-3.00452,4.88752-5.02775,4.88752-6.07346,0-.57588-.25003-.86004-.75397-.86004ZM104.10369,64.52965c-.67433,0-3.35683,2.65216-8.04362,7.95648-4.45943,5.077-7.29723,8.5627-8.50963,10.4571,11.34744-9.2333,17.02305-15.23098,17.02305-17.9968,0-.2766-.15531-.41678-.46981-.41678ZM73.48267,80.97305c-1.12906,0-2.66733,1.04192-4.61103,3.12576-1.739,1.8944-2.87564,3.51223-3.41371,4.84966,1.78081-.89794,3.47439-1.9626,5.05429-3.17881,2.36421-1.75422,3.54247-3.1447,3.54636-4.17147,0-.41676-.19333-.62514-.57591-.62514ZM73.48267,80.97305c-1.12906,0-2.66733,1.04192-4.61103,3.12576-1.739,1.8944-2.87564,3.51223-3.41371,4.84966,1.78081-.89794,3.47439-1.9626,5.05429-3.17881,2.36421-1.75422,3.54247-3.1447,3.54636-4.17147,0-.41676-.19333-.62514-.57591-.62514ZM104.10369,64.52965c-.67433,0-3.35683,2.65216-8.04362,7.95648-4.45943,5.077-7.29723,8.5627-8.50963,10.4571,11.34744-9.2333,17.02305-15.23098,17.02305-17.9968,0-.2766-.15531-.41678-.46981-.41678ZM105.72151,81.49591c-1.02675,0-3.14463,1.53067-6.36141,4.59582-3.2129,3.06513-4.81934,5.11109-4.81934,6.13784,0,.46983.22357.70473.67821.70473.98892,0,3.11438-1.50037,6.369-4.50489,3.25831-3.00452,4.88752-5.02775,4.88752-6.07346,0-.57588-.25003-.86004-.75397-.86004ZM105.72151,81.49591c-1.02675,0-3.14463,1.53067-6.36141,4.59582-3.2129,3.06513-4.81934,5.11109-4.81934,6.13784,0,.46983.22357.70473.67821.70473.98892,0,3.11438-1.50037,6.369-4.50489,3.25831-3.00452,4.88752-5.02775,4.88752-6.07346,0-.57588-.25003-.86004-.75397-.86004ZM104.10369,64.52965c-.67433,0-3.35683,2.65216-8.04362,7.95648-4.45943,5.077-7.29723,8.5627-8.50963,10.4571,11.34744-9.2333,17.02305-15.23098,17.02305-17.9968,0-.2766-.15531-.41678-.46981-.41678ZM73.48267,80.97305c-1.12906,0-2.66733,1.04192-4.61103,3.12576-1.739,1.8944-2.87564,3.51223-3.41371,4.84966,1.78081-.89794,3.47439-1.9626,5.05429-3.17881,2.36421-1.75422,3.54247-3.1447,3.54636-4.17147,0-.41676-.19333-.62514-.57591-.62514ZM73.48267,80.97305c-1.12906,0-2.66733,1.04192-4.61103,3.12576-1.739,1.8944-2.87564,3.51223-3.41371,4.84966,1.78081-.89794,3.47439-1.9626,5.05429-3.17881,2.36421-1.75422,3.54247-3.1447,3.54636-4.17147,0-.41676-.19333-.62514-.57591-.62514ZM104.10369,64.52965c-.67433,0-3.35683,2.65216-8.04362,7.95648-4.45943,5.077-7.29723,8.5627-8.50963,10.4571,11.34744-9.2333,17.02305-15.23098,17.02305-17.9968,0-.2766-.15531-.41678-.46981-.41678ZM104.10369,64.52965c-.67433,0-3.35683,2.65216-8.04362,7.95648-4.45943,5.077-7.29723,8.5627-8.50963,10.4571,11.34744-9.2333,17.02305-15.23098,17.02305-17.9968,0-.2766-.15531-.41678-.46981-.41678ZM73.48267,80.97305c-1.12906,0-2.66733,1.04192-4.61103,3.12576-1.739,1.8944-2.87564,3.51223-3.41371,4.84966,1.78081-.89794,3.47439-1.9626,5.05429-3.17881,2.36421-1.75422,3.54247-3.1447,3.54636-4.17147,0-.41676-.19333-.62514-.57591-.62514ZM104.10369,64.52965c-.67433,0-3.35683,2.65216-8.04362,7.95648-4.45943,5.077-7.29723,8.5627-8.50963,10.4571,11.34744-9.2333,17.02305-15.23098,17.02305-17.9968,0-.2766-.15531-.41678-.46981-.41678ZM104.10369,64.52965c-.67433,0-3.35683,2.65216-8.04362,7.95648-4.45943,5.077-7.29723,8.5627-8.50963,10.4571,11.34744-9.2333,17.02305-15.23098,17.02305-17.9968,0-.2766-.15531-.41678-.46981-.41678Z"/>
  <g>
    <polygon class="cls-1" points="127.294 99.39225 127.36521 99.38933 127.35564 99.40782 127.294 99.39225"/>
    <polygon class="cls-1" points="43.7595 107.29004 43.74054 107.309 43.72542 107.30142 43.7595 107.29004"/>
  </g>
</svg>